<?xml version="1.0" encoding="UTF-8"?><svg id="Layer_2" xmlns="http://www.w3.org/2000/svg" viewBox="0 0 559.74 331.93"><defs><style>.cls-1{fill:#42b649;}</style></defs><g id="Layer_1-2"><g><path class="cls-1" d="m374.76,177.27c.52-.8,1.01-1.56,1.33-2.05-.94-.97-1.62-1.68-2.43-2.53.43-.26.78-.47,1.25-.76.11.49.19.79.25,1.11.21,1.09,1.28,1.75,2.32,1.37.19-.07.45-.35.43-.5-.07-.52-.3-1.02-.36-1.54-.06-.53.03-1.08.06-1.67h-1.08c0-.13-.04-.25,0-.34.17-.38.48-.74.51-1.13.03-.35-.17-.79-.42-1.05-.12-.13-.69-.07-.85.1-.47.51-.87,1.09-1.24,1.68-.38.61-.7,1.26-1.22,1.77v-2.29c.29-.21.98-.5.95-.7-.23-1.72,1.22-1.68,2.11-1.87.76-.16,1.42-.11,1.78-.96.1-.24.58-.31.82-.52.29-.26.52-.59.78-.89-.1-.13-.2-.27-.3-.4-.66.32-1.31.64-1.95.96-.47-.49.22-2-1.53-1.39-.64.22-1.69-.97-2.62-1.28-.66-.22-1.46-.13-2.18-.04-.64.08-1.26.35-1.95.3.69-.59,1.39-1.17,2.13-1.79q1.16.84,1.98-.72c.43,1.65,2.13,2.7,3.99,2.53.28-.03.58.19.87.28.96.31,1.54-.11,1.4-1.12,1.31.18,1.91-.68,2.21-1.73.29-1.04.36-2.13.61-3.19.15-.65.46-1.26.68-1.9.08-.23.08-.48.12-.73-.27.01-.63-.08-.79.05-.85.73-1.65,1.52-2.75,2.15.31-.61.5-1.35.96-1.8.9-.88,1.25-1.86.8-3.07-.3-.82-.61-1.65-1.25-2.56-.28.63-.57,1.27-.84,1.89-1.01-1.42-.97-1.92.18-3.13.14-.14.05-.5.07-.75-.22.01-.52-.07-.65.05-1.85,1.6-1.87,2.08-.94,4.74.22.63.13,1.72-.29,2.15-.72.74-.78,1.22-.14,1.94.1.11.01.4.01.54-1.7.09-2.15-1.41-3.23-2.3v2.21c-.77-.7-1.27-1.15-1.64-1.48.25-.72.38-1.29.63-1.81.22-.46.68-.82.84-1.29.36-1.03.66-2.1.85-3.17.05-.28-.37-.91-.6-.92-.95-.04-1.92.06-2.87.19-.23.03-.53.3-.59.52-.04.14.25.42.43.6.2.21.53.34.64.58.2.44.51,1.01.37,1.38-.26.68-.85.43-1.35.11-.13-.09-.32-.15-.47-.13-.63.06-1.26.16-2.06.26-.01.13-.05.52-.08.95-.55-.23-1.14-1.12-1.63.1-.08.19-.64.26-.98.27-.53.02-1.07-.06-1.36-.08-.37.58-.65.96-.87,1.39-.14.28-.31.67-.2.9.09.18.59.32.84.25.63-.18,1.23-.49,1.84-.73.5-.19,1.01-.34,1.73-.58-.1.74-.17,1.29-.29,2.13-.57-1.06-.99-1.2-1.53-.25-.18.32-.75.54-1.17.58-.59.06-1.19-.09-1.79-.15-.16.22-.32.44-.48.65.35.12.75.18,1.05.38.73.49,1.36,1.18,2.15,1.52.42.18,1.08-.19,1.63-.32.07-.21.14-.42.2-.63.31.45.59.93.95,1.33.49.54.67.97.22,1.72-.56.92-.86,2-1.28,3.04-.33-.65-.7-1.38-1.09-2.16-1.41,1.2-2.08,1.16-3.49.15-.26-.19-.86-.19-1.15-.01-1.19.71-2.32,1.53-3.66,2.42.23.67,0,1.51-1.08,2.06-.23.12-.27.58-.41.87-.3.63-.61,1.25-1.06,2.15.19.44.71,1.04,1.53.42.51-.39.75-1.15,1.28-1.66.42,1.68-1.32,2.44-1.59,3.82-.13.05-.25.1-.38.15-.65-.92-1.3-1.84-1.95-2.75.13-.06.26-.13.4-.19-.14-.5-.24-1.03-.44-1.51-.19-.46-.46-.9-.75-1.3-.41-.57-.89-.67-1.22.07-.54,1.19-1,2.46-2.49,2.14-.09,1.27-.18,2.44-.26,3.62-.17.04-.34.07-.51.11-.42-.66-.85-1.31-1.42-2.19-.32.28-.96.57-.99.91-.12,1.36-.86,2.14-2.12,2.53-.61-.71-1.28-.63-1.77.28-.21.39-.59.68-.89,1.02-.24.27-.48.54-.72.8-.37.41-.75.83-1.2,1.32-.55-.72-.96-1.49-1.83-.71-.73.65-.99,1.26-.24,2.13.33.38.34,1.04.49,1.58-.13.08-.25.17-.38.25-.4-.36-.79-.72-1.43-1.3-.2,1.2-.38,2.24-.6,3.53-.64-.96.49-2.35-1.32-2.49.86-.97,1.59-1.79,2.46-2.76-1.18-.1-1.99-.25-2.47,1.03-.32.87-1.15,1.54-1.7,2.34-.86,1.25-1.7,2.51-2.49,3.8-.4.66-.77.99-1.67.94-.96-.05-1.95.36-3.04.6.76.72,1.31,1.17,1.76,1.7.74.86.66,2.17-.31,2.86-.79.57-.65.88-.02,1.4.21.18.22.61.33.92-.3-.05-.69,0-.9-.16-.49-.38-.96-.82-1.31-1.33-.44-.63-.46-1.17.44-1.57.52-.24.87-.86,1.3-1.32-.08-.18-.15-.36-.23-.54-1.18.1-2.37.2-3.85.33.17,1.02.32,1.96.47,2.9-.1.01-.2.02-.31.03-.19-.29-.37-.57-.57-.87-1.09.96-1.08.98,1.68,2.61-.34.12-.59.23-.86.28-.71.14-1.03.35-.41,1.05.18.2.1.68.04,1.01-.05.26-.37.51-.36.75.04.85-.47,1.01-1.15,1.18-.62.15-1.2.51-1.85.8.1-.64.26-1.27.26-1.89,0-.36-.19-.97-.4-1.02-.43-.1-.96.05-1.41.19-.28.09-.49.48-.76.53-.57.09-1.24-.13-1.71.1-.41.2-.62.84-.94,1.32-.45-.21-.84-.39-1.24-.58.02-.05.06-.12.09-.19.2-.44.39-.88.59-1.32-.42.16-.95.22-1.23.52-.42.44-1.03.97-.35,1.7.47.5.96.99,1.35,1.56.4.58.72.58,1.4.4.47-.13,1.14.46,1.58.67-.24.4-.81.98-.94,1.65-.14.71.14,1.51.26,2.38-.24-.15-.6-.33-.9-.58-.72-.59-1.36-1.3-2.14-1.78-.25-.15-.85.28-1.29.45.24.35.41.92.73,1.01,1.6.47,1.7.65.85,2.36-.61-.67-1.2-1.36-1.84-1.98-.37-.36-1.68.41-1.81,1.05-.05.24-.04.48-.06.92-.58-.24-1.03-.42-1.64-.67.27-.25.39-.34.49-.45.21-.24.41-.5.62-.75-.34.02-.68,0-1.02.06-.44.07-1,.07-1.29.33-.54.48-1.27,1.14-1.26,1.71.01.59.82,1.16,1.3,1.77-.18.12-.55.38-.78.54.21.56.45.95.46,1.35,0,.15-.66.52-.77.44-.4-.29-.81-.68-1.01-1.13-.17-.39-.07-.91-.05-1.37.04-1.15-.57-1.56-1.61-1.03-.43.22-.82.52-1.24.8v1.42c-.33.05-.66.06-.96.16-.35.11-.96.26-.98.44-.14,1.52-1.38,1.99-2.34,2.82-.87.75-.47,1.76.22,2.52-1.19.32-2.36.64-3.85,1.05.97.65,1.82,1.22,2.67,1.79,0,.06-.02.12-.03.18-1.15-.15-2.3-.31-3.62-.49.28,1.86,1.74.92,2.45,1.76-.81.23-1.57.44-2.46.69.58.95,2.59.44,1.76,2.21-.99-.32-2.01-.64-3.02-.97.23-.6.46-1.09.58-1.62.04-.17-.19-.46-.37-.59-.09-.07-.39.05-.52.17-.36.32-.76.64-1,1.05-.17.3-.17.74-.13,1.11.04.43.21.84.33,1.26-.09.12-.17.25-.26.37h6.25c-.19,1.34.71,1.73,1.9,1.94-1.48.9-1.9.79-2.83-.26-.3-.34-.84-.61-1.3-.65-2.4-.22-4.8-.39-7.21-.51-.4-.02-.82.29-1.35.49.31.43.52.72.73,1.01q-.8,1.54,1.68,2.22c-.8.69-.94,1.55-2.25,1.94-1.7.5-3.92.55-4.88,2.68-.11.25-.98.28-1.46.21-.48-.07-.91-.4-1.37-.62-.13.15-.25.3-.38.45.78.83,1.55,1.65,2.47,2.63-.65-.14-1.14-.3-1.64-.34-.55-.05-1.26-.49-1.53.51-.04.13-.64.15-.99.15-.73,0-1.29.17-1.45,1,1.08.2,2.04.39,3.22.61-.33.39-.61.71-.86,1-1.53-.7-2.42-.38-3.29,1.12-.08,0-.21.02-.24-.02-.62-1.07-1.14-1.61-2.23-.28-.52.63-.55.93-.13,1.41.61.7,1.27,1.35,1.91,2.03-.06.09-.11.19-.17.28-.41-.18-.81-.38-1.22-.52-.89-.3-1.78-.64-2.7-.8-.29-.05-.71.35-.98.63-.06.07.23.49.39.74.39.63.81,1.23,1.16,1.88.08.14-.08.42-.13.63-.26-.16-.58-.27-.76-.5-.82-1.05-2.22-.88-2.82.44.41.16.81.32,1.28.51-.3.54-.59,1.05-.88,1.59-.14-.17-.34-.42-.7-.86-.41.67-.75,1.21-1.06,1.72q-.84-1.75-2.62-.52c-.33.56-.88,1.1-.94,1.7-.06.57.3,1.24.6,1.79.12.22.6.24.92.35-.04.15-.08.3-.12.45-.41-.11-.85-.17-1.23-.34-.45-.2-.85-.66-1.3-.71-.6-.06-1.22.17-1.83.28.21.49.4.99.64,1.46.11.22.4.36.46.58.08.29.02.62.02.93-.34-.05-.75-.01-1.02-.18-.61-.37-1.13-.88-1.73-1.26-.21-.14-.56-.06-.84-.09-.01.31-.15.72,0,.92.44.61.99,1.14,1.48,1.98-.39-.15-.91-.19-1.14-.47-.49-.62-.91-.47-1.37-.06-.98.86-2.3,1.52-1.89,3.23.04.17-.25.45-.43.64-.53.55-1.06,1.1-1.64,1.59-.23.19-.6.33-.89.3-.8-.09-1.59-.27-2.39-.42-.34-.06-.67-.15-1-.23-.05.44-.26.95-.11,1.3.28.63.64,1.12.02,1.79-.09.09.55.85.94,1.42-.33-.09-.73-.09-1.02-.28-1.87-1.23-2.23-1.17-3.52.66-.48.68-1.02,1.32-1.53,1.98-1.5-1.09-3.15-.38-3.66,1.46-.15.52-.67.93-1,1.41-.49.7-.94,1.42-1.43,2.12-.36.52-.68,1.11-1.15,1.52-.59.52-1.28.94-1.97,1.33-.44.26-.97.36-1.43.6-.45.24-.86.56-1.27.87-.61.44-1.19.93-1.82,1.34-.23.15-.64.05-.84.22-1.18,1-2.31.26-3.06-.41-.74-.66-1.37-1.81-1.42-2.79-.2-3.53-.56-7.01-1.98-10.29-.06-.13-.04-.32,0-.47.37-1.4-.32-2.45-1.76-2.74-.64-.13-1.25-.35-2.18-.62,1.77-.58,2.07-1.27,1.61-3.59-.68.55-1.24.99-1.85,1.49-.18-1.35-.37-2.75-.56-4.16-.03-.21-.04-.42-.1-.62-.5-1.64-1.1-3.26-1.47-4.93-.21-.95-.04-1.98-.04-3.02-.54-.04-.94-.08-1.65-.13.37-.45.6-.72.81-1.01.28-.39.63-.76.75-1.2.08-.27-.22-.64-.34-.97-.23.18-.45.37-.69.55-.19.14-.37.34-.58.38-.12.02-.4-.24-.4-.37,0-.2.14-.44.29-.61,1.3-1.51,2.14-1.58.15-3.89.74-.1,1.57-.43,1.78-.2,1.31,1.46,1.69.27,2.05-.43.55.38,1.23,1.17,1.59,1.04,1.49-.52,2.37-1.67,2.37-3.58.78.81.98,2.15,2.47,1.77-.18-.42-.32-.75-.5-1.16.98.15,2.33,1.21,2.7-.37.16-.68-.9-1.65-1.4-2.48-.1.05-.2.1-.3.15.05-.1.13-.3.16-.3,1.58.34,2.43-1.15,3.74-1.49.2-.05.35-.28.52-.43-.21-.16-.39-.37-.62-.45-.27-.09-.58-.05-.87-.1-.75-.12-1.62-.14-1.34-1.31.25-1.08.99-.89,1.94-.65-.26.31-.51.48-.57.69-.06.23.05.51.08.78.21-.06.47-.06.63-.18,1.03-.84,1.28-.71,1.76.6.22.59.75,1.06,1.38,1.54-.61-2.1,1.32-2.51,2.2-3.12,1.17-.81.97-1.28.45-2.05.28-.55.58-1.04.79-1.57.45-1.11,2.04-1.71,3.04-1.12,1.3.77,1.32.77,2.14-.35h1.16c-.08-.28-.22-.55-.23-.83-.01-.21.13-.42.21-.63.12-.31.4-.65.35-.92-.3-1.53.53-2.42,1.62-3.23.17-.13.2-.5.21-.77,0-.14-.23-.4-.22-.41,1.97-1.37-.14-1.33-.66-1.86.28-.44.56-.89.82-1.3.35.53.71,1.07,1.15,1.74.48-.98.66-1.88,1.21-2.28.5-.37,1.4-.22,2.29-.31.02-.32.06-.86.12-1.68.41.56.65.9,1.01,1.4.24-.37.37-.65.57-.87.48-.53.99-1.04,1.5-1.55.28-.28.6-.52.86-.81.02-.02-.25-.43-.32-.41-.41.11-.82.27-1.2.47-.17.09-.27.31-.53.64-.57-.49-1.11-.95-1.72-1.48.91.04,1.64.08,2.69.13-.43-.71-.65-1.07-1.02-1.69.65.34,1.08.55,1.49.79.92.54,1.3.36,1.32-.7.02-1.1,0-2.21,0-3.45.52.77.9,1.35,1.29,1.92.38-.47.94-.89,1.09-1.43.11-.4-.29-.94-.49-1.49.71-.27,1.66-.65,2.64-.97.15-.05.41.2.6.33.27.18.52.39.77.59.06-.34.12-.68.18-1.02.02-.12.03-.24.06-.41.45-.02.9-.05,1.43-.08.08-.8-1.68-1.52-.1-2.3.72-.36,1.39-.83,2.31-1.38-.23-.86-.56-2.03-.88-3.2.05-.02.15-.1.2-.07.62.27,1.34.92,1.82.77.84-.27,1.55-.98,2.25-1.58.19-.16.11-.62.16-.94.14-.97.27-1.93.43-3.01,1.44.7,2.89,1.04,1.45,3.14.71-.24.98-.33,1.24-.43.07-.03.09-.14.15-.2,1.02-1,1.11-1.29.96-2.54-.16-1.28-.62-2.31-2.14-2.53.04-.1.07-.2.11-.3.56,0,1.12.03,1.68,0,.37-.02.83-.02,1.07-.23.74-.66,1.15-.51,1.43.38.03.1.28.13.77.33,0-1.14,0-2.11,0-3.07,0-1.52,1.71-3.48,3.15-3.58.13,0,.3.23.42.21.38-.08.74-.24,1.11-.37-.15-.37-.24-.79-.47-1.11-.17-.24-.62-.28-.78-.52-.68-1.02-1.5-1-2.49-.53-1.38.65-2.3.59-3.37-.26h3.11c-.47-.65-.76-1.05-1.09-1.5.85.18,1.8.13,2.43.56,1.42.96,2.23-.05,3.2-.69.31-.2.6-.43.89-.65.14.06.28.12.42.17-.11-.63-.23-1.26-.33-1.84.94.23,1.03,2.45-.02,2.97-.38.19-.84.25-1.26.37-.02.16-.04.33-.06.49.69.16,1.45.57,2.06.41.68-.19,1.74-.48,1.39-1.58.39-.08.72-.15,1.06-.22-.1-.28-.24-.56-.28-.85-.07-.43-.08-.86-.12-1.34.86.1,1.48.18,2.11.26.1-.11.21-.23.31-.34-.33-.5-.56-1.11-1-1.47-.7-.57-1.14-1.12-.69-2.02.36-.73.76-1.41,1.79-.91.18.09.46-.03.8.19-.36.25-.73.51-1.41.98.63.1.99.26,1.29.19.42-.11.83-.34,1.16-.62.18-.15.31-.72.28-.73-1.62-.76-.48-1.81-.38-3.04,1.59,1.85,3.16.77,4.7.36q-.08-1.14-2.71-.2c.08-.87,1.1-1.44,3.5-1.94.47-1.14-2.15-.59-1.05-2.11.86.28,1.75.58,2.95.98-.1-1.14-.17-2-.26-3.11.4-.1.97-.25,1.62-.41-.13-.78.12-1.83-1.28-2.05-.21-.03-.33-.63-.5-.97,1.96.48,3.53,1.35,4.17,3.44.17-.1.34-.2.51-.31-.11-1.36-.23-2.71-.37-4.46-.56.53-.87.82-1.19,1.11-.43-.22-.97-.5-1.45-.74.6-.74,1.2-1.47,1.81-2.21-.08-.1-.16-.2-.24-.31.4-.03.79-.06,1.44-.1-1.1.97-1.25,1.6.19,2,.61.17,1.11.73,1.71,1,.58.26,1.18.09,1.2-.62.01-.63-.1-1.71-.44-1.83-1.2-.44-.39.82-.8,1.14-.77-.36-1.03-1-.49-1.8.41-.61,1.06-1.05,1.66-1.62-.76-.75-2.39.48-2.54-1.31.36-.18.74-.38,1.21-.62.46.9,1.05,1.51,2.09.59.18-.16.57-.08.84-.17.37-.12.72-.3,1.09-.46-.22-.29-.45-.57-.67-.86.02-.11.04-.23.06-.34.29.09.61.12.86.28.27.17.44.51.72.67.68.4,1.13.24,1.15-.62.05-1.82-.75-2.29-2.43-1.49-.29.14-.7.02-1.2.02.6-.53,1.01-.91,1.44-1.27.49-.41.84-.66,1.41.08.54.7,1.29,1.17,1.53,2.15.15.62,1.15.52,1.51-.15.21-.39.27-.85.41-1.35-.65-.17-1.19-.31-1.9-.5.72-.73,1.3-1.41-.3-1.75.45-.53.76-.9,1.03-1.23.7.97,1.27,1.81,1.89,2.62.18.23.48.41.75.48.15.03.54-.27.53-.36-.07-.29-.25-.56-.42-.81-.12-.16-.3-.28-.35-.61.53.27,1.06.53,1.89.95-.15-1.28-.22-2.29-.44-3.27-.04-.17-.69-.2-1.31-.37.02-.14.08-.54.15-.94.36.08.71.2,1.07.22.41.02.82-.07,1.23-.11-.2-.26-.35-.58-.6-.78-.38-.3-.82-.51-1.23-.76.15-.21.29-.42.44-.64.65.23,1.72.33,1.85.73.22.71-.11,1.6-.25,2.41-.05.27-.36.53-.32.76.16.83.41,1.64.65,2.53.13-.08.48-.17.5-.31.17-1.26,1.14-2.26,1.03-3.64-.06-.79.2-1.68.55-2.4.2-.41.87-.74,1.37-.82,1.11-.18,2.34.43,3.34-.56.05-.05.48.28.73.44.33.2.65.4.98.6.1-.12.2-.24.3-.36-.28-.35-.56-.69-.92-1.14,1.17-.61,1.91-1.42.89-3.06-.66,1.55-1.5,2.71-3.02,3.07-.21.05-.48-.18-.7-.27.55-.46,1.02-.87,1.5-1.27,0-.02.01-.04.02-.06.6-.58,1.27-1.11,1.79-1.76.65-.8,1.18-1.68,1.75-2.54.2-.31.59-.84.5-.95-.4-.51-.92-.95-1.46-1.33-.31-.22-.74-.26-1.11-.38.02-.1.05-.21.07-.31.92.18,1.84.35,3.23.62-.62-1.52-1.1-2.71-1.61-3.96,1.52-1,2.93-.7,3.75.96.09.56.17,1.12.32,1.66,0,.04.7.03.77-.11.5-.93.91-1.91,1.43-3.04-.6-.04-.91-.06-1.31-.09-.14-1.7-1.56-1.24-2.66-1.43.17-.51.32-.98.6-1.83-1.46.16-2.72.19-3.93.47-.91.21-1,1.24-.2,1.8.68.47.65.69.04,1.29-.61.6-.91,1.51-1.34,2.29-.14.25-.25.51-.26.52-.94-.95-1.79-2.06-2.88-2.82-1.22-.86-1.98-.47-3.34,1.44-.34-.64-.63-1.18-.88-1.63.47-.33.79-.55,1.11-.78-.18-.21-.34-.56-.55-.59-.35-.05-.76.04-1.09.19-.34.14-.62.42-.93.64-.21-.37-.43-.74-.62-1.12-.07-.14-.08-.31-.1-.41-.72-.21-1.37-.39-2.1-.6-.08.37-.15.72-.2.93-.43-.11-.9-.38-1.29-.29-.22.06-.5.76-.4,1.05.12.35.66.53.94.85.73.85,1.42,1.74,2.14,2.62-2.89.25-5.26-.52-7.33-2.09.61-.94.23-1.92-1.14-2.54-.6-.27-1.22-.54-1.77-.9-.83-.55-1.37-.36-1.84.47-.29.5-.7.94-1.18,1.34.11-1.2.57-2.56-.7-3.15-1.34-.62-1.59.71-1.8,1.44-1.09.08-2.04.16-3.1.24-.11-.48.19-1.32-.83-1.79-.62-.29-.82-.23-1.24.17-.43.42-.96.75-1.44,1.12-.36-.51-.71-1.02-1.07-1.53-.11-.16-.25-.31-.58-.73-.28,1.26-.51,2.27-.74,3.29-.11-.05-.23-.09-.34-.14.26-1.13-.44-2.04-1.82-2.37-.71-.17-1.21.47-1.45,2.08-.95-.27-1.88-.53-2.85-.8.1-.47.18-.81.28-1.27-.96-.15-1.86-.31-2.77-.38-.05,0-.31.73-.21,1.04.2.62.53,1.22.93,1.73.19.24.67.29,1.03.37.12.03.4-.2.4-.19.28.47.73.94.76,1.43.06.85.5,1.96-.67,2.41-.69.27-1.03-.27-1.37-.91-1.14-2.09-2.95-3.32-5.31-3.74-.87-.16-1.72-.41-2.76-.67-.02.02-.24.22-.33.47-.76,2.11-3.06,2.49-4.87,1.1-1.23-.94-2.83-1.44-4.31-2.01-.32-.12-.85.27-1.24.42-.71-.77-1.47-1.59-2.25-2.42-.82.91-.71,1.85-.05,2.49.8.79,1.48,1.7,2.17,2.59.15.19.1.54.16.93-.33-.02-.56-.01-.79-.04-.54-.08-1.08-.18-1.62-.28.07.5.15,1,.23,1.54-1.04.61-2.46-.41-3.71-3-.65.5-1.24.96-1.96,1.52-.13-.92-.3-2.04-1.74-1.71-.91.21-1.82.41-2.73.61-.02.17-.04.34-.07.51-.59-.51-1.19-1-1.76-1.53-1.33-1.22-1.64-1.19-2.49.42-.2-.14-.38-.35-.6-.4-.35-.07-.71-.03-1.07-.04.11.37.15.8.36,1.11.33.49.71,1.04,1.2,1.31.62.34,1.37.55,2.07.59,1.01.05,2.07-.38,2.29,1.27.05.41,1.05.94,1.65.98,1.14.07,1.11.79,1.21,1.54.12.91-.42,1.15-1.19,1.22-1.44.13-2.3-.5-2.86-1.68-.34-.72-1.08-1.27-1.7-1.83-.1-.09-.54.21-.82.33-.71-1.91-2.88-3.17-4.97-3.14-1.11.01-2.23-.4-3.2-.59-.18-.56-.24-1.15-.55-1.55-.16-.2-1.12-.07-1.12-.02-.08.69-.05,1.4-.05,2.23-.05.01-.37.18-.47.09-.93-.77-2.57-.33-3.11-1.8-.05-.13-.55-.09-.84-.13.12.34.14.81.38,1,1.28.98,1.89,2.3,2.31,4.11-3.4-2.58-6.86-3.97-10.91-3.28q-.11.84,1.53,1.88c-.47.28-.97.58-1.46.88.03.11.05.22.08.33,1.19.25,2.05.72,1.65,2.12-.33,1.14-1.25,1.46-2.07.61-.75-.78-1.54-1.6-2.02-2.55-.5-.99-1.23-1.09-2.14-1.18-.64-.06-1.25-.31-1.88-.41-1.17-.19-2.35-.39-3.52-.43-.26,0-.63.59-.78.98-.06.14.34.47.54.72.3-.24.59-.47.88-.71.09-.07.16-.17.23-.25,1.48.66,2.93,1.3,4.37,1.95-.03.13-.05.26-.08.39-.37,0-.77.08-1.11-.01-2.26-.59-4.52-1.18-6.75-1.85-1.08-.32-1.88.1-2.64.73-.77.64-1.46,1.19-2.53.37-.37-.29-1.15-.05-1.98-.05-.93-1.23-2.46-1.67-4.23-1.37-.6.1-1.07.08-1.29-.62-.03-.11-.46-.09-.7-.13.03.26-.02.56.1.75.11.19.49.21.6.4.15.27.29.67.2.91-.09.22-.52.48-.76.44-.85-.11-1.52.06-2.32.45-.77.37-.97.74-1.02,1.46-.04.54-.17,1.07-.29,1.74-.24-.18-.54-.3-.56-.45-.14-1.49-1.22-1.5-2.3-1.5-.38,0-.75.07-1.13.11-1.12.13-2.17.23-2.58-1.25-.08-.31-.84-.43-1.29-.64.03.43,0,.88.09,1.3.09.35.42.65.49,1,.06.33-.01.75-.19,1.02-.07.11-.59-.03-.89-.11-.44-.11-.86-.29-1.29-.41-.24-.07-.66-.03-.71-.16-.39-.95-1.02-1.28-2.04-1.11-.53.09-1.1-.06-1.65-.1v2.03c-1.42,1.18.95,2.12.86,3.67-.83-.3-1.55-.53-2.25-.82-.76-.32-1.17-.73-1.25-1.75-.09-1.17-3.39-1.8-4.77-.86-.13-.2-.23-.57-.45-.66-.47-.2-1-.27-1.5-.39-.09.62-.41,1.34-.19,1.82.24.54.93.92,1.49,1.28.89.58,1.82,1.08,2.67,1.76-1.94.35-3.36-.61-4.77-1.69-.53-.4-1.2-.63-1.82-.89-.66-.28-1.32-.62-2.01-.73-1.02-.16-1.84-.57-2.55-1.31-.12-.12-.53.03-1.14.09.51.6.85,1.01,1.22,1.44-.57,1.19-.55,1.22,1.32,2.12-.4,1.46.93,1.81,1.69,2.2,1.27.65,1.7,1.92,2.6,2.83.13.13-.09.9-.33,1.04-.35.19-1.06.27-1.29.06-.78-.74-1.43-1.63-2.12-2.47-.24-.29-.41-.66-.71-.86-1.56-1.07-3.13-2.14-4.74-3.13-.68-.42-1.48-.64-2.34-1-.04.57-.06.87-.11,1.5-.65-.56-1.05-1.04-1.56-1.32-.41-.22-.95-.21-1.43-.29.05.44,0,.92.18,1.29.43.89.99,1.4,2.22,1.2.82-.13,1.75.51,2.64.99-.42,0-.84,0-1.26,0-1.06.03-1.26.46-.78,1.4.16.33.03.8.04,1.21-.41-.04-1.05.08-1.2-.14-.59-.86-1.07-.73-1.7-.09-.16.16-.54.09-.69.11.15-.6.51-1.3.34-1.48-.64-.66-1.4-1.42-2.23-1.57-.38-.07-1-.21-1.49-.13-1.88.33-3.76.65-5.6,1.11-.32.08-.49.78-.79,1.3-.24-.37-.44-.68-.76-1.15-.74.41-1.46.81-2.42,1.34.8.41,1.28.65,1.75.9,0,.14,0,.27.01.41-.51.13-1.02.31-1.54.37-1.34.15-2.71.14-4.02.42-.68.14-1.23.82-1.89,1.15-.34.18-.83.28-1.19.17-1.48-.42-2.01-.27-2.66.75-1.16,0-2.19-.11-3.18.02-2.11.28-4.22.62-6.29,1.09-.49.11-.84.79-1.23,1.18-.3-.22-.65-.49-1-.75-.36.71-.73,1.42-1.01,1.97-.23-.45-.56-1.13-.9-1.81-.12.03-.24.05-.36.08-.17.43-.34.87-.57,1.43-.79-.88-1.58-.84-2.41-.18-.2.16-.54.24-.8.21-3.4-.44-6.79-.92-10.2-1.34-.34-.04-.73.29-1.09.46-.07.03-.09.17-.16.19-1.62.43-2.32,1.55-2.54,3.15-.02.16-1.13.25-1.72.21-.32-.02-.59-.45-.91-.61-.23-.12-.6-.22-.78-.12-.16.09-.28.58-.18.73.54.86,1.01,1.9,1.79,2.45,1.05.73.5,1.37.21,2.03-.39.89-1,.35-1.42.03-.45-.34-.91-.78-1.12-1.28-1.15-2.65-4.29-4.11-6.75-2.83-.66.34-1.53.28-2.44.42.36.73.66,1.49,1.09,2.17.37.59.1.85-.3,1.23-2.63,2.5-5.56,2.04-8.4.66-2.55-1.23-5.04-1.1-7.64-.49-.3.07-.78.2-.92.05-1-1.05-1.78-.48-2.58.36-.47-.36-.92-.7-1.37-1.04q-.7,1.05,1.51,2.4c-.54,2.12-.53,2.14,1.7,2.89,1.56.53,2.04,1.08,1.95,2.47-.02.36-.35.88-.67,1.02-.98.42-2.72-.32-3.57-.99-1.01-.81-2.19-1.45-3.38-1.97-.98-.42-2.08-.57-3.13-.81-.36-.09-.8-.27-1.09-.14-1.38.62-2.72.06-4.06-.09-.22-.02-.38-.37-.62-.46-.25-.1-.76-.17-.79-.09-.66,1.51-1.53.47-2.23.14-1.01-.48-1.4-.38-1.81.76,2.55.13,3.01,2.44,4.27,3.92-1.2,1.56-1.59,1.77-3.25,1.17-1.52-.55-2.95-1.31-4.42-1.98-.18-.08-.41-.27-.55-.22-1.7.58-3.34-.5-4.97-.22-1.07.19-2.02.97-3.07,1.36-1.17.44-2.38.78-3.58,1.09-.75.19-1.53.24-2.42.38-.2-.23-.58-.81-1.1-1.19-.2-.15-.71.13-1.08.21-.08.15-.15.3-.23.44.33.22.66.43.94.62-.36.32-.77.68-1.27,1.13,1.53.42,2.3,2.45,1.53,3.6-.19.28-.57.54-.9.58-.18.02-.49-.37-.63-.64-.2-.36-.32-.77-.43-1.18-.25-.98-.76-1.41-1.86-1.42-1.4-.01-2.81-.33-4.21-.46-.34-.03-.76.08-1.04.28-.35.26-.61.96-.89.95-.9-.02-1.83-.19-2.68-.47-1.68-.56-3.33-1.24-5.22-1.95-.25-.94-1.02-1.75-2.32-2.25-.81-.31-1.52-1.02-2.14-1.68-.63-.66-.67-1.8-1.83-2.07-.19-.04-.29-.74-.31-1.14-.16-2.21-.31-4.42-.39-6.63-.02-.45.23-.96.49-1.37.81-1.29.77-1.55-.74-2.37,1.97-1.07,2.01-2.96,1.91-5.21,1.04,1,1.5.71,1.83-.08.25-.6.55-1.18.92-1.97.45.67.74,1.14,1.06,1.58.22.3.54.81.74.77.33-.05.64-.44.89-.74.12-.14.08-.4.13-.69.31.25.55.57.86.65.24.06.63-.11.81-.32.34-.38.52-.93.88-1.28.94-.91,1.13-1.99.39-2.74.03-.08.03-.17.08-.23,1.45-1.83,1.44-1.82,3.44-.39.24.17.61.17.92.25-.13-.29-.19-.64-.39-.86-.85-.94-.68-2.26.43-2.73.03-.35.05-.71.07-.93.67-.33,1.23-.62,1.8-.9-.51-.41-1.02-.82-1.64-1.32.52-1.11,1.64-1.61,2.86-1.93.18-.05.54.1.61.25.07.17-.11.44-.17.66-.09.33-.17.67-.26,1,.36-.1.71-.2,1.03-.28.3.08.7.32.95.21.48-.22.78-2.06.64-2.29.41-.45.75-.84,1.11-1.22.19-.2.37-.49.6-.54,1-.22,2.05-.28,3.03-.56,1.23-.35,2.41-.86,3.87-1.39-.03-.03.14.27.4.4.28.14.82.29.94.16.72-.79,1.35-.36,2,.03,1.44.86,2.49.54,3.06-1.03.36-.98.61-1.99.93-3.06.48-.11,1.02-.24,1.62-.38.07.73.23,1.43-.86,1.56-.16.02-.4.45-.38.67.02.2.34.5.55.51.83.06,1.84.37,1.85-1.09,0-.3.39-.64.67-.87.28-.24.66-.37.99-.55-.33-.23-.66-.47-1.01-.71.35-.6.79-1.35,1.35-2.3.2.01.66.04,1.49.1-.65.46-.96.68-1.56,1.1.78.37,1.38.66,2.14,1.02.16-1.16.28-2.04.42-3.07,1.09.72,1.89,2.31,3.21.55.6.83,1.11,1.66,1.74,2.37.5.56.99.36,1.45-.22.27-.34.89-.84,1.06-.75.41.23.7.74.94,1.19.19.37.24.81.38,1.32,1.04-1.05.85-1.9-.63-3.43.18-.26.54-.57.49-.79-.06-.28-.46-.49-.89-.9.4-.07.7-.23.91-.14.95.37,1.29.93,1.42,2.55.46-.53.89-.8.94-1.12.12-.78.02-1.58.08-2.37.04-.55.21-1.1.32-1.65.15.02.29.04.44.06v2.65c.89.24,1.58.43,2.39.65.41-.52.87-.94,1.66-.06.56.62,1.46.09,1.79-.81.27-.74.7-1.41,1.15-2.28.71,1.34.66,1.56-.26,2.89-.16.24-.14.61-.2.91.28-.15.65-.23.82-.46.62-.88,1.16-1.8,1.96-3.06-.13,1.61-.7,3.28,1.28,3.44.3.02.72-1.48.91-2.36.34-.46,1.84-.12.83-1.6l.31-.1c.39.55.8,1.08,1.16,1.64.25.38.43.81.65,1.22.39-.3.78-.6,1.19-.92.7.52,1.48,1.09,2.46,1.81.28-2.33,2.45-.7,3.42-1.83.4-.47,1.09-.7,1.7-1.07,1,.46,1.23,1.42,1.45,2.42.08.35.36.66.54.98.28-.19.54-.45.85-.56,1.2-.42.69-1.92,1.61-2.52.05-.03-.15-.54-.31-.76-.14-.19-.4-.3-.5-.62,1.79.7,2.96,2.62,5.08,2.6.08-.12.16-.24.24-.37-.37-.26-.75-.51-1.11-.78-.37-.28-.73-.57-1.09-.86.42-.29.8-.68,1.26-.83.44-.14.97-.03,1.47-.03-.24,1.64.06,2.25,1.5,2.83.64.26,1.25.17,1.03-.77-.21-.91-.51-1.81-.79-2.76.42-.36.94-.81,1.29-1.11.55.09,1.06.33,1.45.21.74-.23,1.36-1.04,2.23-.16.16.16.81-.25,1.1-.11.51.25.92.72,1.64,1.32.44-.69.91-1.43,1.39-2.19.71.09,1.6.33,2.48.27.57-.04,1.18-.43,1.65-.81.8-.66,1.54-.55,2.27,0,.99.75,1.9,1.27,3.12.28.36-.3,1.19-.01,1.8-.04.45-.02.89-.12,1.33-.39-1.12-.9-2.22-1.57-3.66-1.05-1.06.38-2.13-.97-2.01-2.33,1.33.58,2.69,1.2,4.08,1.75.23.09.68-.05.85-.24.6-.66,1.11-.45,1.76-.07.62.36,1.35.54,2.02.8.11-.18.21-.35.32-.53-.88-.91-1.76-1.81-2.64-2.72.03-.13.06-.26.08-.38,1.46.55,2.91,1.05,3.81-.32.57.05.95.08,1.33.12-.09-.35-.18-.7-.3-1.18h3.19l.02.24c-.15.05-.39.06-.44.16-.53,1.21-1.59,1.48-2.74,1.81-.34.1-.5,1.16-.54,1.8-.01.22.58.49,1.12.9.04-.93.06-1.45.1-2.32.45.43.65.76.92.86.54.18,1.13.23,1.7.34-.01-.38-.1-.79-.02-1.15.14-.59.24-1.34.64-1.67.34-.28,1.09-.06,1.54-.06-.48,1.1-1,1.97-1.21,2.91-.1.47.37,1.06.63,1.71,1.07-.89-.47-2.32,1.06-2.88.14.34.21.69.41.91.13.15.56.25.69.15,1.25-.96,1.24-.97,2.77-1.15-.25-.39-.4-.77-.67-1.02-.27-.25-.65-.37-.98-.55.12-.14.23-.29.35-.43.42.12.83.29,1.25.35.3.04.61-.09.92-.14-.06-.26-.12-.51-.18-.77-.14-.59-.29-1.17-.35-1.84.59.43,1.08,1.31,1.78-.32v3.03c1.15-.55,2.07-.99,3.01-1.43,0,0,.09.05.09.11-.05,1.8-.08,1.7,1.64,1.17.51-.16,1.25.41,2.14.74.09-.27.3-.82.43-1.38.27-1.13.72-1.37,1.64-.68.83.63,1.36.76,2-.27.47-.75,1.2-1.39,1.94-1.91.33-.23.82-.97,1.45-.24.07.08.49-.22.75-.23.53-.01,1.07.06,1.6.09-.11.4-.16.84-.36,1.19-.29.5-.71.93-1.02,1.42-.1.17-.09.61,0,.65.23.1.6.16.77.04.36-.26.73-.59.93-.98.9-1.81,2.51-2.16,4.22-.89-.08.37-.15.73-.23,1.09.31-.06.61-.14.92-.16.21-.01.44.03.64.11,1.22.5,1.48.33,1.33-.97,1.28-.12,3.05.55,3.05-1.78.19.65.18,1.52.61,1.89.46.39,1.32.31,2.01.44.47-1.06.09-1.44-.79-1.38.26-.78.51-1.51.84-2.48.62.09,1.47.21,2.63.38-.43.36-.61.48-.75.64-.18.19-.34.4-.51.6.19.14.38.3.58.41.49.27.98.51,1.49.77.81-2.86,1.82-3.71,4.59-3.84.27.86-.43.99-.95,1.27-.91.49-.96.99-.34,1.62.8-.3,1.52-.57,2.34-.88q.28-2.02,1.11-2.04v1.52c.48-.26.97-.51,1.43-.76.3.33.68.94,1.23,1.24.23.13.82-.37,1.25-.59-.12-.16-.24-.31-.36-.47.43.28.85.6,1.31.84.22.11.51.08.77.11-.02-.3.07-.67-.08-.88-.23-.32-.62-.53-.94-.77.84-.21,1.69-.43,2.54-.65-1.03,1.22-1.15,2.35.25,3.53.25-.33.55-.71.66-.86.41.25.85.74,1.31.76.91.03.96-.73.94-1.45-.02-.77,0-1.55,0-2.12.72.45,1.34.8,1.9,1.22.28.21.47.54.65.85.27.44.5.89.76,1.36.88-.63,1.53-1.69,2.47-.38.08.12.47.19.53.13.14-.16.26-.45.21-.63-.07-.25-.31-.46-.47-.68,1.19-.79,1.54-.67,2.51.89.32-.49.61-.91.74-1.11.75.38,1.51.76,2.26,1.14l.33-.4c-.59-.78-1.18-1.57-1.96-2.61.44.13.76.25,1.09.32.41.08.84.08,1.25.16.41.08.81.22,1.51.42q-1.77.44-1.65,1.78c2.39-.15,3.13-.92,2.15-2.57,1.82.14,3.51.26,4.84.36.78.18,1.3.47,1.69.35.92-.28,2.3-.22,1.68-2.27.85.85,1.4,1.09,1.29,2.19-.07.72,1.18,1.57,1.83,2.37.43-.67,1.1-.32,1.67-.44.72-.16,3.28-.42,3.96-.32.37.05,1.11-.15,1.11-.21-.05-.76-.14-1.53-.36-2.25-.06-.2-.57-.27-.9-.41.12-.26.22-.56.38-.82.42-.69,1.06-.67,1.42.03.68,1.32,1.54,1.55,2.6.49.94-.94,1.4-.45,1.94.33.18.27.41.68.64.7.96.07,1.45.48,1.44,1.48,0,.12.43.39.54.34.35-.17.72-.4.92-.72.25-.39.33-.88.52-1.43.4.49.67.84.88,1.1.82-1.03,1.47-1.98,2.26-2.82.39-.42,1.58.42,1.86,1.28.13.4.26.81.38,1.21.13,0,.25,0,.38.01.18-.54.37-1.07.6-1.75.34.24.65.46.99.71-.41.84-.85,1.57.53,1.91.38.09.55,1.06.82,1.63.14.02.29.04.43.07.21-.72.41-1.43.64-2.24.24-.08.65-.23,1.07-.33.28-.07.57-.08.85-.12,0,.35.04.71,0,1.06-.02.13-.3.21-.34.34-.11.36-.15.74-.22,1.11.38-.12.96-.13,1.11-.39.81-1.39,2.19-1.73,3.53-1.77.61-.02,1.26.8,2.13,1.41.29-.47.73-1.18,1.4-2.26.19.87.23,1.48.47,1.98.26.54.64,1.26,1.11,1.4.81.24,1.77.85,2.61-.18.23-.28.82-.25,1.25-.38.57-.17,1.15-.34,1.72-.51.04-.16.09-.32.13-.48.52.63,1.04,1.26,1.57,1.89.12.15.32.41.39.39.2-.08.42-.25.5-.44.13-.3.15-.64.24-1.13.44.1.86.19,1.51.34-.48.23-.87.3-.98.51-.14.27-.05.66-.06,1,.29-.03.63.03.86-.1.89-.55,1.74-1.16,2.79-1.54-.12.23-.31.45-.35.69-.05.36,0,.73.01,1.09.31-.2.66-.36.93-.61.23-.21.37-.51.55-.76.17.1.29.13.31.19.4,1.79.38,1.68,2.4,1.34,1.46-.25,2.82-.42,3.52-2.13.61.93,2.5.66,1.7,2.48,1.33.79,1.7-.12,2.03-1.25.9,1.25,1.83,2.17,3.47,1.77.05-.37.11-.77.16-1.08,1.08.45,2.15.89,3.28,1.36.27-.52.44-.84.73-1.4,1.12,2.49,3.23.89,4.87,1.39,1.3.4,2.77-.1,4.11.75.49.31,1.55-.27,2.47-.47-.09-.29-.2-.62-.38-1.19.48.22.81.36,1.13.52.05.03.04.2.09.22.5.19,1.28.65,1.48.48.92-.81,3.28,1.61,3.02-1.49q1.5,1.35,2.66-.47c.23.39.45.76.67,1.14.21.35.43.69.76,1.22.42-.28.88-.51,1.21-.86.08-.08-.27-.57-.46-.96.18-.14.47-.35.78-.58.12.1.21.17.31.24.58.41,1.17,1.18,1.75,1.17,1.51-.01,2.56.8,3.71,1.52.96.6,1.47.36,1.58-.79.05-.54-.09-1.11.04-1.62.08-.3.51-.51.79-.76.19.29.49.56.55.88.08.43-.02.9-.06,1.75,1.31-.99,2.38-1.81,3.45-2.62.07.08.15.17.22.25-.91.99-1.83,1.99-2.97,3.23.8.34,1.44.62,2.08.89.09-.11.19-.23.28-.34-.17-.33-.34-.66-.4-.78,1.01-.88,2.02-1.77,3.05-2.64.66-.56,1.41-1.58,2.02-1.5.83.1,1.78.9,2.27,1.66.54.85-.49,1-1.08,1.24-.75.3-1.5.6-2.42.97.75.65,1.16.99,1.9.38.59-.49,1.38-.8,2.13-1,.3-.08.74.35,1.1.58.25.16.47.37.7.55.13-.29.29-.56.37-.86.13-.5.22-1.02.4-1.9.69,1.06,1.17,1.81,1.66,2.56.1-.04.19-.08.29-.11v-1.59c.49.04.93.07,1.52.11.07-.48.15-.95.23-1.48.47.26.91.51,1.61.89-.58.47-1.02.85-1.48,1.21-.36.28-.8.49-1.07.83-.16.2-.11.63-.02.91.03.09.56.14.75.02.68-.4,1.37-.81,1.94-1.34.8-.75,1.49-1.61,2.26-2.46.73.63,1.18,1.06,1.68,1.43.33.24.8.62,1.09.54.97-.28,1.65.52,2.52.53.27,0,.53.31.8.46.34.19.69.36,1.04.53-.08-.43-.16-.86-.25-1.29-.01-.06-.09-.11-.04-.05.54-.57,1.07-1.12,1.68-1.76.44,1.2,1.02,1.18,1.92.4.59-.51.64-.78.22-1.41-.49-.74-.76-1.62-1.23-2.39-.11-.18-.65-.24-.91-.14-.32.12-.56.47-.83.71.37-.89.9-1.69,1.01-2.55.07-.55-.41-1.21-.72-1.78-.38-.71-.75-1.46-1.29-2.05-.67-.74-1.42-1.48-2.28-1.96-.68-.38-1.14-.76-1.01-1.51.24-1.43-.44-1.79-1.7-1.63-.24.03-.48-.04-.59-.05-.12-1.22.14-2.67-.47-3.37-.55-.64-2.05-.45-3.26-.65.21-.17.33-.32.49-.38,1.39-.56,1.47-.98.44-2.1-.55-.6-1-.66-1.55-.03-.27.32-.59.6-.92.85-1.23.92-1.24.94-.58,2.4-.48.11-.95.22-1.86.44.32-1.84.63-3.39.86-4.96.1-.7.02-1.42.02-2.22-1.95.7-2.41.64-3.69-.45.63-.53,1.27-1.04,1.87-1.59.11-.1.13-.49.04-.55-.84-.66-1.19-1.95-2.56-1.95-.7,0-1.19-.28-1.12-1.16.02-.28-.31-.61-.51-.89-.58-.78-1.23-1.5-1.77-2.31-1.12-1.69-2.18-3.43-3.27-5.14-.94-1.47-2.09-2.7-3.87-3.36.88-.62.75-1.24.01-1.74-.51-.34-1.1-.69-1.69-.77-1.74-.25-2.39-1.47-2.63-2.93-.15-.93-.61-1.42-1.37-1.76-.93-.41-1.59-.97-1.76-2.08-.12-.79-.69-1.21-1.46-1.66-.91-.54-1.63-1.63-2.11-2.63-.45-.94-.5-2.09-.71-3.14-.06-.28.09-.69-.07-.86-1.06-1.19-2.04-2.53-3.32-3.42-.82-.57-1.39-1.09-1.69-2-.33-1-.72-1.96-2-2.42-.15.53-.28.99-.49,1.78-.27-.55-.48-.88-.61-1.24-.06-.18.04-.41.07-.62q.35-2.72-2.34-2.18c-.36-1.04-.44-2.41-1.17-3.09-1.02-.95-1.25-1.94-1.29-3.17,0-.13-.29-.35-.45-.35-.95-.03-1.47-.61-2.15-1.21-1.12-.99-1.28-2.24-1.57-3.48-.24-1.02.21-2.19-.75-3.06-.12-.11.09-.54.08-.82-.02-.64-.09-1.27-.16-2.12,1.6-.99,1.78-1.59.66-3.35.74.03,1.42.07,2.15.1.26-1.26,1.08-1.69,2.18-2.16.9-.38,1.61-1.44,1.6-2.73-.01-1.11-.48-1.72-1.49-2.02-.15-.05-.28-.16-.55-.33,1.06-.5,1.86-.57,2.51.48.2.33.55.71.89.77,1.3.24,1.81,1.2,2.26,2.24.35.82.75.81,1.44.31.53-.38,1.21-.55,1.83-.82.05.16.11.32.16.48-.39.09-.79.17-1.18.26.18,1.56,2.1,2.06,3.69,1.14.7.99,1.34,2,2.1,2.89.18.21.9.24,1.17.05.87-.58,1.53-.93,2.24.25.25.42.99.54,1.66.88.05-.79.07-1.26.12-2,.41.59.67.96.95,1.36-.11.28-.26.63-.41.99.4,0,.79,0,1.37,0,.15.2.43.58.83,1.13.39-.55.67-.96,1-1.43.87,1.3,1.72,2.57,2.59,3.83.08.11.31.25.4.21.16-.08.38-.28.37-.42-.02-.4-.13-.79-.24-1.32.61-.36,1.31-.78,2.31-1.38-.04.78-.09,1.34-.07,1.9,0,.18.13.45.27.51.98.41,1.1,1.24,1.23,2.15.04.3.42.76.69.8,1.03.15,1.07.78,1.12,1.62.06.91.24,1.85.54,2.71.38,1.05,1.15.86,1.9.35.34-.23.68-.49,1.06-.65.73-.32,1.28-.1,1.37.72.13,1.21.57,1.25,1.37.48.12-.12.37-.1.25-.07.21.54.31,1.27.54,1.32,2.07.38,3.15,1.99,4.37,3.33-.22.36-.68.89-.59,1.02.25.36.74.56,1.2.86.29-.48.49-.81.71-1.16.72.86.68,1.49-.18,1.72-1.01.27-.84.68-.29,1.29-.44.19-.83.36-1.34.59,1.02,1.01,2.09,1,3.34.62.07.5.13.95.23,1.68-.49-.43-.7-.7-.97-.81-.15-.06-.46.12-.59.28-.07.08.03.46.14.52.5.27,1.01.59,1.56.67,1.09.17,2.27-.16,3.19.79.12.12.59-.09,1-.17.08.17.22.46.4.85-1.08-.17-2.05-.33-3.23-.51.63,2.04,3.02,1.22,3.81,2.86-.66.08-1.27.15-1.88.22-.04.14-.08.29-.12.43.8.34,1.57.87,2.4.98.99.13,1.68.31,1.78,1.45.03.28.34.54.56.86-.56.47-1.62.77-.84,1.59,1.16-.5,2.2-.94,3.24-1.39.05.08.1.16.15.24-.54.51-1.06,1.03-1.62,1.51-.61.51-.91,1.25-.23,1.65.42.25,1.29-.15,1.9-.39.28-.11.44-.56.66-.87.61,1.29.26,1.86-1.21,2.27-.2.88-.38,1.64-.55,2.4.15.09.3.19.45.28.49-.55,1.04-1.05,1.46-1.65.5-.71,2.9-1.23,3.46-.58.25.29.17.85.25,1.39-1.03-.42-1.82-.74-2.61-1.07-.1.17-.19.35-.29.52.45.31.86.73,1.36.89.85.28,1.52.75,1.46,1.64-.09,1.27.47,1.54,1.55,1.35.2-.03.41.01.99.04-.55,1.12-1.05,2.04-1.45,3-.12.28.02.67.04,1.01.26-.17.53-.31.77-.5.52-.4,1.02-.83,1.56-1.26.73,1.09,2.54,1.08,2.57,2.76-1.93.12-2,.07-2.75-2.14-.36.66-.75,1.05-.75,1.43,0,.51.23,1.08.51,1.53.27.43.72.77,1.12,1.11.2.17.63.41.68.35.88-.89,1.61.1,2.31.28.72.19,1.3.94,1.94,1.43.23.17.47.33.7.49.1-.33.39-.81.26-.98-.61-.82.2-1.15.37-1.69h.4c.04.64.16,1.3.11,1.94-.05.77.2,1.16.98,1.32,1.98.42,2.26.81,2.38,3.02-.45-.34-.87-.66-1.29-.98-.3.44-.6.88-1.01,1.48-.14.01-.5.05-.97.1-.03.41-.14.83-.06,1.21.05.26.33.63.56.67.22.04.66-.22.74-.44.37-1.05.87-1.32,1.87-.65.45.3,1,.2.99-.6,0-.29.13-.58.26-1.12.5.63.82,1.02,1.12,1.39-.29.62-.58,1.23-.93,2-.66-1.47-1.67-1.27-3.09-.75.59.39.96.64,1.08.72.37.87.58,1.57.96,2.15.18.28.69.35,1.05.51-.02-.42-.03-.84-.07-1.25-.01-.11-.12-.21-.1-.69.83.15,1.66.41,2.49.42.73,0,1.46-.28,2.18-.43-.7.73-.8,1.51.61,2.02-.81.25-1.45.45-2.09.64.01.09.03.19.04.28-.32-.18-.65-.35-1.32-.71.11,1.18.19,2.1.31,3.34.53-.41.76-.63,1.02-.79.92-.52,1.77-1.33,2.97-.67.1.05.32.07.35.03,1.12-1.76,2.66,0,3.9-.69l.1.34c-.82.51-1.64,1.02-2.76,1.72-.42,1.29,1.09.66,1.69.99-.05.51-.11,1.01-.17,1.58-1.57.52-1.57.67-.44,2.17.47.63.67,1.45.99,2.19.14.02.27.04.41.06.74-1.48,1.48-2.96,2.18-4.37.6.11,1.36.25,2.47.45-1.01.95-1.91,1.8-3.11,2.92-.02.63.93.79,1.7,1.09,0,1.2-2.2.61-1.67,2.24h1.03c.41,1.11.73,2.09,1.18,2.99.05.09.95-.25,1.58-.42.05.07.24.34.51.73-.68.14-1.26.26-1.84.38-.04.12-.08.23-.12.35.77.34,1.54.69,2.36,1.05-.28.18-.61.4-.96.64,1.06,1.55,1.98-.55,2.82-.1-.41.74-.8,1.44-1.19,2.14.56.25,1.13.5,1.75.78.19-.9.32-1.52.45-2.14.17.03.35.06.52.09-.14.69-.28,1.37-.41,2.06-.05.26-.06.52-.09.78.26,0,.56.06.79-.03.46-.18.87-.48,1.32-.68.7-.31,1.29-.43,1.76.47.21.41.85.61,1.3.9-.65,1.95.31,3,2.83,2.93v2.98c.12.03.23.07.35.1.22-.39.4-.82.68-1.17.22-.28.61-.7.83-.65.33.07.6.49.84.8.19.25.31.56.58,1.06-.62.73-1.39,1.62-2.23,2.59,1.55.6,2.32-1.57,3.74-.67-.29.24-.54.46-.8.68.48.55.83,1.29,1.33,1.42.62.16,1.47-.03,2.05-.36,1.02-.58,1.91-1.39,2.85-2.11.7.52.05,2.03,1.29,1.87.33-.58.48-1.27.87-1.44.64-.29,1.45-.33,2.12.49-.96.48-1.78,1.03-2.69,1.27-.47.12-1.07-.36-1.64-.5-.43-.1-.88-.08-1.32-.11.22.33.41.7.67,1,1.3,1.49,2.83,1,4.37.5.64-.21,1.31-.34,2.1-.54-.19.72-.32,1.19-.44,1.66,2.05.43,3.07.03,3.79-1.39-1.1-.3-2.22-.6-3.34-.91.03-.14.07-.29.1-.43,1.55-.65,2.92.21,4.1.43-.09.87-.16,1.58-.24,2.28.7,0,1.42.07,2.1-.05.67-.12,1.31-.43,2-.53-1.39,2.55-4.24,1.04-6.01,2.19-.41-.28-.89-.83-1.17-.74-.54.17-.97.7-1.64,1.24.58.24.84.28,1,.42.14.13.18.38.26.58-.23.02-.56.15-.66.05-.53-.56-1-1.17-1.73-2.04-.2.05-1.03.02-1.25.38-.27.43-.12,1.21.06,1.77.05.17.83.1,1.52.16.03.04.21.35.32.53-.2.45-.37.81-.53,1.18.38-.11.82-.13,1.14-.34,1.29-.85,3.06-1.27,4.05-.56,1.54,1.11,3.03.44,4.5.73.61.12,1.27.13,1.83.36.23.09.48.85.38.93-.51.46-.71.94-.05,1.29.62.33,1.41.71,1.97-.21.06-.1.15-.19.25-.31.15.12.26.24.4.32.48.28.97.55,1.46.82.12-.58.38-1.17.33-1.74-.12-1.42-1.07-2.18-2.59-2.5,1.62-.47,1.93-.31,2.54,1.1.5,1.17,1.04,2.33,1.53,3.51.07.17-.08.6-.18.62-.34.05-.83.12-1.02-.07-.79-.79-1.03-.36-1.21.43-.06.27-.14.59-.32.78-.99,1.03-.63,2.62.98,3.31-.23-.94-.42-1.75-.61-2.53,1.05-.43,2.02-.83,3.06-1.25.11,1.21.59,1.61,1.74.74.39-.29,1-.28,1.62-.43-.65-1.23-1.72-.86-2.68-1.02-.36-.86-.46-1.61.64-2.11.47-.21.85-.61,1.29-.9.22-.14.56-.36.7-.28.2.11.4.51.34.7-.08.25-.37.51-.64.62-.46.18-.96.25-1.55.38,1.11,1.4,2.39,1.34,3.23.07.74.34,1.5.69,2.29,1.05.43-.84.48-1.84,1.84-1.52-1.3.8-1.56,1.44-.31,2.49.5.42.26,1.72.19,2.85-1.12-1.59-1.81-.87-2.57.41.49.19.99.4,1.5.58.15.05.37-.05.49.03.65.42,1.32.89,1.98.08.44-.54.76-1.17,1.14-1.76.15-.24.36-.44.49-.68.22-.39.39-.8.52-1.06-.87-.26-1.46-.44-2.05-.62.6-.07,1.2-.19,1.8-.19.63,0,1.26.06,1.88.17.89.16,1.39-.36,1.83-.99.1-.14.17-.42.1-.55-.08-.14-.34-.24-.52-.24-1.18.02-2.37.07-3.56.12q.33-2.78,1.21-3.02c-.79.76-.63,1.19.25,1.44.82.23,1.62.55,2.45.79.82.24,1.66.43,2.61.67-.94,1.1-1.64,2.12-2.54,2.91-.6.52-1.53.64-2.22,1.08-.62.38-1.01.96-.09,1.42-.61.65-1.21,1.3-1.98,2.12.71.08,1.1.13,1.7.2-1.03.83-1.37,1.59-.57,2.7.35.48.26,1.43.08,2.08-.15.54-.84.91-1.11,1.45-.98,1.97-2.77,1.6-4.46,1.74-1.62.12-3.23.43-4.82.78-1.35.29-2.38.04-3.23-1.03-.84-1.05-1.46-1.11-2.66-.22-.76-1.01-1.42-.43-1.99.21-.48.54-1.2,1.12,0,1.77.32.17.38.82.55,1.26-.12.09-.24.18-.36.28-.71-.7-1.42-1.4-2.26-2.23-.19.47-.44,1.08-.68,1.69-.89-.41-2.06.3-2.22,1.34-.07.43-.31.92-.63,1.21-.17.15-.67-.06-1.33-.16.56-.49.84-.74,1.12-.99,0-.11-.01-.23-.02-.34-.84-.09-1.68-.17-2.38-.25-.26.65-.52,1.08-.57,1.53-.03.27.18.65.4.84.44.38,1,.61,1.44.99.55.46,1.01.76,1.55.01.12-.16.42-.19.64-.28-.02.22,0,.44-.05.65-.19.69-.4,1.38-.6,2.07.18.08.35.16.53.24.45-.86.89-1.72,1.33-2.58.61.3,1.11.55,1.61.79.5.25.86.51.43,1.16-.13.19-.02.55-.02.83.36-.12.85-.13,1.06-.38.6-.7.31-1.81-.62-2.66.79-.59,1.42-1.03,2.01.28.15.34.96.38,1.47.56.1-.45.31-.91.27-1.35-.05-.49-.33-.96-.56-1.6.74.24,1.25.53,1.76.52.48-.01.95-.35,1.43-.54.1.13.21.27.31.4-.46.43-.92.87-1.55,1.45.13.55.31,1.3.49,2.06.15,0,.3,0,.45,0,.22-.58.44-1.16.66-1.74.07,0,.13.01.2.02v2c1-.35,2.22.22,2.55-1.35.04-.19,1.14-.16,1.76-.24-.1.33-.11.76-.33.95-.2.17-.63.08-.95.11-.55,1.92-2.33,2.2-3.54,1.95-.28-.06-.55-.42-.71-.71-.46-.84-1-1.21-1.9-.56-.57.41-1.23.7-1.74,1.17-.52.48-.91,1.11-1.44,1.77-.84-.27-1.03-.01-.83,1.93,1.1-1.01,1.78,2,2.85.31.58.21,1.06.38,1.53.56.09-.57.18-1.15.28-1.77.42.25,1.02.6,1.76,1.03.05-.92.09-1.62.13-2.32.49,2.01,2.37,1.8,3.62,2.39,1.52.71,3.13,1.23,4.73,1.74.41.13.95-.03,1.4-.17.54-.18,1.02-.6,1.56-.7,1.02-.19,2.06-.27,3.1-.3.37-.01.76.23,1.12.4.58.28,1.11.7,1.72.88.88.27,1.81.36,2.7.57.53.12.82.38.46.98-.17.29-.19.67-.27,1,.36-.1.72-.21.98-.28.46.63.95,1.3,1.43,1.96-.6.79-1.25,1.64-1.87,2.47-.16-.2-.41-.51-.76-.94-.59,1.09-1.17,1.14-1.82.26-.14-.19-.52-.36-.73-.31-1.32.32-2.34-.18-3.41-.91-1.17-.8-2.5-1.36-3.9-2.1,0,.72-.03,1.36,0,1.99.08,1.36-.45,2.25-1.71,2.91-1.91,1-3.76,1.68-5.96.97-.92-.3-.76.72-.76,1.2,0,1.29-.53,1.84-2.02,1.59.22-.12.35-.16.43-.25.38-.45.75-.91,1.12-1.37-.55-.18-1.1-.35-1.65-.53-1.05-.35-2.29-.47-3.1-1.12-1.2-.98-1.82-.46-2.57.55-.82-1.14-1.36-1.16-1.78.25-.15.51-.84.85-1.42,1.4,1.35.57,2.95-.43,3.68,1.58-1.33-.19-2.58-.34-3.81-.57-.12-.02-.24-.62-.16-.9.16-.55.38-1.11.71-1.56.43-.58,1.05-1.05.33-1.82-.68-.73-1.53-.76-2.48.02-.17-.43-.32-.82-.56-1.42-.79.2-1.63.35-2.4.68-.12.05.1.9.19,1.61-.74.4-1.67.91-2.61,1.42.04.11.07.21.11.32.77.15,1.55.28,2.31.47.18.05.31.3.46.46-.19.1-.37.26-.58.29-.19.03-.4-.08-.61-.14-2.09-.54-2.16-.49-2.23,1.73-.37-.21-.68-.39-.98-.56-.31-.18-.62-.35-.97-.55-.3,1.22.22,1.68,3.61,3.2-.68.56-1.23,1.01-1.87,1.53-.27-.6-.47-1.05-.69-1.53-1.38.91-1.37.9-1.82-.71-.06-.21-.23-.49-.41-.55-.15-.05-.39.17-.59.29-.96.55-1.94,1.08-2.88,1.67-.4.25-.94.57-1.03.95-.17.69.4.88,1.03.89.21,0,.41.18.5.22-.73.41-1.87.69-2.05,1.26-.22.7.37,1.65.63,2.55h-1.33c-.76,1.3.56,1.24,1.3,1.67-1.25.8-1.05,1.76-.77,2.83.12.45-.07,1.12-.36,1.5-.66.84-1.47,1.56-2.22,2.33-.09.09-.22.28-.23.27-1.52-1-.97.49-1.22,1.01-.13.26-.23.53-.39.77-.59.85-.85,1.68-.17,2.64.18.25.11.68.15,1.03-1.65.05-2.55,1.1-2.79,2.82-.1.73-.49,1.43-.8,2.12-.64,1.43-1.64,2.78-.84,4.48.41.87-.32,1.17-.86,1.36-.8.28-.96.77-1.13,1.54-.35,1.57-.97,3.08-1.45,4.62-.11.36-.16.73-.22,1.1-.13.85-.08,1.72-.95,2.32-.3.21-.32.83-.48,1.26-.56,1.61-1.17,3.2-1.67,4.83-.16.52-.11,1.14-.03,1.7.1.77.32,1.52.5,2.33-1.75-.13-1.88,1.21-2.28,2.16-.14.33.26.89.36,1.17-.39.59-.96,1.18-1.19,1.88-.44,1.34-.68,2.76-1.03,4.13-.15.56-.29,1.15-.6,1.63-.64.98-.84,1.88-.33,3.04.2.45-.1,1.39-.49,1.78-.98.97-.88,1.98-.57,3.12.15.55.22,1.12.32,1.66-.59.22-1.12.3-1.49.59-.48.38-1.02.87-.08,1.46.26.16.45.61.48.94.14,1.67.23,3.34.32,5.01.02.29-.13.62-.04.87.69,1.89.72,3.94,1.18,5.56-.6,1.29-1.15,2.44-1.78,3.79-1.22,0-1.88,1.11-2.5,2.26-1.53,2.85-2.13,5.97-2.67,9.1-.17.96.62,1.97-.08,2.96-.07.1.06.49.19.55,1.71.78,1.17,2.09.61,3.18-1.15,2.23-.61,4.7-1.19,7-.02.07,0,.19.05.24,1.86,1.94.36,4.18.49,6.27.06,1-.04,1.92,1.03,2.6-1.54,1.01-1.53,2.42-1.27,3.9.21,1.2-.04,2.24-.72,3.31-.53.83-.68,1.92-.98,2.9-.24.79-.64,1.6-.63,2.4.03,2.47-.87,4.7-1.51,7.02-.63,2.29-.96,4.65-1.5,6.96-.25,1.05-.63,2.07-1.06,3.07-.41.96-.52,1.68.77,1.95.2.04.36.29.64.53-2.8,1.4-2.39,3.92-1.58,5.88.67,1.62.93,3.2,1.21,4.84.04.24.18.47.31.68,1.15,1.91.99,3.03-.53,4.6-.8.82-1.52,1.73-2.24,2.55-.88-.12-1.81-.3-2.75-.36-2.57-.15-4.45-2.32-4.2-4.88.06-.63-.01-1.27.12-1.88.28-1.31.65-2.59.99-3.88.07-.27.3-.57.24-.81-.14-.59.15-1.13.17-1.63.17-3.62,1.86-7.04,1.31-10.75-.17-1.14-.5-2.26-.05-3.49.22-.6-.21-1.44-.41-2.49,1.19-1.92,1.77-4.43,2.1-7.02.13-1.01.31-2.02.44-3.03.29-2.29-.56-4.33-1.39-6.37-.64-1.57-.51-3.02.18-4.59.54-1.23.75-2.65.85-4.01.08-1.1.71-2.19-.04-3.41-.25-.41.53-1.44.84-2.19.1-.25.31-.69.26-.73-.97-.68-.68-1.69-.78-2.61-.03-.24-.32-.45-.5-.69,2.04-1.25,2.96-3.1,3.18-5.4.13-1.35.41-2.68.66-4.01.04-.22.22-.43.39-.6,1.01-1.02,1.54-2.17,1.16-3.65-.11-.41-.13-.94.04-1.31.5-1.11.39-2-.45-2.54.47-.4,1.27-.77,1.35-1.24.13-.81.6-1.97-.62-2.39.07-.5.21-.99.19-1.48-.04-.96-.12-1.93-.27-2.87-.06-.39-.3-.82-.59-1.1-.72-.72-.6-1.15.13-1.76,1.69-1.42,3.42-2.87,3.96-5.15.13-.55-.24-1.21-.3-1.82-.06-.58-.08-1.18,0-1.75.14-1.09.36-2.17.56-3.25.1-.56.07-1.21.36-1.66,1.2-1.84,1.24-1.82-.32-3.13.04-.07.1-.2.13-.19,1.48.23,1.95-.67,1.92-1.88-.07-2.67,1.21-4.91,2.19-7.23.25-.6.91-1.03,1.23-1.61.34-.62.66-1.34.68-2.03,0-.28-.83-.57-1.23-.82.22-.45.51-1.06.82-1.66.05-.11.13-.27.22-.28,1.57-.29,1.18-1.55,1.27-2.57.05-.54.12-1.09.11-1.63-.02-.91.4-1.45,1.28-1.55,1-.12,1.36-.74,1.64-1.62.52-1.61,1.25-3.13.89-4.94-.15-.73.06-1.54,1.2-1.7.73-.1,1.54-3.02,1.03-3.87-.61-1.02-.12-1.8.38-2.51.77-1.07,1.47-2.09,1.02-3.49-.06-.19-.08-.54.02-.61,1.55-1.09.47-3.04,1.44-4.34.2-.26-.1-.89-.18-1.35-.37.22-.76.4-1.09.66-.53.43-.98,1.08-1.79.5Zm35.08-61.25c.1.01.2.03.3.04.05.15.08.32.17.45.25.4.67,1.16.77,1.12.83-.32.42-.95.31-1.56-.11-.56-.12-1.22.07-1.75.44-1.25.24-1.74-1.04-1.86-.62-.05-1.45.34-1.83.05-1.07-.8-1.76-.23-2.5.38-1.13-.71-1.22-.66-1.49.64-.09.43-.24.85-.36,1.27-.2-1.27-.94-1.78-2.5-1.54-.37.06-.72.44-.99.75-.08.09.11.43.18.66.38-.12.75-.24,1.26-.4.45.95.7,2.34,2.21,2.37,1.19.02,2.38-.11,3.72-.18.19.36.54.99.88,1.63.12-.04.24-.09.36-.13.16-.65.32-1.29.48-1.94Zm7.62.45c-.55.31-.96.5-1.3.77-.05.04.15.55.34.7.88.67,2.96.39,3.65-.45.97.8,1.15.74,1.35-.47.13-.76.2-1.54.37-2.77-1.29.7-2.26,1.23-3.15,1.71-.13-.41-.31-.93-.48-1.45-.15.02-.3.04-.45.06-.12.67-.23,1.33-.33,1.89Zm-34.7-15.73c.09.15.17.3.26.46.23-.26.5-.49.67-.78.16-.28.22-.62.33-.93.1-.28.21-.56.32-.84-.31,0-.63.02-.94-.01-.14-.01-.3-.1-.4-.21-.61-.66-1.04-.39-1.5.21-.52.67-1.12,1.27-1.65,1.93-.15.18-.15.48-.22.73.18.05.39.18.55.14.87-.21,1.73-.46,2.59-.7Zm-15.22,59.69c-.19-.22-.32-.52-.5-.57-1.11-.26-2.23-.47-3.36-.65-.05,0-.3.48-.24.66.15.45.36.91.68,1.25.14.15.61.1.87,0,.17-.06.23-.39.4-.71.74,1.01,1.43.91,2.15.02Zm-9.51,2.12c.31-.77.16-1.11-.68-1.33-1.32-.35-1.61.96-2.45,1.37-.26.13-.44.64-.43.98,0,.25.42.74.53.71.35-.1.81-.33.94-.63.41-.95,1.06-1.34,2.1-1.1Zm-52.84-11.03c.34-.43.81-.92,1.16-1.5.09-.14-.22-.75-.36-.75-.53-.02-1.09.07-1.6.23-.27.09-.47.4-.7.62-.21.19-.43.38-.64.56.25.18.47.43.75.54.34.14.73.16,1.4.3Zm-115.66-25.62c.15-.98-.48-1.55-1.17-1.55-.9,0-1.81.42-2.72.67.15.72,1.8,1.75,2.22,1.19.56-.74,1.1-.18,1.67-.31Zm189.26-30.62c-.09,0-.17.02-.26.02-.09-.29-.11-.66-.3-.86-.19-.2-.56-.32-.83-.28-.14.02-.37.46-.33.67.24,1.15,1.8,1.84,2.96,1.35.05-1.43-.15-1.8-1.16-2-.03.37-.05.73-.08,1.09Zm-37,75.24c-.42,1.02-.75,1.78-1.04,2.57-.05.15.05.48.16.53.18.08.46.06.65-.04.44-.21.83-.53,1.27-.73.69-.32.72-.78.27-1.27-.35-.38-.81-.66-1.31-1.05Zm6.7-2.67c.1.04.21.09.31.13.91-.41,1.82-.8,2.71-1.25.06-.03-.07-.71-.17-.73-.64-.1-1.49-.37-1.88-.07-.51.39-.66,1.25-.97,1.91Zm-131.43-43.28c-.18-.52-.19-.83-.32-.9-.86-.43-1.74-.82-2.64-1.17-.13-.05-.42.19-.55.37-.05.07.11.38.25.48.66.47,1.31.97,2.03,1.33.29.14.75-.06,1.23-.12Zm11.37,105.98c-2.03-.22-2.8.13-3.32,1.33-.08.19-.02.49.08.68.05.09.51.08.52.04.22-.84.96-.51,1.46-.73.44-.2.73-.74,1.25-1.32ZM24.13,123.37c-1.04.35-2.07.36-1.66,1.32.23.55,1.51,1.26,1.82,1.08,1.46-.88-.8-1.28-.15-2.39Zm3.88.48c.52.35.89.73,1.33.85.43.12.93-.04,1.41-.08-.52-.67-1.02-1.37-1.59-1.99-.08-.09-.62.07-.78.26-.2.22-.24.6-.36.96Zm242.08,61.91c-.14,0-.29-.01-.43-.02,0,.8-.11,1.63.07,2.39.05.21,1.01.21,1.55.24.07,0,.29-.53.21-.67-.42-.67-.93-1.3-1.4-1.94Zm124.41-81.47c-.74,1.05-.44,3.09.35,3.54.1.06.7-.39.67-.49-.27-.98-.63-1.93-1.02-3.05Zm-85.53,97.13c.11.12.22.23.33.35.59-.19,1.55-.23,1.69-.59.19-.47-.27-1.2-.45-1.82l-.55-.04c-.34.7-.68,1.4-1.02,2.09Zm11.77-8.88c-.51-1.23-.85-2.07-1.2-2.9-.17.04-.33.08-.5.12,0,.82-.06,1.65.06,2.46.02.14.81.17,1.64.32ZM91.87,111.18c.15-.01.39.04.46-.05.45-.58.62-1.44,1.56-1.51-.13-.25-.2-.68-.39-.74-1.31-.4-1.99.56-1.63,2.29Zm267.74,50.04c.14.14.29.29.43.43.43-.37.85-.73,1.28-1.11.29-.26.56-.53.86-.78.2-.17.45-.3.61-.5.04-.04-.2-.45-.3-.44-.3.02-.63.09-.87.26-.38.27-.71.62-1.02.97-.34.37-.65.78-.97,1.17Zm-161.13-66.08c-.98-1.17-2.08-1.31-3.32-1.34.43,1.18,1.59,1.67,3.32,1.34Zm169.34-9.18c.48-.51.83-.88,1.17-1.24-.31-.21-.68-.66-.91-.6-.54.15-1.01.54-1.51.84.35.28.69.56,1.24,1Zm-16.4-25.35c-.76.31-1.49.55-.59,1.53.16.17.16.48.31.67.17.22.42.37.63.56.11-.29.34-.61.29-.86-.12-.59-.38-1.15-.64-1.89Zm-58.13,101.39c-.88.13-1.47.14-1.99.34-.25.09-.45.53-.49.83-.02.15.42.56.53.52.74-.27,1.55-.52,1.95-1.69Zm115.66-51.65c-.58-.39-.95-.82-1.21-.76-.45.1-.82.5-1.23.77.45.28.87.64,1.36.79.2.06.54-.38,1.08-.79Zm-47.07,47c-.63-.45-1.07-.81-1.56-1.08-.07-.04-.58.51-.56.55.36.5.77.96,1.18,1.43.24-.23.48-.45.94-.9Zm-49.85-60.06c-1.01.32-1.69.85-1.9,1.97,1.64,0,2.12-.51,1.9-1.97Zm8.85-68.14c-.29-1.19-.78-1.97-1.95-2.29-.08,1.45.48,2.13,1.95,2.29Zm64.52,74.69c.54-.68,1.04-1.29,1.51-1.94.05-.07-.11-.41-.25-.48-.13-.07-.41,0-.54.1-.42.35-.83.73-1.19,1.15-.14.16-.25.47-.19.65.06.18.34.28.67.52Zm-135.07,105.81l-.56-.27c-.33.58-.71,1.14-.96,1.76-.05.13.32.58.56.65.17.05.59-.24.66-.46.17-.54.21-1.12.3-1.68Zm149.05-59.12c-1.69.24-2.21,1.25-1.42,2.67.5-.93.9-1.7,1.42-2.67Zm-64.93-49.5c.87-.53,1.57-.95,2.27-1.38-2.02-.54-2.51-.24-2.27,1.38Zm60.46,52.07c0,.11.01.23.02.34.52.06,1.1.28,1.55.13.26-.09.37-.76.45-1.19.02-.08-.5-.41-.61-.35-.5.3-.94.7-1.4,1.06ZM70.85,113.47c-.09.14-.3.31-.31.51-.06.7,1.18,1.72,1.83,1.49.19-.07.3-.38.45-.57-.63-.45-1.25-.91-1.96-1.42Zm217.61,108.46c.18,0,.36,0,.55-.01.2-.62.39-1.24.63-1.98h-1.87c.27.77.48,1.38.69,2Zm-4.54,6.58c0-.52.12-1.22-.02-1.28-.65-.27-1.22-1.53-2.19-.41.7.54,1.32,1.01,2.21,1.69Zm39.02-98c-.02-.07-.02-.2-.07-.21-.26-.1-.68-.31-.76-.22-.44.5-.83,1.06-1.16,1.64-.06.11.17.41.29.6.03.04.2.06.23.02.49-.6.98-1.21,1.47-1.83Zm-4.2-104.88c.63-.57,1.16-1.04,1.69-1.51-.15-.16-.42-.47-.44-.46-.54.42-1.05.86-1.56,1.32-.02.01.06.14.31.65ZM101.87,109.46c.05-.15.09-.29.14-.44-.66-1.03-1.29-1.18-2.48-.2.78.21,1.56.42,2.34.63Zm179.11,65.76c.08.23.15.46.23.69.42.34.82.71,1.28,1.01.06.04.55-.43.54-.45-.34-.52-.69-1.06-1.14-1.48-.12-.11-.59.14-.9.23Zm113.76-21.54c-.28.04-.55.07-.83.11.09.61.17,1.23.26,1.84.28-.06.8-.13.8-.16-.04-.6-.14-1.19-.23-1.78Zm12.17-17.33c-.21.29-.44.49-.41.58.27.63.59,1.25.93,1.85.03.06.5-.01.52-.08.07-.31.17-.7.04-.94-.26-.48-.66-.88-1.08-1.4ZM56.32,115.9l.39.06c.38-.62.76-1.23,1.14-1.85l-.4-.35c-.4.33-.89.6-1.15,1.02-.17.26,0,.74.02,1.11Zm21.6-2.88c.17.16.33.32.5.47.41-.33.82-.65,1.23-.98-.26-.26-.53-.52-.79-.77-.31.43-.62.85-.93,1.28Zm331.06,11.85c-.38.67-.73,1.01-.69,1.31.04.31.44.57.68.85.2-.27.54-.53.56-.81.02-.32-.25-.66-.55-1.35Zm-146.79,68.79c-.09.17-.18.35-.28.52.51.25,1.02.54,1.55.72.14.05.38-.21.58-.33-.14-.21-.24-.54-.43-.61-.45-.17-.95-.21-1.42-.3Zm65.58-72.15c-.46-.55-.86-1.04-1.28-1.51-.01-.01-.49.36-.48.37.37.55.77,1.08,1.16,1.61.17-.14.35-.28.6-.47Zm-300.39,4.7c-.63-.57-1.19-1.07-1.74-1.57-.13.18-.4.5-.37.53.47.51.98.99,1.51,1.44.05.04.35-.23.6-.4Zm242.01,68.89c-.48-.19-.83-.42-.94-.34-.49.35-.91.79-1.36,1.2.17.14.43.44.49.4.55-.34,1.07-.74,1.81-1.26Zm54.38-64.41c.2-.07.39-.14.59-.21-.09-.51-.14-1.04-.29-1.53-.05-.17-.34-.32-.55-.36-.1-.02-.38.28-.36.37.17.59.39,1.16.6,1.73Zm59.64-34.6c-.58-.27-.89-.55-1.06-.48-.37.15-.67.48-.99.73.29.17.59.5.86.48.31-.02.6-.35,1.19-.74Zm-315.02,17.84c.11,1.56.57,1.8,1.88,1.08-.64-.37-1.14-.66-1.88-1.08Zm346.72,1.54c0,.17,0,.34,0,.51.68.33,1.35.55,2.29-.51h-2.3ZM290.99,6.63c-.11-.14-.21-.29-.32-.43-.46.36-.92.72-1.38,1.08.12.14.26.42.37.41.67-.06,1.33-.2,1.33-1.06Zm-74.26,85.99c-.21-.16-.41-.31-.62-.47-.28.4-.6.78-.81,1.21-.04.08.32.36.49.55.31-.43.63-.86.94-1.29Zm-87,8.76c-.19.02-.39.04-.58.05.04.72.09,1.45.13,2.17.15,0,.3-.02.45-.02v-2.21Z"/><path class="cls-1" d="m174.16,167.66c-3.14-.81-5.71-1.48-8.28-2.14-.36-.09-.75-.21-1.11-.18-1.08.09-1.63-.26-1.67-1.44-.01-.3-.63-.58-.96-.87-.25.31-.68.61-.71.94-.07.8-.32,1.23-1.19,1.29-.47.04-.92.36-1.39.49-1.75.5-3.53-.11-4.75-1.77-1.07-1.45-2.06-2.95-3.01-4.48-.2-.32-.14-.86-.07-1.27.16-1.06.48-2.11.58-3.17.13-1.29.52-2.37,1.36-3.41.9-1.11,1.44-2.51,2.21-3.73.29-.46.72-.89,1.19-1.18,1.43-.9,1.82-2,1.23-3.59-.15-.42-.16-.89-.19-1.06,3.47.15,6.87.39,10.22-.46,0-.11-.01-.22-.02-.33.06.05.18.1.18.16.19,1.59,1.18,2,2.63,1.93,1.34-.06,2.68.08,4.02.04.43-.01.86-.31,1.29-.49.09-.04.2-.17.24-.15,2.22,1.17,4.62.3,6.91.67.75.12,1.5.29,2.24.6-2.64.48-5.25.88-7.52,2.47-.25-.16-.58-.57-.87-.54-2.52.26-5.03.57-7.53.98-.25.04-.54.92-.48,1.36.04.3.65.7,1.04.75.82.1,1.67-.05,2.51,0,1.41.07,2.81.25,4.22.31.62.03,1.24-.1,1.86-.16.08,0,.16-.11.23-.09,3.41.8,6.81,1.61,10.48,2.48-1.11.61-2.03,1.17-2.98,1.64-1.88.94-2.87,2.3-2.57,4.53.13.97,0,2.02-.21,2.98-.43,1.94-1.52,2.83-3.47,2.75-1.15-.05-1.88.38-2.61,1.15-1.11,1.17-2.31,2.27-3.05,2.98Z"/><path class="cls-1" d="m550.71,167.97c-.76-.04-1.64-.14-2.52-.1-.9.05-1.79.25-2.37.33.29-1.31.47-2.7.93-3.98.19-.51.99-.81,1.53-1.19.34-.24.83-.35,1.03-.66.13-.2-.06-.88-.25-.96-.3-.12-.73.1-1.11.18-.2.05-.4.19-.58.16-3.09-.39-5.88,1.12-8.86,1.41-.21.02-.41.06-.62.07-.06,0-.12-.07-.35-.22.46-.25.83-.49,1.22-.66.65-.28,1.37-.45,1.97-.81.64-.38,1.19-.94,1.78-1.41-.6-.48-1.14-1.16-1.82-1.39-3.95-1.32-7.9-2.64-11.91-3.73-2.16-.59-4.45-.68-6.66-1.13-.85-.18-1.61-.76-2.41-1.15.03-.18.07-.36.1-.54,1.26-.13,2.55-.49,3.78-.35,4.1.45,8.19,1.06,12.28,1.65,3.18.46,6.35.99,9.53,1.48.89.14,1.78.24,2.84.38-.33.79-.62,1.34-.77,1.93-.1.38-.13.93.07,1.17.17.2.76.14,1.13.05,1.43-.36,2.12-1.53,2.84-2.67.98-1.56,2.11-1.89,3.73-1.12.97.46,1.27,1.32.81,2.28-.23.49-.47.97-.67,1.48-1.16,3.04-.23,4.43,2.2,6.66-.65.31-1.19.67-1.79.85-.95.3-1.98.4-2.91.75-.77.29-1.46.81-2.18,1.23Z"/><path class="cls-1" d="m508.11,137.02c-.83,0-1.54-.2-2.04.04-2,.93-3.97,1.94-5.87,3.04-1.97,1.14-4.03,1.66-6.34,1.24.61-.27,1.21-.55,1.82-.81,1.63-.72,3.24-1.47,4.88-2.13.59-.24,1.18-.36.81-1.17-.33-.73-.52-1.73-1.72-1.29-.39.14-.74.39-1.11.59q-1.53.83-2.41-.82c1.78-.21,1.97-1.75,2.52-3,.08-.19.08-.54.19-.58,1.67-.59,2.13-2.35,3.33-3.36,1.03-.86,2.2-1.59,3.4-2.2,1.09-.55,2.63.55,2.78,1.9-.35-.08-.68-.15-1.17-.26-.16.76-.31,1.47-.48,2.24,2.19.25,2.55,1.95,2.97,3.54.12.47-.1,1.03-.17,1.55-.15-.01-.31-.03-.46-.04v-2.12h-1.46c-.73,1.39,1.57,2.4.52,3.63Zm-3.74-2.66c-1.51-.04-2.65.62-2.43,1.28.14.41.75.86,1.2.93,1.09.16,2.14-.59,1.99-1.36-.08-.39-.61-.69-.76-.85Z"/><path class="cls-1" d="m436.35,101.89c.83.33,1.4.56,1.84.73-.27.74-.64,1.36-.69,2.01-.12,1.5.35,1.91,1.83,2.05,1.28.13,2.56.34,3.84.51,0,.17-.02.35-.02.52-1.05.14-2.09.28-3.32.44-1.22-.35-2.72-.82-4.24-1.16-.41-.09-1.14.08-1.32.38-.19.32.05.94.18,1.41.11.38.33.73.38,1.16-.87-.5-2.06-.72-1.67-2.15.04-.14-.31-.47-.54-.58-.25-.12-.57-.07-.87-.1-1.47-.15-2.98-.58-4.4-.4-1.67.21-3.17-.52-4.79-.38-.66.06-1.37.03-1.98-.19-.47-.16-.95-.61-1.16-1.05-.14-.31.08-1.11.31-1.19.46-.16,1.04.03,1.56.32-.37.2-.74.39-1.11.59l.39.56c.33-.04.76.04.98-.13,1-.81,2.02-.45,3.09-.23.97.2,2.02.39,2.57-.94.38.18.93.27,1,.5.41,1.28,1.45,1.03,2.37,1.12,1.57.15,3.13.35,4.7.46.86.06,1.52-.29,1.46-1.28-.06-.9-.22-1.8-.37-2.99Z"/><path class="cls-1" d="m536.45,126.2c-1.3,2.15-6.33,3.91-8.19,2.75.55-.58,1.08-1.12,1.59-1.68.68-.76,1.3-1.56,2.02-2.28.2-.2.69-.32.96-.23,1.19.42,2.36.93,3.62,1.44Z"/><path class="cls-1" d="m440.03,117.19c-1.12-.68-3.09-.8-2-2.75-1.54-.78-2.05.74-3.27,1.19v-2.9c.48,0,.92,0,1.36,0-.25-.35-.49-.71-.88-1.26.54-.09,1.11-.19,1.77-.3.1.83-.94,1.8.34,2.08.51.11,1.14-.28,1.81-.47.02.17.07.63.13,1.22h1.52v-2.45c.58,1.78,1.94,2.46,3.58,2.89-1.91.89-3.88.26-6.25.21.77,1.03,1.33,1.79,1.89,2.55Z"/><path class="cls-1" d="m449.85,114.63c-.78-.57-1.32-1.16-1.99-1.41-.78-.29-1.6-.15-1.84,1.05-.27-1.85-2.11-.95-2.92-1.91.31-.42.63-.85.77-1.05,1.28.33,2.44.64,3.61.93.45.11.9.19,1.35.27.56.11,1.13.21,1.78.33.44.84,1.03,1.95,1.61,3.06-.05.06-.09.11-.14.17-.26-.27-.49-.57-.77-.81-.26-.22-.57-.37-.85-.56-.14.45-.28.9-.42,1.35,1.35.37.33,1.69.95,2.42-.74-1.04-1.18-2.5-2.97-1.76.63-.72,1.26-1.44,1.83-2.09Z"/><path class="cls-1" d="m531.54,146.21c-.09.36-.17.71-.26,1.07.41-.03.83-.03,1.24-.08.77-.08,1.63-.47,2.28-.23,2.83,1.02,5.6,2.21,8.38,3.34-.08.19-.15.39-.23.58-.83-.36-1.67-.72-2.49-1.09-1.01-.45-1.98-1.03-3.03-1.33-.73-.21-1.7-.46-2.15.65-.04.1-.31.21-.43.17-2.06-.62-4.11-1.26-6.15-2.16,1.14.1,2.1-.06,2.83-.91Z"/><path class="cls-1" d="m412.99,104.27c1.37.75,2.76.64,4.27-.06.24.33.55.75.94,1.28-1.2.7-2.37,1.3-3.9.56-.8-.39-1.75-.58-2.65-.64-.57-.04-1.16.33-1.64.74h-3.05c.43-.59.74-1.48,1.34-1.75,1.38-.63,2.74-.24,4.02.85.24-.35.45-.67.66-.98Z"/><path class="cls-1" d="m462.74,145.14c-2.39,0-4.51-.08-6.63.03-1.31.06-2.6.42-3.91.61-.35.05-.74.06-1.08-.03-.5-.14-.99-.36-1.46-.58-.4-.19-.78-.44-1.17-.66.04-.17.08-.33.12-.5,1.85,0,3.71-.07,5.56.02,1.83.09,3.65.36,5.48.54.28.03.61.02.84-.1,1.14-.62,1.21-.62,2.24.67Z"/><path class="cls-1" d="m327.62,92.07c-.25.31-.74.91-1.23,1.51-.06,0-.19.02-.21-.02-.7-1.3,1.04-1.8.96-2.91.51,0,1.02-.07,1.51.02.29.05.53.35.82.49.41.19.83.34,1.25.51.18-.57.44-1.14.52-1.73.05-.37-.19-.78-.03-1.32.16.37.43.72.46,1.1.06.74.2,1.3.89,1.79.31.22.2,1.05.28,1.6-.45-.13-.9-.26-1.35-.38-.53-.13-1.06-.28-1.6-.37-.64-.11-1.28-.17-2.28-.29Z"/><path class="cls-1" d="m331.74,184c.3-.49.35-.61.43-.71.33-.45.68-1.28.99-1.27.79.03,1.56.46,2.35.69.36.1.8.23,1.12.12.91-.33,1.79.1,2.14,1.18-.46-.12-.97-.42-1.32-.29-.29.11-.41.72-.68,1.27-.73-.5-1.47-1-2.21-1.51-.09.09-.18.19-.27.28.06.34.12.67.24,1.36-1.02-.41-1.86-.75-2.8-1.13Z"/><path class="cls-1" d="m519.7,119.35c.98-.09,1.89-.15,2.73.69.47.47,1.24.66,1.88.95,2.05.92,4.1,1.83,6.15,2.76.23.11.42.33.62.49-.05.1-.1.19-.16.29-3.81-1.57-7.61-3.14-11.42-4.72.07-.15.13-.31.2-.46Z"/><path class="cls-1" d="m346.1,184.39c-.1.98-.18,1.85-.28,2.81-1-.29-1.85-.53-2.63-.76-.7.64.2,2.65-1.91,1.84.21-.24.32-.4.47-.52.89-.75.87-1.25-.1-1.91-.94-.64-.95-.69-.34-1.38.69.47,1.36.96,2.08,1.36.15.08.7-.17.72-.31.14-1.02.84-1.12,1.99-1.12Z"/><path class="cls-1" d="m386.73,87.79c.67.61,1.17,1.09,1.69,1.55.79.68.15,1.16-.09,1.82-.21.57.09,1.33.19,2.14-.31.23-.75.55-1.16.84.3.64.53,1.13.76,1.63-1.33-.84-1.6-2.07-1.37-3.42.08-.45.39-.86.61-1.28.09-.17.3-.37.26-.5-.23-.82-.51-1.63-.89-2.77Z"/><path class="cls-1" d="m457.75,115.11c-1.13-.59-2.13-1.11-3.55-1.85.29,1.18.5,2.04.71,2.93-1.56.46-.67-1.71-1.8-1.77,1.1-1.07,1.11-1.04,2.8-1.23.46-.05.89-.36,1.59-.67.27,1.16.54,2.36.89,3.86-.79-.17-1.13-.23-1.68-.35.39-.35.61-.55,1.03-.93Z"/><path class="cls-1" d="m347.68,178.56c1.62-1.49,2.46.32,3.68.49,0,.12.01.25.02.37-.53.06-1.05.17-1.58.18-1.33.04-1.36.09-.81,1.34.12.29.14.62.05.99-.63-.86-1.36-1.67-1.87-2.59-.42-.76-.51-1.65.38-2.47.05.59.08,1.02.13,1.69Z"/><path class="cls-1" d="m404.56,163.26v3.35c-1.45-.19-3.11-.27-2.71-2.27.28-1.39,1.7-.74,2.71-1.08Z"/><path class="cls-1" d="m294.79,226.08c-.32-.18-.62-.43-.96-.51-.39-.09-.82-.03-1.24-.03.2.41.36.84.62,1.21.14.2.44.3.61.51-1.51-.24-2.79-.94-3.43-2.33-.37-.81-.68-.91-1.5-.57.17-.27.36-.77.51-.76.51.05,1.21.12,1.45.46.56.8,1.14.59,1.92.58.76,0,1.52.65,2.29,1.01-.09.14-.17.29-.26.43Z"/><path class="cls-1" d="m311.3,131.87c.49-.87,2.37-1.2,3.18-.2.66.82,1.21.59,1.92.4.45-.12.92-.17,1.6-.3-2.26,2.12-2.7,2.12-4.99.49-.43-.31-1.12-.26-1.72-.39Z"/><path class="cls-1" d="m393.39,173.6h2.43c.07.12.14.23.21.35-.31.27-.68.81-.92.76-.67-.15-1.65-.4-1.84-.87-.47-1.17-.56-2.5-.57-3.87.4,1.08,1.05,1.55,2.14,1.34.7,1.48-1.14,1.23-1.45,2.3Z"/><path class="cls-1" d="m393.14,98.42c-1.85-.32-1.69,2.54-3.82,2.3.65-.67,1.36-1.2.11-2.08,2.5-.25,2.59-1.52,1.64-3.19.77.05,1.47,1.14,2.07,2.96Z"/><path class="cls-1" d="m368.52,176.5c-.03.63-.05,1.07-.07,1.51-.1.02-.2.05-.3.07-.1-.42-.32-.86-.27-1.27.12-.97-.24-1.31-1.18-1.2-.45.05-.91,0-1.36,0-.03-.11-.06-.21-.1-.32.32-.13.64-.39.95-.36,1.54.14,3.08.34,4.61.57.26.04.47.34.7.53-.26.15-.52.42-.79.44-.69.06-1.4.02-2.19.02Z"/><path class="cls-1" d="m386.56,174.91c.94.27,1.55.47,2.08-.5.18-.33.82-.4,1.21-.58.41,1.11.77,2.1,1.15,3.14-1.46-.45-2.73-.8-3.96-1.24-.23-.08-.33-.54-.48-.82Z"/><path class="cls-1" d="m437.3,154.63c-.38-1.13-.64-1.88-.92-2.7.81-.65,1.73-.5,2.63-.11.19.08.43.59.37.66-.62.71-1.3,1.36-2.08,2.15Z"/><path class="cls-1" d="m306.15,211.22c1.13-.06,1.95-.18,2.75-.12.42.03.89.3,1.21.6.59.57,1.08,1.25,1.58,1.84-.76-.34-1.67-.81-2.63-1.12-.47-.15-1.03,0-1.55,0-.27,0-.7.12-.79,0-.28-.39-.43-.87-.57-1.2Z"/><path class="cls-1" d="m432.13,117.26c1.07,0,1.91.17,2.61-.05.56-.18.97-.85,1.54-1.22-.38.97-1.1,1.82-.15,2.85.13.14-.08.59-.13.9-.25-.04-.71-.03-.73-.14-.36-1.33-1.51-1.48-2.55-1.8-.14-.04-.23-.21-.58-.54Z"/><path class="cls-1" d="m373.75,79.09c-1.06.9-1.65,1.96-.91,3.69-.76-.5-1.22-.8-1.75-1.15.25-.21.53-.37.72-.6.49-.58.68-1.05-.23-1.55-.72-.4-1.71-.91-.92-2.28.32,1.99,2.07,1.2,3.09,1.9Z"/><path class="cls-1" d="m338.52,193.54c-1.62-.6-3.06-1.17-4.53-1.65-.19-.06-.53.31-1.1.68.4-.92.69-1.58,1.07-2.45.38.42.53.66.74.81.39.28.9.8,1.22.71,1.73-.48,2,.78,2.6,1.89Z"/><path class="cls-1" d="m550.3,172.68c1.81-.64.86-1.83,1.22-2.72.82.42,1.85.72,1.66,1.93-.09.55-.46,1.33-.88,1.48-.43.15-1.09-.35-2-.7Z"/><path class="cls-1" d="m231.67,124.51c3.08.14,3.83,2.63,5.43,4.14-.08.1-.16.21-.25.31-.86-.7-1.72-1.39-2.57-2.12-.84-.72-1.65-1.47-2.62-2.33Z"/><path class="cls-1" d="m279.85,240.11c.23-.71.46-1.43.73-2.28,1.42.95,2.58.77,3.74-.59.19.59.42.99.38,1.36-.02.16-.6.27-.93.37-1.22.36-2.79-.3-3.52,1.51-.13-.12-.27-.25-.4-.37Z"/><path class="cls-1" d="m283.27,232.99c-.03-.54-.06-1.08-.09-1.72,1.15-.01,2.15-.34,2.95.74.23.3.99.21,1.54.3-.28.47-.57.97-.89,1.51-1.55-2.22-2.35-2.15-3.51-.84Z"/><path class="cls-1" d="m559.74,119.24c-.7.93-1.21,1.61-1.83,2.45-.81-1.67-1.83-.52-2.93-.53,1.43-1.11,2.63-2.24,4.77-1.92Z"/><path class="cls-1" d="m398.83,99v-2.26c1.08.13,1.74,2.02,3.24.57.16.4.3.73.44,1.07-1.3.22-2.45.42-3.68.62Z"/><path class="cls-1" d="m299.99,212.48c2.41.88,2.67,1.38,1.53,3.14-.09-.67-.16-1.22-.24-1.76-.9-.3-1.82,1.17-2.65-.15.45-.4.9-.82,1.36-1.23Z"/><path class="cls-1" d="m391.97,180.2c.22-1.52.39-2.79.57-4.05,1.17.95,1.5,2.13.87,3.23-.37.63-.84,1.12-1.44.82Z"/><path class="cls-1" d="m391.47,82.75c-.59-1.29-1.25-2.55-.09-3.78.15-.16.6-.02.99-.02-.79,1.76-.74,1.92.6,2.63-.49.39-1.01.79-1.5,1.17Z"/><path class="cls-1" d="m416.16,100c-.3.68-.51,1.01-.59,1.38-.08.35-.02.73-.02,1.48-1.16-.76-2.15-1.36-3.07-2.06-.12-.09.1-.64.18-1.14,1.33,1.44,1.74,1.49,3.49.34Z"/><path class="cls-1" d="m444.46,107.43c1.55-.93,2.57.15,3.76.68-1.4,1.11-2.99.81-3.76-.68Z"/><path class="cls-1" d="m429.38,152.7c-.61.16-1.05.36-1.5.38-.4.02-.94-.02-1.17-.26-.29-.31-.34-.86-.49-1.31.38-.06.78-.22,1.13-.16.95.17,2.01.29,2.03,1.35Z"/><path class="cls-1" d="m402.73,156.39c.92-.33,1.49.03,1.5.72,0,.67-.19,1.65-.65,1.94-.51.33-1.42.09-2.14-.03-.15-.02-.22-.58-.33-.9.29-.05.62-.2.87-.12.54.19,1.04.5,1.55.76.11-.12.22-.23.33-.35-.36-.64-.71-1.27-1.14-2.04Z"/><path class="cls-1" d="m324.97,217.94c.59-.66,1.24-1.39,2-2.24.2.81.47,1.58.57,2.37.08.62-.28.98-.93.7-.61-.26-1.18-.6-1.64-.84Z"/><path class="cls-1" d="m243.56,208.15c1,1.13,1.31-.5,2.06-.66.18.3.38.65.61,1.05-.71.78-1.47,1.6-2.63.98-.33-.18-.37-.91-.54-1.39.17,0,.33.01.5.02Z"/><path class="cls-1" d="m316.75,202.59c.47-.25.91-.71,1.24-.63,1.66.37,2.99,1.77,2.79,2.54-1.2-.57-2.43-1.15-4.04-1.91Z"/><path class="cls-1" d="m417.05,92.27c-.44,1.33-.11,2.23,1.14,2.78-1.04.25-1.99.75-2.49-.44-.38-.9.15-1.89,1.34-2.34Z"/><path class="cls-1" d="m269.42,260.13c-1.78,1.33-2.08,1.28-3.01-.51,1.53-.69,2.13-.6,3.01.51Z"/><path class="cls-1" d="m298.37,215.27c1.99,1.57.31,3.21.96,4.65-.85-.41-1.64-.78-2.68-1.29.53-.03.79-.06,1.04-.05.98.03,1.35-.61.97-1.55-.18-.47-.17-1.01-.29-1.76Z"/><path class="cls-1" d="m401.93,177.12c-.34-.55-.54-.87-.77-1.26-.3.07-.6.14-.8.18-.29-.82-.55-1.55-.81-2.25.69.08,1.3.15,1.93.22.13.89.27,1.86.45,3.11Z"/><path class="cls-1" d="m410.17,99.37c.32.62.63,1.25,1.13,2.24-1.44-.11-2.54-.19-3.63-.28-.02-.11-.04-.21-.06-.32,1.01-.2,2.29-.02,2.13-1.85.14.07.29.14.43.2Z"/><path class="cls-1" d="m310.45,133.76c1.12.66,1.86,1.16,2.66,1.5.2.08.62-.36.94-.55.23-.13.45-.31.69-.35.1-.02.38.34.35.41-.12.22-.31.46-.53.57-1.36.72-2.73.53-3.87-.56-.16-.15-.13-.5-.24-1.03Z"/><path class="cls-1" d="m442.95,103.45c-.55.31-1.09.63-1.64.94.24.23.48.45.73.68-.4-.37-.85-.7-1.2-1.12-.24-.28-.33-.68-.49-1.03.49-.01,1.02-.15,1.45,0,.47.17.84.61,1.25.93-.03-.13-.07-.27-.1-.4Z"/><path class="cls-1" d="m328.23,193.39c.46-.55.92-1.11,1.44-1.72.52.69.98,1.3,1.54,2.04-1.03,1.1-1.96-.77-2.98-.32Z"/><path class="cls-1" d="m334.15,34.51c.16.55.32,1.09.51,1.74-.8.24-1.66.48-2.54.74-.18-.86-.22-1.54,1-1.63.36-.02.69-.56,1.04-.86Z"/><path class="cls-1" d="m278.15,239.38c-1.1.22-2.2.45-3.3.67,1.22-1.81,2.08-2.02,3.23-1.12.02.15.05.3.07.45Z"/><path class="cls-1" d="m406.22,165.51c.37.18.93.28,1.06.57.27.6.36,1.31.4,1.98,0,.12-.62.27-1,.42-.16-1.02-.29-1.86-.47-2.96Z"/><path class="cls-1" d="m320.82,129.3c-.33.24-.65.48-.98.72-.85.6-1.34.3-1.69-.6-.22-.55-.59-1.04-.94-1.65.51.11,1.1.23,1.69.35q-.17,1.47,1.92,1.18Z"/><path class="cls-1" d="m182.83,93.05c1.1.26,2.13.45,2.75-1.02q.18,1.03-1.64,2.7c-.37-.56-.74-1.13-1.11-1.69Z"/><path class="cls-1" d="m337.19,189.52c-.7-.46-1.44-.96-2.19-1.46,0-.06,0-.12.01-.18.4.06.93-.02,1.18.21.91.86,1.23.17,1.72-.47.35-.46.89-.78,1.49-.96-.75.96-1.49,1.93-2.21,2.85Z"/><path class="cls-1" d="m338.92,197.48c-1.58-.46-3.2-.84-4.59-2.32,1.21.11,2.1.1,2.77,1.13.32.49,1.26.59,1.92.86-.03.11-.07.22-.1.32Z"/><path class="cls-1" d="m317.75,207.53c.17-.04.61-.15,1.04-.26l.28.26c-.5,1.08-1,2.17-1.55,3.36-.72-1.02-.64-.94.01-1.61.28-.3.14-1,.21-1.74Z"/><path class="cls-1" d="m398.73,161.79c-1.74-.06-1.09,1.54-1.52,2.06-.73-.86-1.43-1.69-2.14-2.52.1-.1.2-.2.31-.3.32.53.64,1.05,1.06,1.73.78-1.11,1.28-1.73,2.29-.97Z"/><path class="cls-1" d="m365.36,180.92c-.9-.49-1.06-1.39-.96-2.29.05-.44.52-.83.78-1.22.22,1.27.4,2.33.58,3.38-.13.04-.27.08-.4.13Z"/><path class="cls-1" d="m359.82,169.79c.47-.67.84-1.44,1.44-1.95.22-.19.98.25,1.49.4v.39c-.89.43-1.79.87-2.68,1.3-.08-.05-.17-.1-.25-.14Z"/><path class="cls-1" d="m424.91,101.63c1.05-.3,2.06-.58,3.27-.92,0,.25.14.72-.03,1-.35.59-2.21.51-3.24-.08Z"/><path class="cls-1" d="m420.81,95.13c.63.26,1.26.51,2.04.83-.85.16-1.31,1.64-2.29.4-.41-.52-.75-1.17.14-1.58.03.11.07.23.1.34Z"/><path class="cls-1" d="m426.7,138.48c-.35-1-.7-2.01-1.05-3.01.14-.05.29-.1.43-.15.51.95,1.8,1.6,1.11,3-.16.06-.33.11-.49.17Z"/><path class="cls-1" d="m371.82,169.22c-.5,1.11-1,2.22-1.55,3.46-.42-.18-.84-.35-1.07-.45.88-1.1,1.68-2.1,2.47-3.09.05.03.1.06.15.09Z"/><path class="cls-1" d="m344.99,52.44c-.87-1.06-.68-2.48.66-3.25-.21,1.02-.41,2.03-.66,3.25Z"/><path class="cls-1" d="m376.99,80.13c-.22.43-.44.85-.68,1.31-.84-1.09-1.16-3.1-.69-3.67.32.78.66,1.59.99,2.41.12-.02.25-.03.37-.05Z"/><path class="cls-1" d="m400.13,167.02c-.58-.72-1.14-1.34-.35-2.02.15-.13.92.19,1.15.5.67.88-.27,1.05-.8,1.52Z"/><path class="cls-1" d="m485.84,118.3c.95.12,1.81.23,2.68.35.03.14.06.27.09.41-.48.38-.96.75-1.37,1.07-.49-.64-.87-1.14-1.4-1.82Z"/><path class="cls-1" d="m230.71,218.77c1.49-.79,1.94-.61,3.53,1.49-1.29-.54-2.38-1-3.53-1.49Z"/><path class="cls-1" d="m370.67,163.92c-.21,1.01-.42,2.01-.64,3.07-1.23-1.65-.96-2.63.64-3.07Z"/><path class="cls-1" d="m423.69,158.32c-.35.55-.64,1.15-1.08,1.63-.15.17-.64.04-.98.05.07-.29.05-.68.24-.86.41-.43.92-.77,1.4-1.14.14.11.28.22.42.33Z"/><path class="cls-1" d="m403.7,150.33c.66.81,1.2,1.57.29,2.65-.33-.17-.68-.35-1.02-.52.25-.74.47-1.38.73-2.13Z"/><path class="cls-1" d="m363.54,163.81c1.03.06,1.74.1,2.67.16-.55.74-.96,1.29-1.29,1.73-.37-.51-.77-1.06-1.38-1.89Z"/><path class="cls-1" d="m330.06,189.77c.71-.29,1.41-.62,2.14-.85.18-.06.46.16.69.25-.11.23-.17.62-.33.66-.79.19-1.61.29-2.42.42l-.09-.47Z"/><path class="cls-1" d="m393.46,168.12c.59-1.2,1.76-1.24,3.79-.24-1.22.08-2.44.16-3.79.24Z"/><path class="cls-1" d="m269.61,254.1c-1.13-.07-2.31-.06-3.17-1.32,1.71-.65,2.1,1.11,3.17,1.32Z"/><path class="cls-1" d="m328.01,97.52c2.93-2.65,2.95-2.66,3.55-1.42-1.67-.72-2.01,1.61-3.55,1.42Z"/><path class="cls-1" d="m269.25,179.2c-.38,1.86-.79,2.07-2.68,1.12.97-.41,1.83-.77,2.68-1.12Z"/><path class="cls-1" d="m432.74,100.76c.26.68.49,1.31.73,1.94.3-.17.6-.35.91-.52-.7.03-1.4.06-2.37.11.4-.82.62-1.28.74-1.53Z"/><path class="cls-1" d="m321.28,202.63c-.42-.81-.87-1.61-1.24-2.45-.03-.07.45-.36.74-.58.35,1.08.63,1.96.91,2.83-.14.06-.28.13-.42.19Z"/><path class="cls-1" d="m343.17,178.64c-.56.1-.88.24-1.17.19-.46-.08-.89-.28-1.33-.43.07-.18.12-.51.22-.52.5-.07,1.03-.14,1.52-.06.23.04.4.42.76.83Z"/><path class="cls-1" d="m352.18,188.83c-1.7,1.85-1.92,1.92-3.11.93.52.04.91.07,1.38.11.32-.62.33-1.87,1.73-1.04Z"/><path class="cls-1" d="m320.32,220.19c-.64.99-1.15,1.79-1.66,2.59-.1-.02-.21-.04-.31-.06.24-.84.42-1.71.77-2.51.07-.15.78-.02,1.2-.02Z"/><path class="cls-1" d="m458.23,85.51c.96.55,1.87,1.07,3.07,1.76-1.52.27-2.98-.7-3.07-1.76Z"/><path class="cls-1" d="m289.91,122.11c.19,1.06.34,1.87.49,2.69-1.49-.11-1.65-.7-.49-2.69Z"/><path class="cls-1" d="m445.72,124.59c1.09-.27,2.03-.49,2.95-.72.13,1.18-.74,1.47-2.95.72Z"/><path class="cls-1" d="m387.81,97c.52-.21,1.02-.49,1.55-.6.24-.05.55.25.83.39-.23.24-.43.63-.69.67-.54.08-1.11-.02-1.66-.05l-.03-.42Z"/><path class="cls-1" d="m204.92,132.15c1.15.54,2.07.97,3.12,1.46-1.86.31-2.76-.06-3.12-1.46Z"/><path class="cls-1" d="m427.81,94.35c-.24-.81-.43-1.53.52-1.82.2-.06.75.3.78.52.1.8-.39,1.19-1.3,1.3Z"/><path class="cls-1" d="m423.86,97.62c.72.14,1.44.28,2.14.41v2.03c-.63-1.07-1.14-1.93-1.65-2.78-.16.11-.33.23-.49.34Z"/><path class="cls-1" d="m247.07,124.68c-.51-.32-.89-.53-1.23-.78-.27-.19-.5-.44-.74-.66.18-.15.37-.42.54-.41.37.03.89.11,1.06.36.25.37.25.91.37,1.5Z"/><path class="cls-1" d="m357.92,176.84c-.15.17-.29.39-.48.53-.15.11-.37.13-.7.24v-2.67c.49.8.8,1.28,1.18,1.9Z"/><path class="cls-1" d="m302.54,208.6c.46.18.79.21.95.4.31.35.52.78.75,1.19.01.02-.3.29-.35.26-.43-.27-.87-.55-1.24-.9-.13-.13-.07-.45-.12-.94Z"/><path class="cls-1" d="m317.85,217.64c-.42-.2-.77-.36-1.1-.52.39-.58.74-1.1,1.09-1.62.93.59.95.83,0,2.14Z"/><path class="cls-1" d="m314.2,238.87c.43-.06.82-.12,1.56-.23-.19.84-.34,1.48-.49,2.12-.12-.02-.25-.03-.37-.05-.22-.58-.44-1.17-.7-1.84Z"/><path class="cls-1" d="m372.55,156.98c-.43.7-.86,1.41-1.49,2.44-.05-.83-.29-1.5-.05-1.85.28-.42.97-.57,1.48-.84.02.09.05.17.07.26Z"/><path class="cls-1" d="m443.04,92.49c.46.87,1.39,1.86-.63,2.28.24-.86.43-1.57.63-2.28Z"/><path class="cls-1" d="m394.84,98.13c.56-.23,1.11-.47,1.68-.65.04-.01.22.42.33.64-.58.24-1.15.48-1.73.72-.1-.24-.19-.47-.29-.71Z"/><path class="cls-1" d="m439.48,123.1c-.59-.29-1.07-.53-1.7-.84.06-.19.16-.55.24-.8.57.23,1.08.44,1.75.72-.09.3-.21.69-.29.93Z"/><path class="cls-1" d="m70.03,156.7c-.44.03-.99.24-1.29.05-.31-.2-.39-.78-.56-1.19.1-.09.2-.17.31-.26.54.33,1.09.66,1.63.99l-.08.41Z"/><path class="cls-1" d="m349.99,195.02c.33.44.7.87.98,1.34.09.15-.05.44-.08.67-.25-.05-.66-.02-.72-.16-.25-.55-.4-1.15-.59-1.73.13-.04.27-.08.4-.12Z"/><path class="cls-1" d="m431.63,136.72c.11.62.22,1.24.34,1.94-.84.27-1.13-.41-1.23-1.02-.06-.34.33-.76.51-1.15.13.07.25.15.38.22Z"/><path class="cls-1" d="m472.96,115.76c-.46.28-.92.56-1.37.84-.15-.3-.52-.7-.43-.88.39-.81,1.04-.47,1.62-.37l.19.41Z"/><path class="cls-1" d="m416.08,163.8c-.9.61-1.61,2.11-3.03.82,1.05-.28,2.04-.55,3.03-.82Z"/><path class="cls-1" d="m259.44,258.6c-.77-.09-1.55-.18-2.43-.28.84-.94,1.54-.9,2.43.28Z"/><path class="cls-1" d="m393.37,91.41c-.84.94-1.65.96-2.81,0h2.81Z"/><path class="cls-1" d="m404.54,170.05c.07-.57.11-1.14.24-1.7.01-.05.57.03.88.05-.15.59-.29,1.19-.44,1.78-.23-.04-.45-.08-.68-.13Z"/><path class="cls-1" d="m352.95,56.8c.28.77.56,1.54.88,2.42-.11-.01-.69.04-.74-.1-.26-.73-.38-1.5-.55-2.26.14-.02.27-.04.41-.06Z"/><path class="cls-1" d="m169.84,134.04c.32.56.63,1.11,1.1,1.93.02-.03-.15.26-.32.55-.14.01-.28.03-.42.04l-.65-2.45c.1-.02.2-.05.3-.07Z"/><path class="cls-1" d="m323.98,84.82c-.82.28-1.65.55-2.47.83-.07-.16-.13-.33-.2-.49.82-.35,1.63-.69,2.45-1.04.07.23.14.47.22.7Z"/><path class="cls-1" d="m405.03,170.71c.83.08,1.22.12,1.68.16q-1.48,1.9-2.06,1.74c.95-.35,1.26-.89.38-1.9Z"/><path class="cls-1" d="m329.76,220.79c.81-.61,1.39-1.03,2.03-1.51.26,1.41-.07,1.66-2.03,1.51Z"/><path class="cls-1" d="m409.11,157.02c.63.69,1.18,1.28,1.9,2.07-.98-.37-1.58-.6-2.32-.88.13-.37.29-.84.41-1.19Z"/><path class="cls-1" d="m276.86,245.18c.54-.57.86-.9,1.38-1.45.2.72.34,1.19.54,1.89-.67-.15-1.13-.26-1.92-.44Z"/><path class="cls-1" d="m442.18,30.53c.79.88.56,1.39-.05,1.77-.14.09-.46-.12-.7-.18.23-.49.46-.97.75-1.58Z"/><path class="cls-1" d="m230.86,222.63c.57-.75,1.03-1.36,1.64-2.16.12.3.35.58.29.75-.29.81-.76,1.46-1.92,1.41Z"/><path class="cls-1" d="m415.16,162.88c-1.69.18-1.86.02-1.73-1.61.64.59,1.11,1.03,1.73,1.61Z"/><path class="cls-1" d="m429.65,131.21c.22,1.08-.24,1.86-1.39,2.67.4-1.11.71-1.95,1.01-2.78.13.04.25.08.38.12Z"/><path class="cls-1" d="m430.14,101.02c.12.51.27,1.02.31,1.53,0,.1-.43.24-.66.36-.14-.57-.28-1.13-.42-1.7.26-.06.51-.13.77-.19Z"/><path class="cls-1" d="m253.94,262.07c.15-.63.3-1.25.45-1.88.7.3.73.31.39,1.47-.08.28-.35.5-.54.74-.1-.11-.2-.22-.3-.34Z"/><path class="cls-1" d="m303.98,8.73c.6.06,1.19.12,1.79.17-.04.27-.08.55-.11.82-.58-.15-1.17-.31-1.75-.46.03-.18.05-.36.08-.53Z"/><path class="cls-1" d="m547.67,153.82c-.89-.56-1.77-1.12-2.66-1.68l.34-.51c.86.62,1.71,1.23,2.57,1.85-.08.11-.17.23-.25.34Z"/><path class="cls-1" d="m325.86,203.07c-.93.46-1.55.76-2.38,1.17.06-.47.07-1.11.16-1.12.64-.09,1.3-.05,2.23-.05Z"/><path class="cls-1" d="m385.16,85.38c.33-.37.66-.74,1.26-1.42.13.76.21,1.18.28,1.6l-1.41.18c-.04-.12-.08-.24-.12-.36Z"/><path class="cls-1" d="m325.61,220.77c-.87.45-1.52.8-2.2,1.15-.17-1.3.36-1.61,2.2-1.15Z"/><path class="cls-1" d="m405.53,175.4c-.75-.67-1.25-1.12-1.75-1.56.02-.08.05-.15.07-.23.69.33,1.38.65,2.07.98-.14.29-.28.58-.39.82Z"/><path class="cls-1" d="m438.73,127.38c.9-.2,1.79-.4,2.69-.59l.11.4c-.88.26-1.76.52-2.65.77-.05-.19-.1-.38-.15-.57Z"/><path class="cls-1" d="m471.45,117.99h3.01c0,.1,0,.2,0,.31h-3.01c0-.1,0-.2,0-.31Z"/><path class="cls-1" d="m397.1,171.35c-.36-.65-.72-1.3-1.08-1.95.17-.1.34-.2.51-.31.4.63.8,1.26,1.19,1.88-.21.13-.42.25-.63.38Z"/><path class="cls-1" d="m448.7,119.78c.53.25,1.44.41,1.52.77.26,1.12-.43.9-1,.42-.27-.22-.43-.57-.64-.86.04-.11.08-.22.11-.33Z"/><path class="cls-1" d="m342.76,209.05c.39-1.51,1.11-.67,1.74-.64.02.13.04.25.06.38-.6.09-1.21.17-1.81.26Z"/><path class="cls-1" d="m327.82,31.41c-.86-.04-1.6-.22-1.53-1.63.72.49,1.29.88,1.86,1.26-.11.12-.22.25-.33.37Z"/><path class="cls-1" d="m33.24,119.9c.42-.21.84-.42,1.26-.63.14.34.28.68.54,1.28-.76-.12-1.23-.19-1.7-.27-.03-.13-.06-.26-.1-.38Z"/><path class="cls-1" d="m327.75,196.69c.35-.45.64-.83,1.11-1.44.15.66.26,1.14.45,1.93-.74-.23-1.17-.37-1.56-.49Z"/><path class="cls-1" d="m324.93,216.63c-.23-.37-.66-.74-.65-1.1.02-.42.42-.83.84-1.11v1.98l-.19.23Z"/><path class="cls-1" d="m447.63,104.03c-.78-.23-1.56-.46-2.31-.69.75-.57,1.47-.47,2.31.69Z"/><path class="cls-1" d="m349.28,173.44c0,.57,0,1.15-.03,1.72,0,.02-.43.01-.67.01.05-.59.1-1.19.16-1.78.18.02.36.03.54.05Z"/><path class="cls-1" d="m353.29,176.94c-.58.03-1.15.06-1.73.08,0-.22,0-.44,0-.67h1.71c0,.19.02.39.02.58Z"/><path class="cls-1" d="m284.94,162.78c.37-.53.75-1.05,1.12-1.58.11.03.23.05.34.08-.04.33.03.73-.14.96-.27.35-.71.58-1.07.86-.08-.1-.17-.21-.25-.31Z"/><path class="cls-1" d="m358.5,58.46c.27.49.61.95.78,1.47.06.17-.33.49-.72,1.02-.11-1.03-.17-1.66-.24-2.29.06-.07.12-.14.18-.21Z"/><path class="cls-1" d="m44.36,111.14c.31.4.61.8.92,1.2-.2.12-.54.38-.57.34-.34-.34-.62-.74-.93-1.12.19-.14.39-.28.58-.42Z"/><path class="cls-1" d="m397.92,183.26c-.48-.21-.96-.41-1.44-.62.1-.19.26-.57.3-.56.47.16.92.37,1.38.57-.08.2-.16.41-.24.61Z"/></g></g></svg>