<svg xmlns="http://www.w3.org/2000/svg" xmlns:xlink="http://www.w3.org/1999/xlink" width="125.781" height="125.781" viewBox="0 0 125.781 125.781">
  <defs>
    <clipPath id="clip-path">
      <rect id="Rectangle_55" data-name="Rectangle 55" width="88.941" height="88.941" fill="none"/>
    </clipPath>
    <clipPath id="clip-path-2">
      <rect id="Rectangle_56" data-name="Rectangle 56" width="84.229" height="75.859" fill="none"/>
    </clipPath>
  </defs>
  <g id="Group_49" data-name="Group 49" transform="translate(-12559.576 -11077.937)">
    <g id="Group_48" data-name="Group 48" transform="translate(12622.467 11077.937) rotate(45)" opacity="0">
      <g id="Group_33" data-name="Group 33" transform="translate(0 0)" clip-path="url(#clip-path)">
        <path id="Path_1920" data-name="Path 1920" d="M10.893,0a10.893,10.893,0,1,0,0,21.786H78.048A10.893,10.893,0,0,0,78.048,0Z" transform="translate(0 33.577)" fill="#ff0707"/>
        <path id="Path_1921" data-name="Path 1921" d="M0,78.048a10.893,10.893,0,0,0,21.786,0V10.893A10.893,10.893,0,1,0,0,10.893Z" transform="translate(33.577 0)" fill="#ff0707"/>
      </g>
    </g>
    <g id="Group_46" data-name="Group 46" transform="translate(12664.581 11178.757) rotate(180)">
      <g id="Group_35" data-name="Group 35" transform="translate(0 0)" clip-path="url(#clip-path-2)">
        <path id="Path_1922" data-name="Path 1922" d="M81.207,30.636,53.593,3.022A10.316,10.316,0,0,0,39,17.611l10,10H10.316a10.316,10.316,0,0,0,0,20.633H49.007l-10,10A10.316,10.316,0,1,0,53.593,72.837L81.207,45.225a10.315,10.315,0,0,0,0-14.589" transform="translate(0 0)" fill="#fff"/>
      </g>
    </g>
  </g>
</svg>
