<svg id="Group_58" data-name="Group 58" xmlns="http://www.w3.org/2000/svg" xmlns:xlink="http://www.w3.org/1999/xlink" width="1599.26" height="899.456" viewBox="0 0 1599.26 899.456">
  <defs>
    <clipPath id="clip-path">
      <rect id="Rectangle_80" data-name="Rectangle 80" width="1599.26" height="899.456" fill="none"/>
    </clipPath>
  </defs>
  <g id="Group_57" data-name="Group 57" clip-path="url(#clip-path)">
    <path id="Path_4467" data-name="Path 4467" d="M1200.54,640.129a20.333,20.333,0,0,0-2.97,1.714c-14.11,13.2-24.876,11.257-30.625-7.2-3.971-12.749-4.928-26.454-6.967-39.772-.534-3.482-.081-7.116-.081-10.95-17.468-4.7-32.976-1.1-47.339,8.061-19.964,12.738-35.484,30.118-49.663,48.784-5.822,7.665-10.261,7.863-16.009.212-8.445-11.238-12.247-24.064-12.361-38.02-.084-10.156-.017-20.312-.017-28.955l-32.373,27.167c2.267,3.155,5.8,8.2,9.462,13.141,8.84,11.924,8.876,11.914-.245,23.276-1.556,1.938-3.253,3.763-6.191,7.142-5.188-4.456-10.508-8.561-15.264-13.238-4.914-4.832-9.281-10.221-14-15.492l-16.742,12.4c-5.364-7.936-3.458-12.342,10.065-24.907-16.969-45.7,2.266-83.069,28.405-118.4,9.542-12.9,20.821-24.532,31.615-36.465a40.444,40.444,0,0,1,10.522-7.982c8.783-4.81,15.487-1.01,14.95,9.217-.622,11.84-2.819,23.6-4.341,35.39-.174,1.347-.4,2.688-.752,4.993l7.217-4.267c-1.85,15.859-3.5,30.016-5.415,46.411,10.765-18.591,15.932-38.451,30.508-52.271l3.473,1.142c-2.369,12.71-4.738,25.421-7.172,38.482,6.576-.335,9.376-3.022,10.045-9.5,2.173-21.023,3.789-41.943,0-62.986-1.72-9.556,7.087-26.911,15.582-32.762,4.212,7.733,7.964,15.793,12.768,23.168,7.143,10.966,17.208,16.784,30.908,15.858,11.139-.753,12.082,1.016,8.65,11.818-6.184,19.469-13.421,22.855-36.125,19.272-4.557-.719-9.024-2.005-14.17-3.174-1.069,10.009-2.028,18.982-3.209,30.046l33.012-7.806c4.033,18.9-5.574,33.892-22.108,36.575-15.251,2.475-21.53,8.968-24.656,23.952-.885,4.242-2.267,8.38-3.39,12.574-1.048,3.917-2.055,7.844-1.716,12.475,8.7-7.9,17.171-16.056,26.141-23.63,14.043-11.856,29.951-19.8,48.424-22.581,2.412-.363,5.37-4.886,6.005-7.915,2.84-13.532,4.451-27.327,7.457-40.815a150.831,150.831,0,0,1,8.786-26.746c2.046-4.743,6.389-8.5,9.7-12.7l3.13.877v38.668l2.913.223c10.387-23.656,21.786-47.036,17.5-74.394-.943-6.019-1.085-12.163-2.013-18.185-1.133-7.359.076-13.25,6.61-18.119,6.609-4.924,11.48-4.339,12.771,4.348,2.02,13.583,3.744,27.582,2.616,41.157-1.2,14.422-5.87,28.555-9.019,42.788,11.565,2.114,17.618-2.922,18.586-14.814a219.454,219.454,0,0,1,5.211-34.327c.918-3.751,6.453-9.066,9.731-8.964,6.013.187,7.343,6.321,6.964,12.064-.819,12.424-1.55,24.855-2.363,38.043H1279.6c-1.315-11.64-2.015-23.221-4.091-34.551-1.746-9.53.246-16.4,8.38-22.174,5.811-4.126,8.518-2.8,9.925,3.327,1.233,5.372,2.854,10.918,2.6,16.307-.377,8.059,2.328,14.533,6.838,20.775,2.264,3.133,3.947,6.678,5.994,9.975,10.4,16.754,10.925,14.332-2.311,33.481-1.114,1.611-4.584,2.465-6.839,2.272-9.657-.83-19.262-2.253-28.9-3.3-2.685-.292-5.429-.044-9.312-.044,0,7.448.068,14.024-.011,20.6-.433,35.8-.789,71.678-8.684,106.762-2.041,9.072.432,14.521,5.96,20.4,17.983,19.127,39.549,30.119,66.275,29.78a47.918,47.918,0,0,1,7.482.5c7.657,1.117,10.032,4.824,7.426,12a89.421,89.421,0,0,1-5.707,12.9c-6.234,11.219-13.92,17.705-28.818,17.71-18.838.006-36.184-3.918-53.567-9.758-3.655-1.228-7.4-2.2-11.655-3.459-1.438,13.9-2.82,27.262-4.445,42.971,15.241-1.016,29.451-1.822,43.633-2.981,5.235-.428,10.4-1.7,15.6-2.566,5.6-.935,8.092,1.161,8.33,7.115.789,19.74-11.691,34.956-32.076,38.013-6.839,1.025-13.81,1.233-20.731,1.639-21.443,1.255-35.8,10.806-38.216,32.756-.316,2.878-2.958,5.441-4.2,8.291-2.464,5.672-4.7,11.442-7.029,17.172l1.708,1.233c10.941-6.148,21.856-12.344,32.83-18.434,35.039-19.444,72.264-32.5,112.094-37.607,4.949-.634,5.959-2.468,6.8-7.1,2.993-16.537,6.973-32.892,10.241-49.383a58.868,58.868,0,0,0,1.221-15.514c-1.935-26.561-4.227-53.1-6.453-79.636-.179-2.136-.79-4.237-1.371-7.24-3.93,2.17-7.325,3.8-10.472,5.821-25.586,16.4-63.58-1.924-64.624-36.978-1.554-52.145,20.439-93.057,62.809-122.336,6.648-4.594,18.966-1.74,28.56-1,4.33.332,8.409,3.922,12.653,6.06,5.409-18.834,10.411-22.334,28.7-21.344,5.985.324,8.976,2.223,7.552,8.6-.481,2.156-1.322,4.442-1.016,6.525.984,6.7-4.532,12.812,1.308,20.708,3.511,4.745-.337,14.944-.93,22.688-.27,3.522-.664,7.036-1,10.553l2.73,2.239c2.143-3.03,4.365-6.007,6.416-9.1,9.353-14.1,19.461-27.783,27.613-42.545,3.646-6.6,2.6-15.617,4.985-23.127a269.841,269.841,0,0,1,13.21-34.737c3.257-6.825,10.174-6.973,14.888-1.057,1.78,2.235,2.336,6.407,1.774,9.38-2.916,15.418-6.373,30.733-9.641,46.084l2.709,1.361c3.386-3.369,6.517-7.054,10.212-10.043,8.146-6.591,16.143-13.537,25.032-18.985,6.768-4.148,11.352-1.012,9.88,6.778-1.165,6.165-4.6,12.346-8.458,17.437-4.128,5.447-9.962,9.594-14.986,14.377-1.45,1.381-2.674,3-5.548,6.269,4.881,0,7.5.2,10.082-.032,21.269-1.916,41.438,3.072,61.041,10.385,14.243,5.314,21.489,16.1,23.336,31.505,2.477,20.677-5.072,37.682-17.565,52.89-11.971,14.57-23.338,30.335-37.94,41.8-9.653,7.58-11.9,16.569-15.724,26.067-11.124,27.6-28.606,51.248-47,74.232-1.648,2.06-7.391,3.059-9.815,1.808-4.451-2.3-5.879-6.726-2.791-12.017,7.123-12.206,14.558-24.321,20.46-37.12,5.04-10.928,9.4-22.509,11.7-34.262,2.124-10.865-3.81-15.61-15.117-14.69-16.306,1.326-29.942,8.914-40.547,20.654-3.287,3.639-2.26,11.358-2.788,17.247-.766,8.547-11.859,15.046-19.4,11.529-19.722,22.962-25.252,49.718-20.848,79.99,25.261-7.179,50.457-14.686,75.861-21.406a286.818,286.818,0,0,1,35.87-6.711c4.64-.611,5.667-2.669,7.072-6.327,5.535-14.412,10.614-29.117,17.677-42.776,3.631-7.02,10.418-13.02,17.053-17.664,4.312-3.019,10.921-2.763,17.914-4.281-7.537,35.049,3.25,63.16,20.456,89.548,3.759,5.764.894,9.5-2.367,13.245-11.158,12.814-25.487,19.017-42.368,20.132-3.069.2-6,2.506-8.995,3.84,2.217,2.984,3.872,6.769,6.762,8.793,6.99,4.893,16.522,2.011,22.994-4.842,9.043-9.575,18.79-18.486,28.236-27.681l3.093,1.78c-.147,1.936.447,4.452-.55,5.721-17.378,22.121-35.411,43.655-60.523,57.626-14.424,8.026-23.261,6.313-33.16-5.338-13.421,12.7-26.3,26.09-40.54,37.837-6.951,5.735-16.067,9.879-24.869,12.081-10.482,2.622-16.937-4.908-16.72-15.839.345-17.379,3.239-34.142,10.024-50.215,3.643-8.63,8.179-16.371,17.011-20.736.974-.482,1.516-1.838,3.41-4.262-3.433.505-5.172.518-6.748,1.03-16.07,5.221-32.025,10.822-48.212,15.647-6.064,1.808-5.166,6.541-6.072,10.462-4.481,19.394-8.335,38.94-13.184,58.238-1.726,6.868-5.153,13.459-8.661,19.7-5.5,9.773-10.326,11.944-23.082,11.777,5.635-22.528,11.241-44.943,16.658-66.6-16.279,0-31.75-1.1-47.015.2-48.983,4.2-90.848,27.07-131.832,51.893-4.986,3.019-9.94,6.092-14.894,9.163-12.621,7.825-21.286,6.347-31.852-4.937-17.23-18.4-26.378-40.089-27.035-64.7-9.515,7.447-18.782,15.508-28.863,22.377-11.661,7.945-25.652,10.535-38.163,4.814C1025.65,843.112,1006.332,833.41,997.6,813c-17.115-39.992-6.261-69.557,33-88.37,13.944-6.681,31.013-.565,39.219,12.336-7.241,11.86-15.015,22.777-31.8,20.2-1.528-.235-4.226,1.42-5,2.913a61,61,0,0,0-3.239,48.6c7.339,20.5,27.5,23.608,45.116,10.594,9.791-7.235,11.861-18.571,14.356-29.908a86.939,86.939,0,0,0-1.423-43.5c-10.6-37.12-44.914-45.8-71.209-41.189-8.9,1.561-17.284,5.913-26.126,8.081-6.02,1.477-12.6,2.582-18.623,1.707-9.788-1.422-11.69-8.995-4.669-16.166a21.88,21.88,0,0,1,7.4-5.28c26.683-10.129,53.476-20.2,82.444-21.19,24.913-.853,45.711,7.65,59.937,28.836l18.026-21.8c8.5,6.806,6.417,13.9,5.969,20.6-1.054,15.75-2.137,31.5-1.494,48.048,1.579-2.312,3.111-4.658,4.746-6.93,10.846-15.068,21.435-30.334,32.723-45.065,4.092-5.341,9.892-12.208,17.319-7.949,6.628,3.8,4.077,11.752,2.585,18.28-2.9,12.665-5.729,25.344-8.856,39.21l17.9-1.959c6.948-34.749,4.063-68.7-5.363-102.973M1534.229,613.1c5.665-7.422,12.527-15.437,18.27-24.185,6.644-10.12,13.429-20.412,18.087-31.5,5.1-12.135,1.953-21.4-7.735-28.618-20.412-15.2-42.928-11.111-65.2-5.823-5.027,1.194-7.4,6.144-4.661,11.427,6.357,12.256,12.393,24.754,19.8,36.366,4.724,7.407,8.608,14.1,5.41,20.372l16.03,21.957m-297.853-7.428c.706-6,1.434-9.748,1.544-13.514.619-21.09.973-42.188,1.666-63.275.286-8.68,1.249-17.336,1.78-26.01.138-2.258.668-5.482-.527-6.57-1.361-1.24-4.712-1.336-6.744-.628-9.422,3.281-18.716,6.938-28,10.6-10.964,4.327-11.057,4.413-8.753,16.309,3.525,18.2,7.608,36.295,10.63,54.572a32.537,32.537,0,0,1-1.886,16.793c-3.048,7.464-9.281,8.391-16.144,3.989-3.086-1.98-6.277-3.8-9.842-5.94-.524,13.786,5.357,25.609,12.773,28.821,8.295-9.693,16.166-19.194,24.383-28.386,5.453-6.1,8.83-5.521,12.588,1.437,1.794,3.321,3.653,6.607,6.531,11.8m141.254-58.916-1.47-.659c-.861-7.08-.426-14.652-2.889-21.125-3.661-9.626-11.928-14.109-22.529-13.777-12.562.394-20.875,6.811-25.486,18.1-5.712,13.98-6,28.765-4.685,43.443,1.1,12.231,9.752,20.084,22.424,22.246,12.34,2.1,20.958-1.611,25.9-14.188,4.252-10.82,5.922-22.652,8.733-34.037m-372.871,22.171c2.665-5.615,4.438-8.975,5.888-12.469,6.578-15.846,14.088-31.408,19.224-47.712,3.424-10.868,4.232-22.783,4.689-34.289.364-9.182-4.884-11.492-12.071-6A70.851,70.851,0,0,0,1009.4,481.12a129.162,129.162,0,0,0-26.064,61.337c-1.647,11.815,2.2,24.517,4.346,36.68.915,5.174,4.549,6.924,9.992,3.766,8.134-4.717,16.7-8.69,24.979-13.162a6.55,6.55,0,0,0,2.876-3.583c1.59-5.535,2.849-11.165,4.742-18.828-7.6,9.061-11.394,19.44-25.514,21.595M1163.465,861.5c7.377-15.524,14.239-29.962,21.386-45-18.741-2.667-26.972-11.933-26.58-28.987.23-10,1.734-19.974,2.736-30.722-29.691,33.368-29.143,71.855,2.458,104.709m317.522-267.468c-5.935-16.188-12.046-32.855-18.76-51.164-2.6,1.851-8.177,3.662-9.036,6.774a322.166,322.166,0,0,0-11.766,74.087l39.562-29.7m12.573,191.839c2.223-8.921-2.234-11.353-9.737-10.306-7.771,1.084-15.5,2.481-22.891,3.683.323,4.481,1.018,7.458.653,10.3-1.156,9.014-2.665,17.984-4.119,26.958-1.425,8.792,5.562,14.83,13.87,11.919,17.1-5.991,29.158-24.214,28.022-42.553Zm-95.491-114.551c4.309-5.228,8.465-9.326,11.437-14.152,2.729-4.43,5.194-9.479,6.02-14.542,3.555-21.789,6.2-43.727,9.72-65.523,1.78-11.014,4.723-21.84,7.373-33.8l-17.416,4.145c0,15.433.569,30.121-.162,44.744-.719,14.381-6,26.766-19.227,34.693-1.876,1.125-3.568,4.689-3.309,6.884,1.427,12.053,3.488,24.031,5.564,37.553m-335.014-135.1c-16.21,32.729-19.446,55.445-1.681,75.185,4.077-12.375,8.035-24.389,12.02-36.483-10.4-2.375-13.995-7.635-12.913-18.223.7-6.843,1.706-13.654,2.574-20.479m484.7,206.128c-7.844,4.671-11.417,8.763-9.246,15.073.7,2.037,4.219,5.026,5.416,4.611,3.56-1.235,9.271-3.925,9.289-6.086.033-4.246-3.209-8.518-5.459-13.6m-366.143-197.9c-5.132,6.959-4.7,14.909,1.186,21.709,6.113-4.716,5.73-11.731-1.186-21.709" fill="#e6e6e6"/>
    <path id="Path_4468" data-name="Path 4468" d="M646.843,668.689A111.437,111.437,0,0,1,608.725,711.8,69.838,69.838,0,0,1,592,720.335c-10.441,3.484-18.046-1.47-20.019-12.373-.875-4.841-1.089-9.8-1.673-15.376-18.55-3.168-32.114,6.582-44.485,18.931-2.942,2.937-4.853,6.892-7.723,9.921-1.629,1.719-4.482,3.741-6.344,3.378-1.941-.379-4.307-3.247-4.8-5.409a64.056,64.056,0,0,1-1.28-14.018q-.109-92.589-.046-185.177v-4.7c-1.794,10.359-10.182,18.315-9.575,29.774.52,9.818-5.88,12.49-13.88,6.724-4.662-3.36-9.027-7.133-15.241-12.088,1.145,3.742,1.617,5.761,2.368,7.67,16.9,42.944,28.023,87.242,31.438,133.357.943,12.723-.6,25.048-5.609,36.891-3.385,7.995-12.622,10.942-19.444,4.34-8.75-8.468-16.25-18.333-23.556-28.141-4.178-5.61-6.9-12.3-11.371-20.516-2.951,7.4-5.636,13.131-7.536,19.111-3.725,11.722-6.672,23.7-10.68,35.318-1.278,3.7-5.21,9.547-7.382,9.315-6.344-.679-5.807-7-5.594-11.941,1.039-24.127,3.037-48.245,3.1-72.37.054-19.365-2.182-38.735-3.369-58.1-.144-2.358-.587-4.868.017-7.057.679-2.459,2.389-4.634,3.65-6.933,2.041,1.658,5.119,2.911,5.951,5.041,5.053,12.923,9.49,26.085,14.348,39.087,2.639,7.063,5.7,13.968,8.794,21.473a23.744,23.744,0,0,1,3.05-1.961c3-1.25,6.041-2.393,9.068-3.577.519,4.146,3.039,10.09,1.208,12.126-7.745,8.613-3.727,15.85,1,23.219,6.206,9.673,12.529,19.3,19.368,28.521,1.745,2.354,5.63,3.123,8.532,4.62,1.362-2.967,4.037-6.006,3.876-8.888-1.159-20.849-1.332-41.928-4.79-62.434-5.81-34.441-16.932-67.511-31.518-99.339-4.967-10.839-12.821-16.984-25.043-18.734-8.123-1.164-5.8-8.755-5.1-14.134.844-6.466,7.494-10.787,13.248-8.586,3.537,1.352,6.564,4.133,9.687,6.451,10.395,7.715,20.729,15.511,31.923,22.463-12.026-24.611-22.231-49.993-41.162-70.171-6.7-7.142-12.145-6.04-14.067,4.007-3.682,19.239-6.026,38.75-8.418,58.211-.892,7.261.146,14.759-.735,22.022-.364,3-3.46,5.67-5.313,8.49-1.826-2.648-4.916-5.136-5.277-7.971-2.913-22.875-5.115-45.84-8.005-68.718-.733-5.807-3.963-11.309-4.62-17.112-1.118-9.879-.657-19.931-1.658-29.829Q383.766,390,379.3,354.968c-.615-4.78-3.273-9.3-5.322-14.835-13.414,9.094-25.716,18.462-39,26.135-11.9,6.875-20.222,14.565-19.582,29.646.311,7.343-1.931,14.8-3.29,24.059,9.2-11.925,16.991-22.74,25.545-32.917,8.441-10.043,17.464-19.624,26.672-28.973,2-2.028,5.869-2.213,8.878-3.247,1.055,3.3,2.3,6.559,3.057,9.926.244,1.074-.763,2.441-1.224,3.665-5.42,14.372-9.464,29.5-16.764,42.845-4.714,8.617-2.318,17.126-4.636,25.486-2.616,9.437-2.794,19.549-4.225,30.9,9.573-2.266,18.068-4.587,26.7-6.171,3.517-.646,9.606-.913,10.52.792a16.326,16.326,0,0,1,.6,12.268c-2.131,5.505-6.109,10.319-9.442,15.335q-30.07,45.243-60.188,90.454c-.373.563-.468,1.31.21,2.872,3.958-3.558,8.063-6.966,11.845-10.7,11.223-11.081,22.1-22.518,33.606-33.3,3.018-2.828,7.8-3.775,11.775-5.585.9,4.654,3.542,9.8,2.387,13.866-3.278,11.553-8.473,22.545-12.255,33.976-12.417,37.521-24.547,75.137-36.76,112.725-.386,1.19-.473,2.476-1.039,5.58,4.66-3.636,7.726-6.829,11.444-8.779,10.826-5.678,21.764-11.2,32.975-16.056,4.222-1.828,9.717-2.413,11.561,4.138,1.821,6.47-1.6,10.35-7.45,11.462-16.931,3.215-30.2,12.648-43.063,23.359-3.589,2.987-9.145,3.616-13.8,5.326-1.425-5.058-4.882-10.544-3.92-15.1,4.1-19.44,8.752-38.839,14.629-57.811,7.353-23.734,16.111-47.033,24.24-70.528.661-1.91,1.146-3.881,1.861-6.328-11.733,10.291-22.923,20.13-34.152,29.925-1.579,1.377-3.176,3.126-5.067,3.69-13.61,4.057-13.259,15.307-14.187,26.233-1.929,22.731-4.2,45.431-6.338,68.144-.074.785.134,1.756-.254,2.324-1.875,2.747-3.908,5.386-5.885,8.063-1.831-3.048-4.07-5.936-5.346-9.2-.8-2.046-.148-4.657-.148-7.015q-.967-.948-1.933-1.9c-.721,1.635-1.088,3.586-2.219,4.855-9.4,10.555-20.338,10.991-30.758,1.029-13.2-12.62-20.926-28.76-27.888-45.214-12.176-28.777-17.743-59.143-20.633-92.034-3.391,5.462-5.64,9.665-8.493,13.41-1.242,1.629-3.965,3.463-5.574,3.123-1.752-.371-3.938-3.007-4.242-4.923a19.778,19.778,0,0,1,.7-9.945C194.11,533,204.846,506,216.152,479.245c2.486-5.886,3.933-10.579.9-16.79-10.088-20.667-19.411-41.706-29.431-62.407-4.33-8.946-11.185-13.236-21.85-9.941-2.757.852-8.588-.9-9.427-2.93-1.2-2.91-.147-7.863,1.766-10.73,4.954-7.427,12.852-6.521,20.671-5.948,7.625.558,15.323.121,23.585.121-3.406-21.246-6.766-41.068-9.7-60.951-1.683-11.4-2.471-22.932-4.132-34.336-.38-2.609-2.115-5.841-4.242-7.211-4.48-2.885-4.932-6.528-2.151-9.877,2.922-3.519,6.94-6.3,10.918-8.664,1.078-.642,4.991.932,5.463,2.254,2.011,5.636,5.865,4.946,10.211,4.036,26.2-5.493,50.2-16.439,73.416-29.355.457-.254.838-.822,1.294-.871,3.148-.34,6.306-.58,9.461-.853-.538,3.058-.369,6.484-1.738,9.109-5.889,11.3-14.129,21.742-17.99,33.638-6.847,21.1-11.352,42.974-16.328,64.643-1.125,4.9-.166,10.274-.166,18.229,6.191-4.4,11.212-6.76,14.562-10.578,11.923-13.586,23.406-27.568,34.713-41.674,1.752-2.186,2.377-5.8,2.382-8.761.017-10.5-.645-20.994-.671-31.492-.014-5.435-.171-11.4,6.465-13.792,6.315-2.274,10.274.873,13.936,5.805,5.612,7.558,11.779,14.7,19.224,23.888.116-15.8,9.636-15.537,19.938-15.435,15.812.159,28.021-8,38.114-19.315,8.736-9.794,16.829-20.16,25.263-30.227,2.356-2.812,4.575-5.9,7.45-8.085,5.766-4.374,14.467-1.626,13.728,4.679-1.246,10.641,5.51,12.576,12.649,15.157,2.152.778,4.254,1.692,7.123,2.843-.221-3.565-1.069-6.52-.381-9.062.728-2.69,2.918-4.984,4.469-7.453,2.507,1.89,6.2,3.284,7.251,5.786,1.674,3.966,2.121,8.677,2.111,13.071-.011,5.237,3.2,7.067,7,9.276,29.854,17.346,58.438,36.432,81.9,62.156a48.623,48.623,0,0,1,9.1,13.56c1.1,2.647-.879,6.578-1.468,9.931-3.009-.757-6.659-.681-8.914-2.416-9.354-7.2-18.09-15.2-27.435-22.416-7.487-5.779-13.231-4.68-15.435,4.539-3.75,15.685-6.866,31.807-7.579,47.864-1.206,27.18-.331,54.451-.331,81.683l2.948.679c1.759-2.391,3.5-4.793,5.279-7.172,11.069-14.82,25.186-21.914,43.835-16.832,3.99,1.087,6.294.2,8.165-3.487,2.846-5.61,6.114-11.007,9.2-16.5a13.857,13.857,0,0,0,1.079-2.1c2.057-5.836-7.99-37.724-13.412-40.783-2.057-1.162-5.587-.938-7.986-.073-14.114,5.092-24.26,15.161-33.194,26.832-1.813,2.368-5.23,3.513-7.908,5.221-.377-3.845-2.295-8.483-.8-11.362a52.841,52.841,0,0,1,12.005-15.442c7.472-6.465,15.432-12.768,24.143-17.3,10.627-5.526,19.444-2.255,25.22,8.375,3.966,7.3,6.574,15.336,10.073,23.724,3.72-6.541,6.514-12.974,4.556-20.449-5.627-21.492-11.457-42.931-17.066-64.426-1.389-5.323-5.139-11.747,2.172-14.917,1.273-.552,7.114,6.323,8.892,10.581,6.415,15.369,15.186,17.054,26.763,4.813,2.071-2.189,5.608-2.993,8.467-4.438.354,4.119,2.408,9.172.749,12.184-5.452,9.9-14.151,15.964-27.213,16,5.447,26.724,10.784,52.911,16.386,80.394,7.08-23.922,13.581-46.56,20.506-69.068,5.008-16.277,10.341-32.466,16.122-48.482,1.021-2.829,4.958-4.609,7.548-6.873,1.59,4.133,5.746,9.87,4.333,12.123-6.77,10.807-5.135,22.734-5.727,34.078-1.02,19.546-.283,39.184-.283,59.044,8.545-2.492,23.326-16.666,20.909-21.271-5.573-10.619-3.693-21.893-5.759-32.714-6.136-32.124-11.755-64.346-17.282-96.58-.577-3.364.809-7.065,1.285-10.609q1.392-.3,2.785-.592c1.947,2.506,4.447,4.754,5.75,7.56,8.4,18.073,15.936,36.612,30.555,50.978,1.231,1.209,2.426,3.255,2.331,4.833-.161,2.669-.814,5.73-2.415,7.678-.615.748-5.022-.427-6.609-1.9-3.978-3.7-7.332-8.061-12.457-11.749q4.8,35.07,9.6,70.138l2.421,1.039c11.645-20.821,24.173-41.208,34.686-62.584,10.429-21.2,18.83-43.4,28.161-65.262,7.52,2.408,7.983,7.8,7.821,13.031a30.116,30.116,0,0,1-2.4,9.883c-12.633,31.854-15.924,65.448-18.783,99.141-.731,8.617-1.567,17.237-2.822,25.786-.269,1.834-2.563,3.37-3.924,5.042-1.654-1.5-4.031-2.706-4.785-4.569a19.467,19.467,0,0,1-1.092-8.44c1.251-17.491,2.722-34.965,4.3-54.737-6.851,11.969-12.583,22.178-18.513,32.272-4.474,7.617-9.2,15.086-13.817,22.619-3.683,6.01-1.962,10.677,3.1,15.126,10.835,9.535,23.083,9.087,34.562,3.206,8.842-4.529,16.168-12,24.221-18.092,2.089-1.581,5.494-4.584,6.36-4.013,2.332,1.542,4.121,4.476,5.134,7.223.61,1.655-.167,4.246-1.115,5.983-14.576,26.708-18.394,56.56-25.146,85.542-1.892,8.12-3.2,16.375-5.1,26.218,6.845-5.627,12.224-10.721,18.311-14.745,2.665-1.762,6.776-1.34,10.231-1.91-.151,4.176-.191,8.361-.549,12.519-.069.8-1.289,1.634-2.134,2.233-14.9,10.561-26.476,23.786-33.659,40.775-.756,1.787-3.907,2.565-5.947,3.811-1.184-2.427-3.658-5.037-3.344-7.253,2.021-14.23,4.3-28.444,7.16-42.53,5.154-25.4,10.781-50.713,16.178-76.069a51.887,51.887,0,0,0,.432-5.312c-20.792,10.757-39.734,11.663-56.93-7.156.539,11.7,1.343,23.386,1.565,35.088q.831,43.723,1.173,87.456a140.767,140.767,0,0,1-1.291,21.992c-.45,3-3.45,5.619-5.29,8.411-1.963-2.894-5.453-5.686-5.655-8.7-2.338-34.846-6.811-69.332-15.723-103.161a19.308,19.308,0,0,0-3.673-7.934c1.487,13.174,2.834,26.365,4.495,39.518,2.2,17.427,4.674,34.82,6.96,52.235.306,2.334.8,4.909.123,7.029a10.356,10.356,0,0,1-4.319,5.7c-.877.468-4.069-1.836-5.144-3.551-5.559-8.871-10.1-18.464-16.33-26.8-4.712-6.3-11.437-11.108-18.413-17.657-5.939,15.061-12.447,27.781-15.723,41.285-1.986,8.184.077,17.794,2.007,26.385,3.589,15.971,8.762,31.583,12.45,47.536.816,3.529-.716,9.005-3.242,11.376-1.524,1.429-8.9-.18-10.449-2.53a167.262,167.262,0,0,1-14.861-27.532c-4.724-11.306-8.058-23.192-12.726-36.985-3.684,15.585-6.9,29.209-10.124,42.833l1.393.639c2.1-3.314,3.992-6.793,6.362-9.9,3.774-4.955,8.746-4.641,9.705,1.1,3.871,23.184,18.463,40.129,32.083,57.778,12.551,16.262,18.985,34.218,14.054,55.005l-.966,3.241m-374.2-248.732c10.628.85,15.337,9.389,21.742,17.827l8.33-46.839-2.838-.659c-1.918,7.248-2.83,14.974-6,21.622-4.127,8.646-13.029,8.332-21.291,8.027-4.839-11.328-.545-20.556,6.582-29.231,2.122-2.583,4.94-5.29,5.534-8.314,2.846-14.49,5.038-29.109,7.419-43.424-9.143,7.268-18.032,14.956-27.615,21.651-3.808,2.661-5.359,5.081-4.93,9.435,1.639,16.674,3.16,33.359,4.712,49.9,3.17,0,5.748,0,8.358.009M583.462,424.2c-2.5,3.156-3.816,4.762-5.074,6.412-13.758,18.041-28.9,34.692-47.869,47.479-8.363,5.638-13.117,13.75-13.23,23.461-.579,49.874-.677,99.753-.9,149.631-.07,15.642-.011,31.285-.011,46.927,16.789-15.59,34.909-25.1,58.566-23.046-9.275-17.256-19.272-32.761-23.073-51.118-2.222-10.73-5.759-21.19-7.953-31.924-.424-2.072,2.643-4.856,4.1-7.31,1.846,1.789,4.434,3.251,5.394,5.431,2.422,5.5,4.111,11.321,6.769,18.95,3.24-14.232,5.8-26.262,8.735-38.2,6.064-24.642,12.218-49.264,18.657-73.809.783-2.982,3.444-5.523,5.423-8.124,1.523-2,3.981-3.506,4.917-5.7q5.523-12.967,10.215-26.28c.725-2.052.934-5.475-.257-6.819-7.625-8.609-15.706-16.813-24.407-25.96M293.379,492.518c-5.1,1.826-8.3,2.715-11.277,4.087-10.631,4.9-13.918,3.254-17.68-7.833a12.918,12.918,0,0,0-6.605-7.093c-1.524-.612-5.311,2.192-6.91,4.328q-18.376,24.558-36.137,49.57a15.137,15.137,0,0,0-2.523,9.459c1.925,19,3.315,38.137,6.83,56.865,5.056,26.944,14.277,52.614,30.6,75.078,10.159,13.985,21.219,13,27.1-3.044,5.258-14.339,8.318-29.482,12.342-44.251l-10.46,1.636c-.466-3.727-.993-7.448-1.341-11.186-.062-.673.544-1.46.963-2.117,10.724-16.78,16.587-34.864,14.867-55-.043-.509.222-1.036.223-1.554.012-22.47.01-44.94.01-68.942M490.685,522.31c2.409-11.2,4.815-20.507,6.353-29.957,2.438-14.981,6.814-30.218,5.866-45.058-1.884-29.478-6.558-58.8-10.593-88.116-4.747-34.5-10.163-68.9-15.037-103.385-2.064-14.6-6.787-19.8-22.562-22.807,12.539,28.551,16.8,58.956,22.207,89.052A282.724,282.724,0,0,1,480.671,354c.155,2.435-3.108,5.087-4.8,7.639a68.016,68.016,0,0,1-6.892-6.011c-.913-1.018-.864-2.955-1.122-4.495-2.64-15.745-4.963-31.551-7.951-47.229-3.21-16.846-7.036-33.574-10.594-50.353l-1.975.207a45.808,45.808,0,0,0-1.15,5.936c-1.13,17.8-1.608,35.664-3.424,53.393-1.357,13.25,1.991,23.977,11.523,33.269a51.863,51.863,0,0,1,10.345,13.773c3.315,6.718,6.235,13.939,7.543,21.26,1.72,9.632-6.6,16.789-14.613,13.742-7.286-2.769-12.229-12.622-10.056-20.044,2.477-8.456,2.477-8.456-4.58-14.239a18.3,18.3,0,0,0-.379,3.121c1.257,21.2,2.968,42.385,3.691,63.6.481,14.093,5.621,25.705,13.108,37.527,11.181,17.652,20.23,36.654,31.338,57.215M230.762,366.825c-1.493-11.609-.908-12.232,13.2-14.989-1.381-8.173-2.453-16.435-4.26-24.532-1.182-5.3-.407-9.044,4.43-12.067a11.262,11.262,0,0,0,4.225-5.81c5.917-18.664,11.6-37.4,17.322-56.126.391-1.278.569-2.619.807-3.744-21.686,7.492-42.869,14.81-65.575,22.656l15.732,94.612ZM593.5,577.167c-6.713,14.807-13.991,30.463-20.916,46.273-4.962,11.327-2.945,20.218,6.907,30.769,3.382-16.743,6.4-32.864,10.059-48.841.754-3.292,3.872-6.045,5.9-9.048,1.791,2.607,4.147,4.99,5.271,7.857,4.362,11.114,8.354,22.374,12.428,33.6.7,1.938,1.9,4.137,1.515,5.922-.558,2.574-1.839,6.085-3.789,6.922-1.605.688-5.3-1.364-6.88-3.213-2.731-3.19-4.542-7.166-7.65-12.324-2.6,12.669-6.086,23.364-6.431,34.159-.154,4.835,6.585,9.6,9.023,14.927,1.321,2.887,1.319,7.59-.241,10.176-1.136,1.884-5.768,1.875-8.9,2.262-1.678.208-3.474-.528-5.887-.958v10.472c5.882-2.423,11.3-3.439,15.112-6.466,9.414-7.468,19.084-15.01,26.856-24.062,14.6-17.006,14.581-30.622,2.088-49.233-1.315-1.959-2.786-3.812-4.138-5.746-10-14.306-19.981-28.62-30.329-43.447m71.162-112.448c-3.549-46.071-7.237-93.944-10.809-140.319.493-.844-.228-.054-.466.862-7.684,29.618-15.269,59.261-23.064,88.849-.65,2.469-2.665,4.579-4.046,6.856-2.239-1.817-5.322-3.2-6.52-5.552-1.865-3.655-2.651-7.918-3.533-12-2-9.245-3.776-18.537-5.643-27.81l-2.852.179c0,5.053-1.1,10.412.209,15.1,3.734,13.348,8.257,26.491,12.9,39.562,1.361,3.832,4.166,7.151,6.31,10.7,2.2-3.486,5.109-6.718,6.452-10.507,4.371-12.325,8.059-24.891,12.3-37.266.673-1.967,2.821-3.431,4.288-5.127,1.421,1.34,3.854,2.517,4.1,4.047,2.056,12.655,2.447,25.334-.3,38.062h-7.7c-1.11,3.148-2.571,6.036-3.049,9.079-.34,2.157-.16,5.341,1.177,6.658,7.023,6.922,14.488,13.395,20.254,18.623M435.625,228.846c-17.516,20.8-31.11,43.827-59.135,51.6,8.119,5.976,16.416,10.353,24.605,14.922,1.935,1.08,4.509,2.489,5.083,4.289,3.488,10.932,13.883,13.922,21.878,21.367,2.552-31.081,4.97-60.53,7.569-92.18M306.827,568.18l1.88.7c18.3-27.888,36.6-55.775,55.621-84.768-15.9,3.138-30.568,5.408-45.406.987-1.227-.364-5.263,3.533-5.472,5.693-2.485,25.771-4.491,51.587-6.623,77.391M321.062,355.1c18.78-13.024,36.978-25.646,55.176-38.268l-.468-2.09c-26.008-3.677-37.7-25.28-54.708-41.65ZM530.53,276.077,489.7,249.284c5.994,39.712,11.664,77.27,17.334,114.828,1.52-15.831,1.9-31.557,3.589-47.141,1.653-15.219,4.573-30.328,19.908-40.894M428.884,431.357c-9.638-18.842-18.909-36.971-28.181-55.1q-.883.417-1.768.838,2.215,46.314,4.429,92.628l2.354-.142c4.938-13.543,3.84-30.428,23.166-38.225m-32.2-109.775c-9.34,6.366-8.935,6.089-2.788,15.05,8.278,12.069,15.971,24.547,23.684,36.992,3.876,6.253,7.242,12.821,10.78,19.141,0-14.773.132-29.083-.16-43.385-.039-1.877-1.881-4.156-3.51-5.492-9.1-7.457-18.382-14.682-28.006-22.306M237.277,381.69c-3.7,0-6.269.057-8.836-.013-6-.161-9.619.874-7.115,8.527,2.088,6.38,2.468,13.307,3.767,19.96,2.421,12.4,4.961,24.771,7.737,38.578,3.673-4.515,5.994-8.021,8.956-10.857,4.435-4.246,7.383-8.523,5.131-15.081-1.846-5.376-1.383-12.8-4.935-16.038-5.119-4.667-4.646-9.342-4.7-14.669-.033-3.3-.006-6.595-.006-10.407m107.745,20.976c-3.666,4.63-6.432,7.786-8.824,11.2C327.006,427,314.881,438.59,315.37,456.658c.126,4.625.766,7.865,5.194,9.082,4.916,1.35,10.014,2.039,14.485,2.908,3.363-22.25,6.551-43.345,9.973-65.982m179.687,63.917a195.632,195.632,0,0,0,46.155-46.677c-22.547-4.057-47.671,21.056-46.155,46.677M276.237,480.215c3.975-1.463,7.948-2.58,11.546-4.425,1.4-.72,3.113-3.464,2.723-4.632-2.942-8.8-5.833-17.707-9.855-26.042-2.392-4.958-7.073-8.246-15.171-5.058,3.552,13.259,7.047,26.3,10.757,40.157M687.918,373.846l-3.085-1.187c-2.137,3.716-6.572,7.838-6,11.073,2.083,11.715,5.848,23.133,9.082,35.043Zm-98.308,39.9,2.624-1.086,15.847,19.979,1.32-1.031c-3.527-10.634-7.055-21.269-11.1-33.478l-8.687,15.616M238.144,478.108c16.525-18.887,17.318-13.077,11.849-28.68-6.329,8.914-16.271,15.55-11.849,28.68M424.581,676.561c10.591-15.588,10.567-24.016,0-36.413ZM621.349,466.047l-2.681-1.1c-6.449,9.4-9.632,20.139-10.211,31.942q6.446-15.423,12.892-30.844M218.341,502.468l1.448,1.322,13.675-18.911c-11.064,1.483-10.357,11.532-15.123,17.589m-18.5-117.947-1.95,1.854,9.659,15.568c-2.555-5.83,3.237-16.61-7.709-17.422m107.207-39.542-1.912-.622q-2.183,11.037-4.363,22.075l2.947.531q1.664-10.992,3.328-21.984" fill="#bfbfbf"/>
    <path id="Path_4469" data-name="Path 4469" d="M646.844,668.689q.481-1.62.965-3.241,9.057-15.612,18.114-31.222c2.982-5.135,4.342-10.212,2.4-16.363-10.377-32.913-20.193-66-30.7-98.876-3.939-12.326-2.831-18.888,6.214-19.955,4.075-.481,9.033,1.879,12.789,4.228,10.449,6.537,20.354,13.935,30.7,20.643,17.9,11.607,36.469,13.281,56.07,3.863,3.632-1.746,9.906-2.432,12.744-.446,5.363,3.754,3.423,10.308.285,14.93-12.8,18.859-25.715,37.664-39.258,55.994-7.938,10.745-17.228,20.485-25.691,30.857-1.5,1.838-2.984,4.72-2.658,6.843,1.82,11.868,4.2,23.652,6.528,36.239,8.09-18.816,15.584-36.853,23.614-54.648a202.984,202.984,0,0,1,12.787-23.466c1.369-2.2,5.6-4.847,7.2-4.17,2.432,1.03,4.04,4.628,5.345,7.437.688,1.482.351,3.705-.131,5.423-7.824,27.893-2.494,55.106,4.2,82.234,2.6,10.557,1.515,17.374-3.772,17.657-9.213.493-9.679-7.928-11.043-13.738-2.986-12.715-4.768-25.712-7.011-38.6-.394-2.264-.64-4.554-1.091-7.819-7.67,10.124-7.184,23.314-16.377,32.521.143.541,1.475,2.726,1.076,4.529-2.708,12.26-5.361,24.567-8.994,36.567-1.074,3.546-5.249,6.155-8,9.193-2.57-3.189-6.807-6.085-7.429-9.616-3.136-17.79-5.306-35.75-7.874-53.641-.52-3.624-1.294-7.211-2.27-12.56L667.45,660c5.67,4.245,8.887,8.743,5.378,15.558-3.7,7.181-9.345,11.2-17.346,11.593-5.577.276-8.025-3.349-8.557-8.308a96.809,96.809,0,0,1-.081-10.154m83.785-113.632L730,552.648c-28.586,7.468-48.838-10.179-71.707-24.217,8.589,28.835,16.589,55.691,25.126,84.35l47.208-57.724" fill="#bfbfbf"/>
    <path id="Path_4470" data-name="Path 4470" d="M404.612,263.73l16.185-5.748c5.379-3.353,10.8-6.638,16.073-10.15a3.112,3.112,0,0,0,.407-3.033,4.075,4.075,0,0,0-3.389-1.164c-3.288,1.04-6.432,2.528-9.63,3.845-5.677.986-11.361,1.933-17.02,3.018-.565.109-.968,1.059-1.448,1.62L393.056,249.9l-9.827-3.568c9.926-3.295,7.541-10.145,7.6-16.137q3.469-5.87,6.935-11.739h0q3.369-9.759,6.738-19.521l-1.013,0q-.579.589-1.16,1.179.582-.59,1.16-1.179l1.013,0c3.455-6.6,7.414-12.994,10.239-19.854,3.774-9.172,6.869-18.643,9.853-28.113,1.33-4.222-.623-5.951-4.95-4.093l-27.81,7.787-22.984,7.313-9.392,4.583a56.977,56.977,0,0,0-5.8.738c-3.483.791-6.918,1.791-10.374,2.705a8.947,8.947,0,0,1,.142-1.068c6.659-3.281,13.289-6.62,20-9.794,1.278-.6,2.862-.558,4.306-.812L388.294,146.9c8.25-4.189,16.588-8.264,22.149-16.57-2.244-.832-4.392-1.34-6.162-.736-5.2,1.778-10.258,3.976-15.355,6.048-15.481,6.292-31.115,12.248-45.684,20.562L332.8,159.541q1.152.513,2.3,1.039c1.532.7,3.065,1.4,4.614,2.048-1.549-.653-3.082-1.351-4.614-2.048q-1.149-.523-2.3-1.039-1.676,1.145-3.35,2.292c-4.047-2.675-1.508-6.884-2.4-10.292q-.588-3.493-1.174-6.986l3.509-2.232h0c2.724-3.689,2.724-12.525,0-16.313.557-2.09,1.681-4.213,1.561-6.263-.315-5.45.039-10.39,5.444-13.424h0l4.569-3.393c4.289-2.936,8.581-5.871,14.014-9.589-4.928-1.868-7.437-6.622-11.669-1.967l-2.232-.078-1.229-1.011-13.8-.1h0l-18.625.017-25.49,5.753-15.057,3.534-24.329,6.9c-4.052.877-8.077,1.933-12.168,2.557-2.03.31-4.181-.174-6.278-.3q.521-2.28,1.043-4.562,0-3.458.01-6.916c1.024-3.823,2.488-7.267,6.983-8.107a11.529,11.529,0,0,0,3.227,1.016c12.823.066,25.65.088,38.473-.043a8.116,8.116,0,0,0,4.212-1.64c4.861-3.414,9.73-6.841,14.334-10.583,2.09-1.7,3.571-4.148,5.329-6.257l-7.655-2.133a42.1,42.1,0,0,1-6.666,1.067c-9.111.035-18.222-.16-27.333-.225-6-.043-12.005-.008-18.438-.008.591-3.971,1.213-7.12,1.492-10.3.32-3.653,1.962-5.684,5.769-5.647a7.472,7.472,0,0,0,1.714-3.371,7.467,7.467,0,0,1-1.714,3.371q9.828,1.175,19.654,2.346l3.487-.04q4.059.094,8.117.192l8.108-.187a81,81,0,0,0,34.732-8.012l5.824-1.253q5.137-2.328,10.274-4.656,5.841-2.852,11.685-5.7l8.093-5.772c2.636-2.134,5.4-4.132,7.827-6.484.729-.708,1.081-3.087.591-3.5a5.014,5.014,0,0,0-3.987-.979c-1.273.355-2.234,1.826-3.332,2.811l-10.412,3.487-30.054,9.3c-8.073.483-16.215.49-24.189,1.649-3.955.575-8.1-4.047-11.688.583l-16.218-2.255-2.322-1.075-3.632-2.522c1.536-.9,2.6-1.526,3.656-2.149l18.551-6.775q1.167-1.238,2.337-2.475L284.26,19.7c6.95-4.86,13.991-9.6,20.753-14.709,1.057-.8.837-3.285,1.208-4.992H301.59L291.182,5.768c-.021.208-.049.412-.078.616.029-.2.057-.408.078-.616L280.661,9.2c-2.3.855-4.569,1.844-6.919,2.54-6.521,1.931-13.078,3.741-19.621,5.6-11.536-.568-23.1-1.938-34.6-1.454A46.689,46.689,0,0,1,194.4,9.35C187.786,5.6,184.331,7.5,180.031,11.469c-2.026.45-4.967,1.982-5.929,1.172-5.822-4.9-9.528.389-13.936,2.31l.784.052-.783-.052q-7.529,2.333-15.055,4.666-1.08.543-2.156,1.088l-3.453,1.31-10.422,1.116-19.642,5.863-1.186-.084c-6.931-3.111-12.34,2.206-18.5,3.34-5.022.646-10.3,2.582-15.011,1.654-8.044-1.583-14.431,2.413-21.535,4.012-3.108.7-6.353.761-9.509,1.267-4.363.7-8.7,1.544-13.052,2.326l-5.865-1.2L1.887,60.043c-.5,1.7-1,3.4-1.887,6.4l26.03-2.891,9.458-1.2c1.722.122,3.823-.326,5.075.505a9.8,9.8,0,0,1,3.886,4.988c.36,1.256-.847,3.586-2.06,4.561-8.9,7.159-18.039,14.027-26.931,21.2-1.045.844-1.043,2.985-1.526,4.524l5.037.188,22.109-3.546h0c8.35-2.586,10.774-.964,10.491,7.027-2.691,2.28-2.69,4.583-.06,6.908-.383,1.262-1.193,2.571-1.06,3.775a54.677,54.677,0,0,0,1.619,6.939c2-.8,4.321-1.2,5.937-2.484,6.443-5.115,12.827-10.331,18.869-15.9,1.726-1.592,2.047-4.619,3.346-6.789a28.25,28.25,0,0,1,3.638-4.1l2.427,0,16.3-14.952,9.149-7.063,2.5-4.066-2.5,4.067,2.174,2.339c-2.892,2.144-5.758,4.325-8.682,6.424s-3.906,4.5-3.268,8.331c1.025,6.174,1.094,12.508,1.567,18.774-3.947,3.593-8.314,6.832-11.724,10.876-3.587,4.254-6.387,9.2-9.227,14.026-.612,1.038-.424,3.7.266,4.1,1.249.713,3.607.954,4.706.213,5.5-3.707,10.739-7.8,16.07-11.752l4.608,1.213q.024,2.874.049,5.748.563,4.631,1.13,9.261-.117,1.774-.233,3.55c1.413-.2,3.218.081,4.17-.689,3.836-3.1,7.409-6.523,11.079-9.827l-2.35-.024,2.35.024.035-.018c2.692-1.76,5.431-3.453,8.067-5.3,5.286-3.693,7.569-8.191,5.69-15.018-1.113-4.04-.306-8.655-.028-12.991.059-.93,1.56-1.767,2.4-2.646q.518.135,1.045.228.075,12.645.149,25.29c-.256,4.588-1.48,9.39-.526,13.711,1.214,5.486-1.079,7.685-5.369,9.375q-5.715,2.352-11.426,4.707c-4.875,1.538-9.812,2.9-14.612,4.65C100.754,156,91.745,159.526,82.7,162.96l-8.22,4.86-19.81,4.413c.751-3.338,1.668-7.4,2.584-11.464-.323.029-.75.047-1.159.066.409-.019.836-.037,1.159-.066l8.2-1.02,0,0c5.808-4.614,11.787-9.034,17.33-13.946a13.247,13.247,0,0,0,2.853-4.742l1.1-.833-.672-.113c.186-.406.375-.806.582-1.189-2.514-.229-5.027-.48-7.544-.659-.323-.023-.673.33-1.011.509l1.76.3-1.76-.3-12.665,2.364c.345,1.657.719,3.27,1.54,4.105-.821-.835-1.195-2.448-1.54-4.106l-3.5,1.161c-8.061-1.831-4.088-7.282-3.527-11.706-.578-6.12-1.813-6.734-6.841-3.3-1.25.854-2.34,1.94-3.521,2.9Q37.024,139.12,26,148.038L9.842,159.515c-2.472,1.55-5.213,2.811-7.319,4.758-1.272,1.176-1.557,3.418-2.285,5.181l6.021.64c6.324-1.058,12.705-1.863,18.952-3.263,4.152-.931,6.236.178,6.639,4.382q-1.134,14.454-2.269,28.906-.651,4.573-1.3,9.149-.517,5.233-1.039,10.466.563,2.331,1.128,4.663c1.851-.168,4.211.333,5.467-.618A136.635,136.635,0,0,0,49,210.93c1.984-2.021,2.415-5.566,3.552-8.419l-2.333,1.045-13.158,3.831,13.156-3.832,2.335-1.044c.014-.422.027-.844.042-1.267l.066-3.455c1.5-.2,3.389-1.054,4.432-.453,2.24,1.292,4.045,3.336,6.028,5.072l20.925,20.909c1.678,5.525,5.586,5.567,9.348,2.947a181.408,181.408,0,0,0,15.486-12.582c1.011-.884,1.124-2.792,1.651-4.228q-1.144,1.056-2.287,2.116c-.706-1.691-1.413-3.381-1.963-4.7.55,1.315,1.257,3.005,1.963,4.7q1.145-1.059,2.287-2.116l.042-3.561,17.357-1.244,3.519-.012q1.128-2.275,2.261-4.552.479-2.462.959-4.924-.48,2.462-.959,4.924-1.131,2.275-2.261,4.552c2.217,1.886,6.181,3.64,6.336,5.682.562,7.4-.156,14.887-.394,22.341l-10.629-3.609c-5.285-5.507-12.186-7.718-18.9-5.084-11.038,4.327-21.494,10.14-32.193,15.327h0q-2.82,1.248-5.644,2.493l-11.593,3.3-6.959,4.672-4.6,2.4c-.929.2-2.16.1-2.743.66Q30.955,265.5,18,278.4c-.813.813-.776,2.472-1.136,3.739a50.254,50.254,0,0,0-1.5,6.043c-1.386,11.238.474,15.471,8.356,19.486h0c6.871,7.834,15.869,8.995,25.517,8.107l11.539,1.131L71.2,313.487c2.645-.4,5.337-.6,7.926-1.232,9.8-2.4,19.76-4.506,26.838-12.674l10.4-4.67,9.232-9.231,7.05-4.474h0l8.305-8.785q.544.367,1.092.734-1.22,5.072-2.438,10.142a64.1,64.1,0,0,1-4.681,4.688c-5.733,4.706-11.559,9.3-17.35,13.93-1.174,2.584-2.628,5.092-3.363,7.794-.242.89,1.864,3.378,2.071,3.286,3.58-1.6,7.031-3.48,10.51-5.3l9.3-4.748c4.682-.348,3.98,2.747,3.738,5.693-.452,5.5-.784,11.006-1.166,16.51l2.276,1.343,7.823-6.1,20.882-12.774c-.039-.251-.079-.5-.119-.753-.08-.5-.16-1.013-.244-1.541.084.528.164,1.037.244,1.541.04.252.08.5.119.753,3.97-.739,6.1-2.62,5.3-7.129a89.031,89.031,0,0,1-.687-10.175q.024-1.1.049-2.2,2.684-5.427,5.37-10.855c.561.329,1.125.658,1.686.988-1.439,7.944-3.049,15.862-4.263,23.841-.872,5.737-1.215,11.555-1.795,17.335a105.787,105.787,0,0,0-2.526,10.4c-.87,6.07-1.334,12.2-1.97,18.3q-2.364,12.676-4.73,25.354v0c-1.014,1.615-2.661,3.141-2.9,4.864-.448,3.162-.066,6.441-.032,9.672l8.893-3.943-1.49-.132c1.591-1.073,3.166-2.175,4.737-3.282s3.142-2.218,4.72-3.312c-1.578,1.094-3.147,2.2-4.72,3.312s-3.146,2.209-4.737,3.282l1.49.132c7.6-4.8,15.252-9.527,22.758-14.472,1.5-.986,3.23-2.675,3.506-4.273,1.445-8.348,2.453-16.771,3.616-25.169q-2.319,8.057-4.639,16.116l-5.818,3.135,5.817-3.135q2.319-8.06,4.64-16.116,1.236-4.145,2.475-8.291,1.221-6.267,2.437-12.533l17.27-3.542c5.6-.953,11.168-2.135,16.8-2.781,3.713-.425,7.515-.08,12.093-.08-2.239,5.487-4.017,9.843-5.793,14.2a12.158,12.158,0,0,0-2.918,1.714c-7.668,8.116-15.339,16.233-22.786,24.55-.986,1.1-.722,3.319-1.036,5.022,4.653-.9,9.287-1.928,13.964-2.679,9.168-1.473,18.468-4.4,27.519-3.806,14.092.929,28.02,4.3,42.019,6.632h0c-3.117,2.154-6.164,4.421-9.367,6.438-5.912,3.724-5.962,6.793-.029,11.088l13.972,6.731q2.316-8.078,4.631-16.153L312.253,368l.907-1.332q-2.314,8.076-4.631,16.153c1.974.716,3.933,1.478,5.924,2.142,9.735,3.242,19.142,3.692,27.638-3.337q1.155-1.068,2.313-2.135c9.989-1.675,14.605-9.056,18.409-17.3,1.261-6.372,2.225-12.823,3.871-19.1,1.535-5.853-.866-8.953-6.144-10.244-11.142-2.725-22.342-5.212-33.519-7.8l-12.685-2.3c-1.216-2.329-3.943-5.316-3.284-6.831.934-2.146,4.367-3.206,6.731-4.73l-5.683-7.637q2.842,3.818,5.683,7.636.029.574.071,1.15L341.882,323.7l-13.644-8,13.644,8q1.32.029,2.644.062l14.947-10.314,1.134-2.355,4.659-3.431a15.277,15.277,0,0,0,3.866.687c6.822-.548,13.632-1.257,20.447-1.909l11.567,3.509,11.59-1.132q1.748-1.689,3.493-3.38l7.593-5.874q-3.786-1.793-7.572-3.583-13.895-1.057-27.792-2.112l-24.44,3.224-5.679,2.511c-4.221-.2-10.493,2.883-9.37-5.852,2.954-8.2,4.359-9.356,12.515-7.456,5.866,1.367,10.873.761,15.477-3.072a13.347,13.347,0,0,0,2.919-1.813c1.684-1.769,3.162-3.733,4.724-5.617l-6.461-2.666L360.3,269.9c.066-.993.165-2.439.263-3.885q2.34-3.96,4.678-7.922c10.685,2.832,20.8,8.392,32.421,6.742-.524-2.135-1.046-4.269-1.593-6.5.547,2.235,1.069,4.369,1.593,6.5l6.949-1.109M259.342,47.965a8.915,8.915,0,0,0,.343,1.9,9.735,9.735,0,0,0,.542,1.4,9.735,9.735,0,0,1-.542-1.4,8.915,8.915,0,0,1-.343-1.9m2.437,5.8a13.9,13.9,0,0,1-1.078-1.592,13.9,13.9,0,0,0,1.078,1.592m.933,1.109c.064.071.125.143.192.213-.067-.07-.128-.142-.192-.213m12.259-14.4h0c-.617.559-1.233,1.12-1.873,1.7l1.873-1.7m15.147-30.316a11.517,11.517,0,0,1-.928,1.81,11.517,11.517,0,0,0,.928-1.81M68.613,155.9l3.646-4.446L68.613,155.9m1.576-6.023a1.364,1.364,0,0,1,.424.213,1.364,1.364,0,0,0-.424-.213m12.652-10.3-2.06-.346,2.06.346m290.117,90.363a25.451,25.451,0,0,0,2.408,1.689,25.451,25.451,0,0,1-2.408-1.689m6.836-28.1.129.117-.129-.117m-10.022,18.779c-.519.186-1.446.177-2.075.311-.05.744-.1,1.487-.149,2.23q.076-1.115.147-2.23c.631-.134,1.558-.125,2.077-.311m31.387-18.2-13.925-2.308,13.925,2.308m1.156-3.468c.009-.116.016-.238.021-.365.012-.253.018-.525.022-.806.005-.422.007-.865.009-1.3,0,.433,0,.876-.009,1.3,0,.281-.01.553-.022.806-.005.127-.012.249-.021.365m2.432-6.049a7.377,7.377,0,0,0,1.511-.962,7.377,7.377,0,0,1-1.511.962m4.542-10.115c-.2,2.934-.366,5.838-1.922,7.971,1.556-2.133,1.727-5.037,1.922-7.972,2.336-5.314,4.658-10.634,7.014-15.939-2.356,5.305-4.678,10.625-7.014,15.94m-32.479-20.86c.686.571,1.5,1.056,2.137,1.661C378.307,162.978,377.5,162.493,376.81,161.922ZM360.1,174.473c-.686.264-1.345.543-1.974.847a12.289,12.289,0,0,0-5.758,5.125,12.289,12.289,0,0,1,5.758-5.125c.629-.3,1.288-.583,1.974-.847m-.642-7.912h0l-18.5,5.785,18.5-5.785m-104.9,25.782a6.526,6.526,0,0,0,.861-3.534,6.523,6.523,0,0,1-.861,3.534m-45.7,50.632h0a38.28,38.28,0,0,0,13.672-19.85c.492-1.736.3-3.664.426-5.5v0c2.222-2.4,3.419-.857,4.494,1.165h0q2.308,6.807,4.621,13.615c-1.587,3.426-.931,6.207,2.369,8.229q-1.175,2.239-2.349,4.477c2.311-.031,4.622-.093,6.932-.081-2.31-.012-4.621.05-6.932.082l-3.335,1.285-8.22,4.506q-1.2,5.214-2.388,10.427,1.194-5.214,2.388-10.427c-1.164-.3-3.267-.46-3.343-.937-.571-3.566-2.793-3.563-5.5-3.059-1.673.311-3.378.458-5.069.678q-.555,1.7-1.112,3.392.558-1.7,1.112-3.392,1.118-2.3,2.233-4.6m22.739-28.289a4.192,4.192,0,0,0,.6.067,4.192,4.192,0,0,1-.6-.067m8.4-17.724c-.011.01-.023.02-.032.03l.032-.03m-7.894,3.906a7.13,7.13,0,0,0-1.336-.81,7.13,7.13,0,0,1,1.336.81m.629.536a10.092,10.092,0,0,1,1.715,2.178c.482-.325,1.022-.6,1.527-.913-.5.308-1.045.589-1.527.914l-2.292,1.434,2.292-1.434a10.1,10.1,0,0,0-1.715-2.179m5.309-1.143a7.209,7.209,0,0,1-.762,1.325,7.209,7.209,0,0,0,.762-1.325m9.143-12.9-3.532-1.108Zm-3.452,57.844,1.125,0-1.125,0c-1.622,2.656-2.862,4.26-4.164,4.958,1.3-.7,2.542-2.3,4.164-4.958M239.12,213.6c-.393.1-.792.227-1.2.375a15.016,15.016,0,0,0-3.724.562,15.016,15.016,0,0,1,3.724-.562c.406-.148.805-.272,1.2-.375a11.336,11.336,0,0,1,3.376-.372,11.336,11.336,0,0,0-3.376.372m-6.919,1.156a6.474,6.474,0,0,0,1.169-.074,6.474,6.474,0,0,1-1.169.074m7.119-1.773c-.353.266-.709.525-1.069.77.358-.245.716-.5,1.069-.77m15.961-25.59h0l5.815-.983-5.815.984M294.234,140.8a16.667,16.667,0,0,1,.217,2.12,16.667,16.667,0,0,0-.217-2.12m16.4,19.984a2.748,2.748,0,0,0,1.294,1.291,2.748,2.748,0,0,1-1.294-1.291,4.752,4.752,0,0,1,.22-3.492,4.752,4.752,0,0,0-.22,3.492m13.08-20.87q.709.009,1.424.008-.714,0-1.424-.008m4.433.01c-.1,0-.2,0-.292,0,.1,0,.194,0,.292,0m-33.524-9.19q.658-2.329,1.314-4.657h0q-.656,2.328-1.314,4.657c1.96,1,3.933,1.967,5.9,2.955C298.559,132.706,296.586,131.735,294.626,130.739Zm3.5,65.872h0c-1.242-.809-2.491-1.608-3.733-2.414,1.242.806,2.491,1.6,3.733,2.414m4.619,20.841a9.41,9.41,0,0,1-.042-1.134,9.41,9.41,0,0,0,.042,1.134m6.5-5.34c-.512.081-1.043.134-1.576.184.533-.05,1.064-.1,1.576-.184m19.992-72.168h0q.067,1.158.137,2.314-.07-1.156-.138-2.314m-8.663-48.992c-.2.041-.39.089-.584.135.194-.046.388-.094.584-.135m-.877.2a12.931,12.931,0,0,0-2.189.769,12.931,12.931,0,0,1,2.189-.769M315.688,93a8.815,8.815,0,0,0-1.355,1.29A8.815,8.815,0,0,1,315.688,93m-71.921,27.3c-2.854-1.156-3.973-2.782-3.54-5.083-.433,2.3.686,3.927,3.541,5.083l39.393-9.1h0q12.063-1.263,24.129-2.522l2.308.037,1.287,1.156c.086-1.464.351-2.978.5-4.46a16.928,16.928,0,0,0,.1-2.189,16.928,16.928,0,0,1-.1,2.189c-.149,1.482-.414,3-.5,4.46q-1.16,1.74-2.322,3.48,1.161-1.74,2.322-3.48l-1.289-1.156c-2.892,2.107-5.664,4.407-8.7,6.284-8.874,5.488-10.6,10.011-7.411,20.316q-.055.49-.091.982v0q-.5,6.971-1.007,13.937.545,1.809,1.091,3.617c2.733-3.77,6.353-5.661,10.272-6.916-3.919,1.255-7.539,3.147-10.272,6.916,0,.358-.006.716-.01,1.074q.6,1.233,1.205,2.467l3.545-1.234-3.545,1.235c-1.24.474-3.091,1.4-4.229,1.8,1.138-.4,2.989-1.328,4.229-1.8q-.6-1.234-1.205-2.466c-1.968,2.938-3.722,3.346-5.946.03-2.416-3.608-5.273-6.922-7.938-10.364-.033-.43-.064-.859-.1-1.288h0q-2.847-9.181-5.691-18.365-.063-1.8-.125-3.6h0c-1.588.037-3.647-.555-4.686.219-5.184,3.856-10.172,7.988-15.036,12.242-.812.709-.678,2.5-.981,3.787-2.031,9.91,2.023,18.5,6.712,26.53,4.185,7.162,9.716,13.539,15.09,20.855l-3.272,1.29h0l-9.18-.079h0c-2.771-.375-5.6-1.291-8.3-1.014-5.873.6-9.919-1.062-11.446-7.118-.07-8.615-1.232-10.324-8.15-10-2.371.11-4.659,2-6.984,3.077-2.77,3.428-8.8,4.324-8.121,10.432l-2.256,10.406-2.3.1-1.2-.069-12.814,1.136q-2.265.531-4.527,1.065l-5.815-2.176q.027-4.641.055-9.282.546-1.164,1.1-2.329l1.215-6.923q5.211-10.989,10.42-21.978l-3.154-.979,3.154.979q5.224-7.468,10.453-14.937,1.187-2.9,2.375-5.8l4.526-5.841q1.2-5.509,2.4-11.019-1.2,5.509-2.4,11.02c8.479,2.145,15.724-1.868,23.218-4.642m33.245,20a19.052,19.052,0,0,1-3.663-8.929,19.052,19.052,0,0,0,3.663,8.929m-69.13,61.146c.2.417.389.832.542,1.243-.153-.411-.339-.826-.542-1.243m-.313-.627c-.318-.628-.647-1.257-.919-1.879l-1.836-3.394,1.836,3.394c.272.622.6,1.251.919,1.879m6.852,1.48-1.945-1.2,1.945,1.2m2.1-78.709c-.289.49-.588.979-.831,1.474.243-.495.542-.984.831-1.474m.546-.984c.242-.671.482-1.342.728-2.021-.246.679-.486,1.35-.728,2.021-.082.165-.171.33-.263.493.092-.163.181-.328.263-.493M182.8,40.5c1-5.2,3.747-6.834,8.96-6.129,8.5,1.15,17.069,1.837,25.625,2.473,2.192.163,4.451-.593,6.679-.927h0l3.47,1.133-5.809,5.761c.328.3.658.608.983.911-.325-.3-.655-.607-.983-.912-3.866,8.3-5.405,8.88-18.583,6.994-.587.573-1.147,1.187-1.712,1.794.565-.607,1.125-1.221,1.712-1.794L190.5,50.985,180.03,49.644c0-.344.011-.69.021-1.035.94-2.7,2.212-5.334,2.747-8.111m38.222-9.209.97,1.475-.97-1.475m3.87,14.451c-.647-.6-1.324-1.225-2.011-1.862.687.637,1.364,1.264,2.011,1.862M210.1,62.81c-1.11.709-2.2,1.447-3.293,2.193,1.089-.746,2.183-1.484,3.293-2.193m-9.9-9.945c-.2.2-.4.388-.614.572.209-.184.414-.376.614-.572m-15.962,191.8c-1.295,1.841-2.687,5.795-6.515,2.919-.671-6.05,1.512-9.874,8.048-10.3,3.226,3.17-.166,5.44-1.533,7.386m-5.832,27.815q-.1.393-.2.771.1-.378.2-.771m-32.165,25.369a14.961,14.961,0,0,1-.332,2.053,14.961,14.961,0,0,0,.332-2.053m14.1-54.956h0q-.612,1.245-1.226,2.49l-11.5,11.358,11.5-11.358-9.983,4.788c-.446-1.558-.933-3.254-1.42-4.95h0l12.627-2.328m-8.078-55.871a5.678,5.678,0,0,0-1.868-.3,5.678,5.678,0,0,1,1.868.3M142.984,61.3h0L132.53,74.1h0L131.4,69.4c2.53-2.278,2.605-4.582.071-6.913L142.984,61.3m-19.495,15.26a16.757,16.757,0,0,1,2.157-.833,16.757,16.757,0,0,0-2.157.833m13.773-33.781c-.034.211-.05.424-.073.636.022-.212.039-.425.071-.636l.658-.416-.656.416m-10.1-.17c.438-.207.877-.4,1.323-.579-.446.174-.885.372-1.323.579m-15.6,41.182c-.336-.555-.668-1.113-1.007-1.666l-5.715,8.066,5.715-8.066c.339.553.671,1.111,1.007,1.666m36.989,93.866a5.259,5.259,0,0,0-.592-.475,5.259,5.259,0,0,1,.592.475m-3.239,8.542c1.25.748,2.853.561,4.4.523-1.548.038-3.152.226-4.4-.523M142.377,222c.331-.463.687-.913,1.062-1.353.935-1.1,1.978-2.146,3.005-3.208q1.159-1.731,2.323-3.462-1.162,1.731-2.322,3.462c-1.028,1.062-2.071,2.106-3.006,3.208-.375.44-.731.89-1.062,1.353a14.415,14.415,0,0,0-.91,1.437,14.415,14.415,0,0,1,.91-1.437m4.4-2.224q.405,2.853.809,5.706l-3.857,4.109,3.857-4.11q-.405-2.852-.809-5.705M163.816,23.1q-.123,1.083-.248,2.165.123-1.083.248-2.165m.176,152.036c-.112.1-.111.328-.152.51.041-.181.04-.407.152-.51m16.038-125.5c.615.8,1.228,1.6,1.682,2.189-.454-.59-1.067-1.389-1.682-2.188ZM165.467,19.692c.508-1.422,1.069-2.861-.071-3.756,1.142.894.58,2.334.071,3.756m-16.19,12.824a5.251,5.251,0,0,0-1.857-4.122,5.251,5.251,0,0,1,1.857,4.122m-.5,2.072h0a7.111,7.111,0,0,0,1.049.121l.1-.046,3.479-6.9-3.531-3.512,3.531,3.512-3.479,6.9,12.352-8.493c.219,2.744.353,4.414.487,6.083h0l-6.928,4.707-11.7,4.689q-1.752-.5-3.5-1h0q-.574-.66-1.149-1.32h0q4.646-2.367,9.289-4.736M105.924,40.5h0c-.409.041-.819.091-1.227.142.408-.051.818-.1,1.227-.142M40.652,93.455c.02.064.042.129.062.193-.02-.064-.042-.129-.062-.193M82.771,67.086c-2.607-.533-5.778-.523-4.581-4.731.281-.694.987-1.564.781-2.056-2.172-5.2,1.279-5.6,4.968-6.337,3.518-.709,6.914-2.025,10.363-3.074l5.827-1.194c1.256-1.567,2.46-3.182,3.787-4.688-1.327,1.506-2.531,3.121-3.787,4.689l20.849-4.64,1.29.051h0c-.055.375-.12.749-.192,1.121l-6.882,5.893a4.416,4.416,0,0,1,1.047,2.783,4.424,4.424,0,0,0-1.047-2.783L82.771,67.086m31.552-5.551.877.941-.877-.941m-9.611,44.851c.031-.374.061-.747.094-1.12-.033.373-.063.746-.094,1.12q-1.728,1.745-3.454,3.491,1.726-1.746,3.454-3.491M136.3,119.379a4.509,4.509,0,0,0,.4-.387,4.509,4.509,0,0,1-.4.387m.672-.73c.479-.738.425-1.648-.978-2.961-1.379-.074-2.784-.033-4.164-.108,1.38.075,2.786.034,4.166.108,1.4,1.313,1.455,2.223.976,2.961m-1.877-19.273q-.13-2.271-.265-4.544c-.23-.493-.655-1.182-.892-1.68.237.5.663,1.187.892,1.68q.134,2.272.265,4.544m10.62-5.794-1.592,1.278h0l1.592-1.277m-13.186,61.846a16.4,16.4,0,0,0-1.66-.447,16.4,16.4,0,0,1,1.66.447m-50.64,14.7-1.478-1.558,1.478,1.558M60.773,173.5l5.29-2.19-5.29,2.19-5.536,3.9ZM108.241,204c.138.119.287.237.44.355-.153-.118-.3-.236-.44-.355m20.609-17.185c-2.549-.344-5.247.418-7.876.672l-8.014,1.044-5.874,1.18,2.062.744-2.062-.744c-.953.074-1.91.111-2.864.17.954-.059,1.911-.1,2.864-.17l5.873-1.18c-4.124-.226-8.278-.871-12.363-.57-4.933.363-16.033-5.567-17.713-10.232-.163-.45.689-1.265,1.07-1.911q1.177-.51,2.356-1.02h0c12.322-4.347,24.629-8.729,36.974-13.013,2.672-.927,5.469-1.5,8.208-2.235h0c.736-.184,1.482-.337,2.207-.558,6.7-2.036,6.592-2.028,7.347,5.162.209,1.989,1.267,3.89,1.935,5.831l-1.113,5.844a12.648,12.648,0,0,1,5.255.868,12.648,12.648,0,0,0-5.255-.868c-.316,10.549-2.64,12.386-13.017,10.984m9.378,55.921a4.589,4.589,0,0,0-2.013,1.154,4.589,4.589,0,0,1,2.013-1.154m5.909,3.633q.564-.6,1.127-1.2-.564.6-1.127,1.2h-9.269a6,6,0,0,1,.938-2,6,6,0,0,0-.938,2h9.269m-9.852-.58q-.875-.868-1.749-1.737.873.869,1.749,1.737M123.8,273.315c-1.847-2.084-3.588-3.793-6.4-3.863,2.81.069,4.551,1.779,6.4,3.863m-45.065-30.5q-.154-.163-.323-.322.168.159.323.322m.718,1.011c-.038-.082-.081-.163-.128-.243.047.08.09.161.128.243m-.17-.317,0-.006,0,.006m-31.6,51.876,6.19-.472-6.19.472m59.527-2.665c-1.77,1.82-3.724,3.3-7.029,2.257-.389.081-.78.161-1.17.243l6.218,3.9-6.217-3.9-3.678-1.505c-5.04,1.073-10.04,2.457-15.132,3.1-2.911.367-5.974-.474-8.969-.771-.168.3-.362.763-.537,1.106.175-.343.368-.8.537-1.106l-17.383-4.642v0c-.614-1.153-.966-2.742-1.927-3.322-6.181-3.733-5.567-9.421-4.716-15.227.223-1.515.577-3.009.871-4.513q-2.349,2.9-4.7,5.792,2.348-2.9,4.7-5.792,4.6-4.656,9.2-9.312h0l4.816-2.492,6.774-4.355c0-.4,0-.8.006-1.205q.579-4.044,1.155-8.089-.576,4.044-1.155,8.089c0,.4,0,.8-.006,1.205q-3.387,2.177-6.775,4.357l29.853,2.441c5.755,2.365,11.156,5.414,17.946,2.343,3.831-1.734,6.006,1.417,6.4,8.176q-1.12,2.889-2.237,5.779l-2.337,6.752h0c-3.27,1.627-6.775,2.915-9.736,4.981-2.539,1.771-4.456,4.434-6.647,6.7q1.839.753,3.677,1.5c.39-.082.781-.162,1.17-.243,3.305,1.043,5.259-.437,7.029-2.257.592-.607,1.162-1.252,1.754-1.854-.592.6-1.162,1.247-1.754,1.854M70.43,297.571a1.006,1.006,0,0,0,.169-.231,1.006,1.006,0,0,1-.169.231m107.283-22.355-2.349,1.161-3.89-3.249,3.89,3.248,2.349-1.16h0c3.279-.069,5.333.435,5.822,2.638a5.579,5.579,0,0,1,.11,1.377,5.579,5.579,0,0,0-.11-1.377c-.489-2.2-2.543-2.707-5.822-2.637m-17.485-50.7-13.755,6.967c.457,1,.912,2,1.54,3.379-.628-1.375-1.083-2.377-1.54-3.378l-3.56-.164,3.56.163,13.757-6.968q-3.793.9-7.588,1.8c2.639-3.661,5.793-6,8.741-8.573,2.31-2.014,3.334-4.089-1.049-4.808-1.1,4.721-4.4,7.217-7.944,9.46,3.546-2.243,6.842-4.739,7.945-9.461q.561-2.368,1.124-4.736l2.337-20.814q.02-5.847.038-11.695c8.715-6.991,10.094-11.125,6.926-20.775q.035-1.594.065-3.187h0c.53-1.717,1.517-3.432,1.514-5.146-.012-7.6-.307-15.2-.5-22.794q.114-8.691.23-17.382l11.433-5.837q-.621-6.99-1.243-13.982c-11.631,2.309-11.556,2.1-10.7-9.6.447-6.112,2.4-8.214,8.8-7.782,7.188.486,14.482-.576,21.73-.965,1.872-.394,3.917-.44,5.581-1.258,3.227-1.587,6.241-3.609,9.342-5.45q-2.307,8.55-4.615,17.1L182.26,86.588q.621,6.989,1.243,13.98L202.327,97.1c-.5,5.31-.963,10.2-1.427,15.084,2.891,1.524,5.429,4.309,8.9,4.925-3.47-.616-6.008-3.4-8.9-4.925l-.045,19.672-8.059,13.9c-3.549,5.54-7.135,11.057-10.633,16.629-1.563,2.491-2.953,5.091-4.422,7.641-1.086,2.244-2.514,4.391-3.186,6.752-1.431,5.025-2.47,10.161-3.67,15.251-.709,4.129-1.868,8.246-1.964,12.389-.06,2.561,1.279,7.253,2.367,7.366,4,.416,8.159-.682,12.257-1.211h0c.361-.027.724-.039,1.087-.036L203.2,208.2h2.287l15.149-2.466c1.37,1.458,2.737,2.917,4.686,5l-11.863,2.012c-5.193.581-10.51.639-15.55,1.848-12.627,3.03-25.128,6.58-37.68,9.922m61.193,88.3a4.148,4.148,0,0,1-.074-1.293,4.148,4.148,0,0,0,.074,1.293,3.459,3.459,0,0,0,.563,1.248,3.459,3.459,0,0,1-.563-1.248m-.06-1.405a7.615,7.615,0,0,1,.205-1.088,7.615,7.615,0,0,0-.205,1.088m.4-1.758q.132-.428.278-.858-.146.431-.278.858m12.687-6.957q-5.8,1.349-11.6,2.712a6.95,6.95,0,0,1-.278,1.7,6.942,6.942,0,0,0,.278-1.7l-7.189-.835c-.789-10.344,1.752-14.027,9.461-14.21,1.88-1.979,3.759-3.959,5.765-6.074l-5.763,6.074,15.074,2.21a16.047,16.047,0,0,0,1.045-5.678,16.076,16.076,0,0,1-1.044,5.679l3.522-1.133,8.172-5.69,3.379-1.133q2.857.567,5.72,1.131c.026.358.052.714.073,1.071l3.622,4.477-3.622-4.476q-1.179,4.68-2.361,9.359c-6.9,6.592-16.1,4.617-24.259,6.515m5.892-18.613a5.388,5.388,0,0,1,.784,1.922,5.388,5.388,0,0,0-.784-1.922M305.418,357.6c1.1-2.478,2.682-1.731,4.268-.962-1.586-.769-3.168-1.516-4.268.962m-.315.844c-.369.048-.738.086-1.11.114.372-.028.741-.066,1.11-.115h0m10.368,6q-1.7-3.5-3.406-6.994,1.7,3.5,3.406,6.994m20.857-20.907c2.258,1.006,4.715,1.718,6.731,3.081,3.738,2.527,5.843,5.57,3.687,10.628-2.065,4.845-3.129,10.116-4.631,15.2-8.279,2.6-14.629-1.641-20.974-5.9L314,359.718c4.806-3.01,8.63-5.206,12.2-7.753,1.235-.88,1.845-2.632,2.738-3.986l-4.216-2.253q-5.691-1.208-11.383-2.412l-11.686-2.184c-.7,1.465-1.338,3.8-2.07,4.918.732-1.114,1.366-3.453,2.069-4.917l-12.78-2.168H252.746a10.025,10.025,0,0,1,1.125-2.605c4.977-6.763,10.1-13.422,15.04-20.208,1.857-2.551,3.687-4.516,7.085-2.654h0l15.77,4.015c-.283,1-.538,1.887-.793,2.78.053.077.1.161.154.24-.052-.079-.1-.163-.154-.24-2.318,11.769-1.581,15.557,9.381,16.314l3.633-4.424c-1.406,1.713-2.519,3.068-3.633,4.423l13.868,1.138,2.437,1.1,19.668,4.7c-.657-2.438-1.139-4.959-1.825-7.384.686,2.425,1.168,4.946,1.825,7.384m-46.271-43.089h0m29.5-2.943c-3.066.53-5.829,2.825-8.729,4.333h0l-15.088-1.154h-.011l-16.12-1.069c-3.763-6.179-.52-12.341.046-18.509h0c2.12-3.854.467-6.753-2.374-9.35l-2.306,1.268-4.644,2.214h0c-6.469,3.183-13.093,4.95-20.272,2.451a9.4,9.4,0,0,0-2.848-.068l-13.832-1.285q-1.764.079-3.529.162-.042-2.919-.083-5.84c2.068-5.6,5.887-6.344,11.5-5.359,11.215,1.968,22.584,3.051,33.883,4.54a9.7,9.7,0,0,1,2.131.816l10.418-2.305L285.724,265l1.97,3.356c10.94-1.937,21.777-4.093,29.073-13.732l11.366-1.934c-6.552-6.823-11.8-2.615-17.063-.6l-22.248,3.433c-5.153-.262-10.313-.424-15.455-.823-3.349-.26-6.672-.866-10.005-1.318h0l-8.081-2.543-3.44-1-3.271-4.145,8.915-10.752q-1.715-8.186-3.431-16.374l-4.566-12.68,3.461-2.354q-1.15-4.029-2.3-8.059,1.15,4.029,2.3,8.059l5.816-2.207c.174-.777.347-1.553.522-2.338-.175.785-.348,1.561-.522,2.338l13.858,2.185,1.278-.02c4.854,1.3,11.524.824,9.032,9.266q.012,2.813.026,5.625v0c-1.543,4.527-3.069,9.059-4.635,13.576-1.864,5.374.618,5.721,4.782,4.165-.019-.458-.039-.915-.057-1.373-.112-.09-.237-.182-.37-.276.133.094.258.186.37.276.018.458.038.915.057,1.373q9.217-5.87,18.434-11.742L305.01,222l10.49-4.428q1.689-6.968,3.38-13.936.024-2.924.05-5.846l-3.439-.014q-.588-4.617-1.177-9.234.584-1.745,1.17-3.489-1.154-.579-2.311-1.156l2.311,1.155c1.115,1.1,2.192,2.243,3.323,3.323-1.131-1.08-2.208-2.222-3.323-3.322q-.584,1.744-1.17,3.489.59,4.617,1.177,9.234l3.439.014,4.7-5.784,3.429-1.161,13.918-4.678h0l8.083-3.419,2.346-.081h0l12.687-4.472L383.8,171.19c-1.062-1.746-2.071-3.529-3.163-5.253,1.092,1.724,2.1,3.507,3.164,5.253l2.228,1.23h0q-.555,2.258-1.111,4.517-5.142,11.022-10.285,22.046-1.2,3.573-2.39,7.147-5.254,10.863-10.507,21.724l-3.465,12.693q-2.309,4.7-4.621,9.394-.562,1.674-1.126,3.347-.58,1.731-1.159,3.462-1.758,2.863-3.514,5.728h0q-6.909,17.393-13.82,34.785l-1.208.074c.939,1.942,2.044,3.833,2.88,5.806-.836-1.972-1.941-3.864-2.881-5.8-4.434-.006-8.967-.574-13.273.171m23.231-119.7a9.015,9.015,0,0,0-.74,1.63,8.984,8.984,0,0,1,.74-1.63m-1.047,2.663c-.034.132-.064.264-.094.4.03-.133.06-.265.094-.4m-6.625,117.184a6.275,6.275,0,0,0,1.97.222,6.275,6.275,0,0,1-1.97-.222m2.022.224c2.271-.118,4.261-1.429,6.3-2.546-2.036,1.117-4.026,2.428-6.3,2.546m21.99,11.174c-.938-1.293-1.891-2.61-2.9-4,1.009,1.393,1.962,2.71,2.9,4" fill="#e6e6e6"/>
    <path id="Path_4471" data-name="Path 4471" d="M140.633,40.644q1.752.5,3.5,1l11.7-4.689-6.013-2.251a7.277,7.277,0,0,1-1.05-.121l-9.288,4.737,1.149,1.32" fill="#e6e6e6"/>
    <path id="Path_4472" data-name="Path 4472" d="M348.979,238.8c-2.726-1.615-5.025-3.724-5.764-3.274-2.215,1.347-3.819,3.695-5.662,5.652l1.228,1.238,10.2-3.616" fill="#e6e6e6"/>
  </g>
</svg>
