<?xml version="1.0" encoding="UTF-8"?>
<svg id="Layer_2" data-name="Layer 2" xmlns="http://www.w3.org/2000/svg" viewBox="0 0 642.89 518.62">
  <g id="Layer_1-2" data-name="Layer 1">
    <path d="m244.16,259.29c-1.66.94-2.43,1.21-2.97,1.71-14.11,13.2-24.88,11.26-30.63-7.2-3.97-12.75-4.93-26.45-6.97-39.77-.53-3.48-.08-7.12-.08-10.95-17.47-4.7-32.98-1.1-47.34,8.06-19.96,12.74-35.48,30.12-49.66,48.78-5.82,7.66-10.26,7.86-16.01.21-8.44-11.24-12.25-24.06-12.36-38.02-.08-10.16-.02-20.31-.02-28.95-10.03,8.42-20.61,17.3-32.37,27.17,2.27,3.15,5.8,8.2,9.46,13.14q8.84,11.92-.25,23.28c-1.56,1.94-3.25,3.76-6.19,7.14-5.19-4.46-10.51-8.56-15.26-13.24-4.91-4.83-9.28-10.22-14-15.49-5.74,4.25-11.23,8.32-16.74,12.4-5.36-7.94-3.46-12.34,10.06-24.91-16.97-45.7,2.27-83.07,28.41-118.4,9.54-12.9,20.82-24.53,31.62-36.47,2.91-3.22,6.69-5.88,10.52-7.98,8.78-4.81,15.49-1.01,14.95,9.22-.62,11.84-2.82,23.6-4.34,35.39-.17,1.35-.4,2.69-.75,4.99,2.12-1.25,3.54-2.09,7.22-4.27-1.85,15.86-3.5,30.02-5.42,46.41,10.77-18.59,15.93-38.45,30.51-52.27,1.16.38,2.32.76,3.47,1.14-2.37,12.71-4.74,25.42-7.17,38.48,6.58-.33,9.38-3.02,10.04-9.5,2.17-21.02,3.79-41.94,0-62.99-1.72-9.56,7.09-26.91,15.58-32.76,4.21,7.73,7.96,15.79,12.77,23.17,7.14,10.97,17.21,16.78,30.91,15.86,11.14-.75,12.08,1.02,8.65,11.82-6.18,19.47-13.42,22.85-36.13,19.27-4.56-.72-9.02-2-14.17-3.17-1.07,10.01-2.03,18.98-3.21,30.05,11.95-2.82,22.49-5.32,33.01-7.81,4.03,18.9-5.57,33.89-22.11,36.58-15.25,2.47-21.53,8.97-24.66,23.95-.89,4.24-2.27,8.38-3.39,12.57-1.05,3.92-2.06,7.84-1.72,12.47,8.7-7.9,17.17-16.06,26.14-23.63,14.04-11.86,29.95-19.8,48.42-22.58,2.41-.36,5.37-4.89,6.01-7.92,2.84-13.53,4.45-27.33,7.46-40.81,2.03-9.13,5.08-18.15,8.79-26.75,2.05-4.74,6.39-8.5,9.7-12.7,1.04.29,2.09.58,3.13.88v38.67c.97.07,1.94.15,2.91.22,10.39-23.66,21.79-47.04,17.5-74.39-.94-6.02-1.08-12.16-2.01-18.18-1.13-7.36.08-13.25,6.61-18.12,6.61-4.92,11.48-4.34,12.77,4.35,2.02,13.58,3.74,27.58,2.62,41.16-1.2,14.42-5.87,28.55-9.02,42.79,11.56,2.11,17.62-2.92,18.59-14.81.94-11.53,2.47-23.12,5.21-34.33.92-3.75,6.45-9.07,9.73-8.96,6.01.19,7.34,6.32,6.96,12.06-.82,12.42-1.55,24.86-2.36,38.04h16.63c-1.32-11.64-2.02-23.22-4.09-34.55-1.75-9.53.25-16.4,8.38-22.17,5.81-4.13,8.52-2.8,9.92,3.33,1.23,5.37,2.85,10.92,2.6,16.31-.38,8.06,2.33,14.53,6.84,20.77,2.26,3.13,3.95,6.68,5.99,9.97,10.4,16.75,10.93,14.33-2.31,33.48-1.11,1.61-4.58,2.47-6.84,2.27-9.66-.83-19.26-2.25-28.9-3.3-2.69-.29-5.43-.04-9.31-.04,0,7.45.07,14.02-.01,20.6-.43,35.8-.79,71.68-8.68,106.76-2.04,9.07.43,14.52,5.96,20.4,17.98,19.13,39.55,30.12,66.28,29.78,2.49-.03,5.01.14,7.48.5,7.66,1.12,10.03,4.82,7.43,12-1.6,4.41-3.43,8.8-5.71,12.89-6.23,11.22-13.92,17.71-28.82,17.71-18.84,0-36.18-3.92-53.57-9.76-3.65-1.23-7.39-2.2-11.65-3.46-1.44,13.9-2.82,27.26-4.44,42.97,15.24-1.02,29.45-1.82,43.63-2.98,5.23-.43,10.4-1.7,15.6-2.57,5.6-.94,8.09,1.16,8.33,7.11.79,19.74-11.69,34.96-32.08,38.01-6.84,1.03-13.81,1.23-20.73,1.64-21.44,1.26-35.8,10.81-38.22,32.76-.32,2.88-2.96,5.44-4.2,8.29-2.46,5.67-4.7,11.44-7.03,17.17.57.41,1.14.82,1.71,1.23,10.94-6.15,21.86-12.34,32.83-18.43,35.04-19.44,72.26-32.5,112.09-37.61,4.95-.63,5.96-2.47,6.8-7.1,2.99-16.54,6.97-32.89,10.24-49.38,1-5.06,1.59-10.39,1.22-15.51-1.94-26.56-4.23-53.1-6.45-79.64-.18-2.14-.79-4.24-1.37-7.24-3.93,2.17-7.32,3.8-10.47,5.82-25.59,16.4-63.58-1.92-64.62-36.98-1.55-52.15,20.44-93.06,62.81-122.34,6.65-4.59,18.97-1.74,28.56-1,4.33.33,8.41,3.92,12.65,6.06,5.41-18.83,10.41-22.33,28.7-21.34,5.98.32,8.98,2.22,7.55,8.6-.48,2.16-1.32,4.44-1.02,6.52.98,6.7-4.53,12.81,1.31,20.71,3.51,4.75-.34,14.94-.93,22.69-.27,3.52-.66,7.04-1,10.55.91.75,1.82,1.49,2.73,2.24,2.14-3.03,4.37-6.01,6.42-9.1,9.35-14.1,19.46-27.78,27.61-42.54,3.65-6.6,2.6-15.62,4.98-23.13,3.74-11.8,7.89-23.59,13.21-34.74,3.26-6.83,10.17-6.97,14.89-1.06,1.78,2.23,2.34,6.41,1.77,9.38-2.92,15.42-6.37,30.73-9.64,46.08.9.45,1.81.91,2.71,1.36,3.39-3.37,6.52-7.05,10.21-10.04,8.15-6.59,16.14-13.54,25.03-18.98,6.77-4.15,11.35-1.01,9.88,6.78-1.16,6.16-4.6,12.35-8.46,17.44-4.13,5.45-9.96,9.59-14.99,14.38-1.45,1.38-2.67,3-5.55,6.27,4.88,0,7.5.2,10.08-.03,21.27-1.92,41.44,3.07,61.04,10.39,14.24,5.31,21.49,16.09,23.34,31.5,2.48,20.68-5.07,37.68-17.56,52.89-11.97,14.57-23.34,30.34-37.94,41.8-9.65,7.58-11.9,16.57-15.72,26.07-11.12,27.6-28.61,51.25-47,74.23-1.65,2.06-7.39,3.06-9.81,1.81-4.45-2.3-5.88-6.73-2.79-12.02,7.12-12.21,14.56-24.32,20.46-37.12,5.04-10.93,9.4-22.51,11.69-34.26,2.12-10.87-3.81-15.61-15.12-14.69-16.31,1.33-29.94,8.91-40.55,20.65-3.29,3.64-2.26,11.36-2.79,17.25-.77,8.55-11.86,15.05-19.4,11.53-19.72,22.96-25.25,49.72-20.85,79.99,25.26-7.18,50.46-14.69,75.86-21.41,11.74-3.1,23.82-5.12,35.87-6.71,4.64-.61,5.67-2.67,7.07-6.33,5.53-14.41,10.61-29.12,17.68-42.78,3.63-7.02,10.42-13.02,17.05-17.66,4.31-3.02,10.92-2.76,17.91-4.28-7.54,35.05,3.25,63.16,20.46,89.55,3.76,5.76.89,9.5-2.37,13.25-11.16,12.81-25.49,19.02-42.37,20.13-3.07.2-6,2.51-9,3.84,2.22,2.98,3.87,6.77,6.76,8.79,6.99,4.89,16.52,2.01,22.99-4.84,9.04-9.58,18.79-18.49,28.24-27.68,1.03.59,2.06,1.19,3.09,1.78-.15,1.94.45,4.45-.55,5.72-17.38,22.12-35.41,43.65-60.52,57.63-14.42,8.03-23.26,6.31-33.16-5.34-13.42,12.7-26.3,26.09-40.54,37.84-6.95,5.73-16.07,9.88-24.87,12.08-10.48,2.62-16.94-4.91-16.72-15.84.35-17.38,3.24-34.14,10.02-50.21,3.64-8.63,8.18-16.37,17.01-20.74.97-.48,1.52-1.84,3.41-4.26-3.43.51-5.17.52-6.75,1.03-16.07,5.22-32.03,10.82-48.21,15.65-6.06,1.81-5.17,6.54-6.07,10.46-4.48,19.39-8.33,38.94-13.18,58.24-1.73,6.87-5.15,13.46-8.66,19.7-5.5,9.77-10.33,11.94-23.08,11.78,5.63-22.53,11.24-44.94,16.66-66.6-16.28,0-31.75-1.1-47.01.2-48.98,4.2-90.85,27.07-131.83,51.89-4.99,3.02-9.94,6.09-14.89,9.16-12.62,7.82-21.29,6.35-31.85-4.94-17.23-18.4-26.38-40.09-27.04-64.7-9.52,7.45-18.78,15.51-28.86,22.38-11.66,7.94-25.65,10.53-38.16,4.81-18.69-8.55-38.01-18.25-46.75-38.66-17.11-39.99-6.26-69.56,33-88.37,13.94-6.68,31.01-.56,39.22,12.34-7.24,11.86-15.02,22.78-31.8,20.2-1.53-.23-4.23,1.42-5,2.91-8.17,15.68-8.66,33.46-3.24,48.6,7.34,20.5,27.5,23.61,45.12,10.59,9.79-7.23,11.86-18.57,14.36-29.91,3.26-14.82,2.69-29.11-1.42-43.5-10.6-37.12-44.91-45.8-71.21-41.19-8.9,1.56-17.28,5.91-26.13,8.08-6.02,1.48-12.6,2.58-18.62,1.71-9.79-1.42-11.69-9-4.67-16.17,2.1-2.14,4.65-4.24,7.4-5.28,26.68-10.13,53.48-20.2,82.44-21.19,24.91-.85,45.71,7.65,59.94,28.84,5.98-7.23,11.92-14.41,18.03-21.8,8.5,6.81,6.42,13.9,5.97,20.6-1.05,15.75-2.14,31.5-1.49,48.05,1.58-2.31,3.11-4.66,4.75-6.93,10.85-15.07,21.43-30.33,32.72-45.07,4.09-5.34,9.89-12.21,17.32-7.95,6.63,3.8,4.08,11.75,2.59,18.28-2.9,12.67-5.73,25.34-8.86,39.21,6.29-.69,11.83-1.3,17.9-1.96,6.95-34.75,4.06-68.7-5.36-102.97Zm333.69-27.03c5.67-7.42,12.53-15.44,18.27-24.19,6.64-10.12,13.43-20.41,18.09-31.5,5.1-12.13,1.95-21.4-7.74-28.62-20.41-15.2-42.93-11.11-65.2-5.82-5.03,1.19-7.4,6.14-4.66,11.43,6.36,12.26,12.39,24.75,19.8,36.37,4.72,7.41,8.61,14.1,5.41,20.37,5.9,8.09,10.76,14.74,16.03,21.96Zm-297.85-7.43c.71-6,1.43-9.75,1.54-13.51.62-21.09.97-42.19,1.67-63.28.29-8.68,1.25-17.34,1.78-26.01.14-2.26.67-5.48-.53-6.57-1.36-1.24-4.71-1.34-6.74-.63-9.42,3.28-18.72,6.94-28,10.6-10.96,4.33-11.06,4.41-8.75,16.31,3.52,18.2,7.61,36.3,10.63,54.57.89,5.4.18,11.74-1.89,16.79-3.05,7.46-9.28,8.39-16.14,3.99-3.09-1.98-6.28-3.8-9.84-5.94-.52,13.79,5.36,25.61,12.77,28.82,8.3-9.69,16.17-19.19,24.38-28.39,5.45-6.1,8.83-5.52,12.59,1.44,1.79,3.32,3.65,6.61,6.53,11.8Zm141.25-58.92c-.49-.22-.98-.44-1.47-.66-.86-7.08-.43-14.65-2.89-21.13-3.66-9.63-11.93-14.11-22.53-13.78-12.56.39-20.87,6.81-25.49,18.1-5.71,13.98-6,28.76-4.69,43.44,1.1,12.23,9.75,20.08,22.42,22.25,12.34,2.11,20.96-1.61,25.9-14.19,4.25-10.82,5.92-22.65,8.73-34.04Zm-372.87,22.17c2.67-5.61,4.44-8.98,5.89-12.47,6.58-15.85,14.09-31.41,19.22-47.71,3.42-10.87,4.23-22.78,4.69-34.29.36-9.18-4.88-11.49-12.07-6-4.8,3.67-9.41,7.9-13.09,12.66-14,18.13-22.95,39-26.06,61.34-1.65,11.82,2.19,24.52,4.35,36.68.92,5.17,4.55,6.92,9.99,3.77,8.13-4.72,16.7-8.69,24.98-13.16,1.26-.68,2.48-2.21,2.88-3.58,1.59-5.53,2.85-11.16,4.74-18.83-7.6,9.06-11.39,19.44-25.51,21.59Zm158.71,292.57c7.38-15.52,14.24-29.96,21.39-45-18.74-2.67-26.97-11.93-26.58-28.99.23-10,1.73-19.97,2.74-30.72-29.69,33.37-29.14,71.86,2.46,104.71Zm317.52-267.47c-5.94-16.19-12.05-32.85-18.76-51.16-2.6,1.85-8.18,3.66-9.04,6.77-6.62,23.99-10.8,48.47-11.77,74.09,14.03-10.53,27.4-20.57,39.56-29.7Zm12.57,191.84c2.22-8.92-2.23-11.35-9.74-10.31-7.77,1.08-15.5,2.48-22.89,3.68.32,4.48,1.02,7.46.65,10.3-1.16,9.01-2.67,17.98-4.12,26.96-1.42,8.79,5.56,14.83,13.87,11.92,17.1-5.99,29.16-24.21,28.02-42.55h-5.8Zm-95.49-114.55c4.31-5.23,8.47-9.33,11.44-14.15,2.73-4.43,5.19-9.48,6.02-14.54,3.56-21.79,6.2-43.73,9.72-65.52,1.78-11.01,4.72-21.84,7.37-33.8-6.7,1.6-11.94,2.84-17.42,4.15,0,15.43.57,30.12-.16,44.74-.72,14.38-6,26.77-19.23,34.69-1.88,1.12-3.57,4.69-3.31,6.88,1.43,12.05,3.49,24.03,5.56,37.55ZM106.68,155.37c-16.21,32.73-19.45,55.45-1.68,75.18,4.08-12.37,8.04-24.39,12.02-36.48-10.4-2.38-13.99-7.64-12.91-18.22.7-6.84,1.71-13.65,2.57-20.48Zm484.7,206.13c-7.84,4.67-11.42,8.76-9.25,15.07.7,2.04,4.22,5.03,5.42,4.61,3.56-1.24,9.27-3.93,9.29-6.09.03-4.25-3.21-8.52-5.46-13.6ZM225.24,163.6c-5.13,6.96-4.7,14.91,1.19,21.71,6.11-4.72,5.73-11.73-1.19-21.71Z"/>
  </g>
</svg>