<svg xmlns="http://www.w3.org/2000/svg" width="204.451" height="212.781" viewBox="0 0 204.451 212.781">
  <g id="Group_59" data-name="Group 59" transform="translate(-12754.487 -15812.001)">
    <path id="Path_3287" data-name="Path 3287" d="M169.771,326.227c.087.936.174,1.87.281,3.033,1.01-.146,2.049-.24,3.061-.46,1.038-.225,1.432.161,1.407,1.166-.023.936.054,1.882-.051,2.808a1.433,1.433,0,0,1-.706,1.033,1.719,1.719,0,0,1-1.225-.32c-.3-.187-.43-.65-.724-.875-.432-.332-1.174-.9-1.378-.767a6.069,6.069,0,0,0-1.371,1.647c-1.056,1.5-.338,3.222-.506,4.834a2.9,2.9,0,0,1-1.54,2.164c-.345.223-1.414-.182-1.793-.616-.542-.627.01-1.143.7-1.417,1.882-.749,1.972-.854,1.156-2.785a19.575,19.575,0,0,0-1.813-3.212,1.375,1.375,0,0,0-1.171-.524,2.949,2.949,0,0,0-1.481,1.107,13.041,13.041,0,0,0-1.143,2.706,5.3,5.3,0,0,0-.02,1.45c-1.084.647-1.087,1.982-1.207,3.238a3.712,3.712,0,0,1-1.578,2.772,18.888,18.888,0,0,0-1.893,1.99c-.995,1.023-2.118.668-3.192.2-1.01-.442-2.143-.885-1.818-2.353.263-1.192.616-2.363.918-3.545.133-.522.263-1.046.35-1.575.143-.87-.317-1.217-1.133-1.312a10.885,10.885,0,0,1-1.427-.358c-.015-.13-.028-.261-.043-.394a14.33,14.33,0,0,0,1.936-.54c.309-.13.708-.54.706-.821a12.333,12.333,0,0,0-.345-2.432,2.051,2.051,0,0,0-.921.1,9.641,9.641,0,0,0-1.243.831c.417,1.166.064,1.962-1.591,2.327.765-2.031,1.435-3.816,2.141-5.693a1.228,1.228,0,0,0-1.78.32c-1.215,1.361-1.5,1.3-2.621-.1a14.622,14.622,0,0,1-1.683-2c-.212-.394.113-1.072.189-1.624.064-.465.312-1.038.128-1.368-.164-.292-.816-.422-1.24-.4-.151.008-.338.662-.381,1.036a8.972,8.972,0,0,0,.074,1.274c.064,1.928-.2,2.289-2.056,2.348-1.578.051-3.164-.082-4.744-.09-.591,0-1.184.187-1.772.176-2.616-.041-2.151-.018-2.847-2.235h.985a4.472,4.472,0,0,0,.6,1.182c.1.107.811-.095.857-.261a2.7,2.7,0,0,0,.005-1.4,11.1,11.1,0,0,0-.79-1.678c.957-.519,1.724-.977,2.233.427a5.625,5.625,0,0,0,1.028,1.78,1.328,1.328,0,0,0,1.184.368,7.962,7.962,0,0,0,1.455-1.432c-.476-.353-.77-.573-1.2-.893.448-.591.893-1.182,1.368-1.813.726.471.887.916.486,1.624-.128.225.115.662.189,1,.32-.107.734-.13.936-.348a2.235,2.235,0,0,0,.437-1.046c.184-.905.018-1.913.98-2.56.136-.09-.1-.737-.171-1.125a6.616,6.616,0,0,0-1.066.251,12.827,12.827,0,0,0-1.384.711,2.793,2.793,0,0,0-.982.644,3.073,3.073,0,0,1-4.11.437,3.105,3.105,0,0,0-4.289-.44c-.5.307-1.192.407-1.555.813a20.237,20.237,0,0,0-2.118,2.926c-.118.189.3.67.384,1.036a4.177,4.177,0,0,1-.008.962c-.3-.01-.609-.018-.913-.033-.038,0-.074-.051-.115-.054-1.6-.1-2.992-.366-4.059-1.893-.588-.841-1.719-.315-2.125.757a2.941,2.941,0,0,1-.777,1.02,3.732,3.732,0,0,0-.478-1.041c-.68-.752-1.24-1.729-2.54-1.529-.212.033-.486-.335-.731-.517.2-.248.358-.614.619-.724,1.038-.44,2.113-.8,3.384-1.271a3.8,3.8,0,0,1,.051,1.286c-.317,1.036.258,1.322,1.064,1.417.632.074,1.279.01,1.913.077a1.972,1.972,0,0,1,1.015.348c.793.66,1.555.573,1.969-.373.465-1.061.463-2.379,1.775-2.951.118-.051.074-.473.1-.724.133-1.113.269-2.228.4-3.327-.547.107-1.422.279-2.3.453l-.315-.345c.657-1.13,1.373-2.23,1.939-3.407.189-.391-.018-.974-.043-1.468-.422.148-1.008.174-1.233.471-.506.667-.777,1.506-1.246,2.207a1.594,1.594,0,0,1-2.153.714,14.819,14.819,0,0,0-2.327-.573c.289.969.537,1.8.849,2.859,1.389-.391,3.112-1.35,4.074.483a9.4,9.4,0,0,1-1.711,1.8,4.606,4.606,0,0,1-2.166.473c-.2.005-.465-.675-.609-1.074-.1-.266.033-.611-.056-.882-.1-.292-.289-.706-.514-.762a1.294,1.294,0,0,0-1.008.253c-1.133.992-1.074.969-1.729-.4a2.557,2.557,0,0,0-1.445-1.176c-1.051-.309-2.2-.284-3.258-.565a9.458,9.458,0,0,1-1.951-1.084,20.389,20.389,0,0,0,1.852-2.115,1.14,1.14,0,0,0-.217-1.1,5.173,5.173,0,0,0-1.5-.534c-.2.642-.215,1.473-.609,1.739a7.96,7.96,0,0,1-2.967,1.3c-1.578.274-1.657-1.453-2.517-2.23.951-.09,1.977-.754,2.542.662.061.153,1.054.123,1.442-.11.223-.133.269-.939.087-1.276a6.939,6.939,0,0,0-1.34-1.363c1.136-1.028,2.251-2.018,3.338-3.036a2.7,2.7,0,0,0,.76-1.01,1.191,1.191,0,0,0-.179-1.026,1.027,1.027,0,0,0-.98-.128c-.918.6-1.752,1.325-2.662,1.939-.22.148-.785.166-.9.018-.524-.673-.946-1.43-1.588-2.445.734.128,1.136.174,1.524.274.716.184,1.212.087,1.458-.742a1.013,1.013,0,0,0-.737-1.458c-.716-.251-1.412-.558-2.033-.806a8.773,8.773,0,0,0,.788-1.847c.061-.317-.348-.731-.56-1.092-.033-.059-.153-.064-.23-.1-.813-.414-1.519-1.32-2.522-.082-.279.345-1.348.054-2.056.054q-.6,1.744-2.76,1.138c.517-1.274-.136-1.442-1.2-1.217-.6.128-1.041-.051-1-.754.038-.609.1-1.171,1.023-1.069,1.043.115,2.243.376,2.864-1.419-1.552-.056-2.928-.22-4.289-.128-2.563.171-3.6-.483-4.376-2.959-.3-.941-.079-1.6.946-1.6,1.5.005,2.008-.872,2.409-2.107.2-.624.841-1.095,1.125-1.708a6.289,6.289,0,0,0,.593-2.1,5.541,5.541,0,0,0-.407-1.593c-.215-.867-.179-1.657.371-1.995a7.351,7.351,0,0,0,2.087.762,1.472,1.472,0,0,0,1.6-1.586c-2.547.243-3.348-2.028-5.033-3.327.458-.281.747-.46,1.138-.7-.286-.256-.478-.578-.706-.606-1.483-.176-2.667-1.373-4.368-1.033-.719.143-1.632-.685-2.591-1.133.783-.734,1.031-1.445.23-2.284-.473-.494-.21-1.005.414-1.143a3.094,3.094,0,0,0,2.266-1.207c.153-.233,1.156.026,1.744.166.98.233,1.939.552,2.905.834l.276-.468c-.284-.465-.57-.931-.76-1.24.5-1.555.974-3.018,1.417-4.488a.875.875,0,0,0-.074-.724c-1.018-.987-2.049-1.967-3.146-2.862-.289-.235-.826-.166-1.251-.238a3.948,3.948,0,0,0,.43,1.33c.668.826,1.514,1.512,2.159,2.353a1.975,1.975,0,0,1,.084,1.335,8.166,8.166,0,0,1-.529,1.7c-.128.309-.381.8-.581.8a1.928,1.928,0,0,1-1.294-.419c-1.059-1.084-1.79-1.064-2.637.435a20.857,20.857,0,0,0-2.176-1.8,5.887,5.887,0,0,0-1.777-.506c-.358-.084-.951,0-1.049-.194a3.241,3.241,0,0,1-.345-1.66c.013-.166.811-.435,1.194-.363.655.12,1.251.54,1.9.7a20.105,20.105,0,0,0,2.312.3c-1.072-2.143-2.5-2.729-4.951-2.11.35-.754.839-1.338.818-1.9-.018-.489-.614-.957-.977-1.463a1.136,1.136,0,0,1,2.005.056c.207.309.228.744.44,1.049.34.488.749,1.266,1.161,1.286a2.667,2.667,0,0,0,1.852-.808,35.2,35.2,0,0,0,2.389-3.179c1.726.918,3.389,1.8,5.13,2.731-.788.734-1.621,1.368-.737,2.407a2.421,2.421,0,0,0,.793.555c.621-.7,1.192-1.437,1.829-2.24l1.688-.2c-.905-2.355-2.389-2.563-4.054-1.854-.509-.816-.959-1.534-1.407-2.253l.107-.32,1.519.675a6.28,6.28,0,0,0,.849-.716,1.088,1.088,0,0,0,.294-.772c-.138-.857-2.954-2.256-3.76-1.872-1.4.668-.054,1.166.253,2.015a7.9,7.9,0,0,1-1.55.046,5.019,5.019,0,0,1-1.159-.522c-1.511-.706-1.542-.8-.716-2.281-.854-1-1.685-2.046-2.606-3.01-.655-.685-1.463-.44-2.013.379a6.151,6.151,0,0,1-1.366,1.4c-.159.12-.637-.043-.862-.215-.1-.077-.023-.634.136-.747.864-.616,1.486-1.6,2.783-1.575a6.033,6.033,0,0,0,2.685-.527c.338-.164.5-1.171.371-1.706a12.579,12.579,0,0,0-1.087-2.391l.322-.325c.3.235.857.463.864.708.033.941.665,1.015,1.33,1.256a16.353,16.353,0,0,1,2.2,1.22,8.032,8.032,0,0,0,.721-1.453c.468-1.506,1.107-2.752,2.916-2.944.32-.033.593-.483.887-.742-.317-.225-.614-.6-.957-.65-.749-.113-1.673-.409-1.9.806a.31.31,0,0,1-.159.192c-1.092.483-2.187.959-3.371,1.476-.051-.859-.051-1.673-1.279-1.366-.274.069-.818-.379-1.01-.719a1.56,1.56,0,0,1,.107-1.049c.545-.023,1.292-.125,1.606.182,1.156,1.12,1.45,1.176,2.685-.018.146-.141.317-.335.494-.353,1.652-.169,2.811-.793,2.54-2.292A27.156,27.156,0,0,0,101,237.775c.251-.169.261-.7.384-1.059-.5-.018-1.146-.246-1.471-.015a3.313,3.313,0,0,1-4.841-.673c.655-1.332,1.274-2.6,2.033-4.146a4.854,4.854,0,0,0,.263.757c.253.343.524.673.79,1.005.246-.223.7-.455.691-.67-.018-.45.169-1.24-.806-1.054-.115.023-.335-.169-.409-.312-.5-.954-.98-1.061-1.716-.238a1.715,1.715,0,0,1-2.113.668,1.171,1.171,0,0,0-.982.325c-.836.885-1.491.309-2.066-.248-.616-.6-.529-1.159.118-1.849a11.744,11.744,0,0,0,1.877-2.826c.187-.379-.128-1-.215-1.517-.32.2-.629.524-.967.558-.445.046-1.1.02-1.33-.256-.355-.427-.376-1.113-.634-1.645-.243-.5-.624-.931-.91-1.412a2,2,0,0,1-.419-.982c.023-.33.348-.639.54-.957a6.23,6.23,0,0,1,.793.854c.394.616.591,1.437,1.118,1.87a1.355,1.355,0,0,0,2.261-.289,4.723,4.723,0,0,1,1.91-1.2c-.65.834-1.077,1.486.141,2.212.6.355.059,2.614-.621,3.419-.325.386-.583.829-.962,1.376,2.251.583,2.831-.749,3.159-2.089.706.243,1.519.777,1.8.573a9.316,9.316,0,0,0,1.642-2.13c.639.095,1.806-.148,1.435,1.506-.041.182.473.683.742.691a1.938,1.938,0,0,0,1.35-.417,3.138,3.138,0,0,0,.581-3.563,2.328,2.328,0,0,1,.217-2.711c.581-.7.2-1.381-.78-1.481a17.513,17.513,0,0,0-2.031.095c-.962.018-1.228-.45-.816-1.3a2.225,2.225,0,0,1,.558-.841,2.526,2.526,0,0,0,1.008-3.005l3.325.376c-.043-.982-.056-1.857,1.095-2.13a4.4,4.4,0,0,0-.207-1.78c-.118-.3-.691-.432-1.128-.68.471-.969.921-1.847,2.332-1.6-.09,1.5.87,2.187,2.072,2.714.563.246,1.187.471,1.049,1.376-.026.174.729.642,1.138.66a1.557,1.557,0,0,0,1.192-.6,4.222,4.222,0,0,0,.563-1.806,2.212,2.212,0,0,0-.381-1.325,21.812,21.812,0,0,1-1.908-2.944,8.235,8.235,0,0,0,1.665.266,18.037,18.037,0,0,0,3.468-.368c.754-.182.824-.852.151-1.332-1.046-.747-1.246-1.453-.276-2.476.307-.322.174-1.066.24-1.616l-.026.028c.588-.051,1.176-.138,1.765-.141a2.407,2.407,0,0,1,.752.271c-.084.22-.1.522-.263.645-1.082.839-.627,1.6.072,2.363.632.693,1.228,1.422,1.9,2.069.246.235.772.476.992.366a1.345,1.345,0,0,0,.619-.987,19.578,19.578,0,0,0-.194-2.274,8.322,8.322,0,0,1,.026-.944,3.3,3.3,0,0,1,1.074.066c.545.225,1.013.644,1.563.857a2.04,2.04,0,0,0,1.294.089c.2-.069.4-.87.286-.959a3.385,3.385,0,0,0-1.184-.43,5.435,5.435,0,0,0-.578-.095c.072-1.079.419-2.5-1.266-2.389a11.955,11.955,0,0,0-3.151,1.251c.322-.742.524-1.253.765-1.747a12.024,12.024,0,0,1,.826-1.527,6.845,6.845,0,0,0,.967-4,19.2,19.2,0,0,0-.233-2.12l1.02-.079a19.5,19.5,0,0,0,.373,2.609c.1.371.581.639.887.954.3-.358.818-.7.849-1.079a10.943,10.943,0,0,0-.251-2.266,1.2,1.2,0,0,1,1.033-1.5,1.283,1.283,0,0,1,1.657,1,1.046,1.046,0,0,1-.169.877c-.969.864-.363,1.529.243,2.151a14.143,14.143,0,0,0,1.481,1.156q.744-2.294,1.432-4.427c.5-.412,1.064-.806,1.547-1.281.568-.558.941-.307,1.128.269a3.476,3.476,0,0,1-.079,1.12c-.033.772-.788,1.8.749,2.049.182.028.271.611.4.939l-.271.271-3.486-1.962c.225,1.141.353,1.8.529,2.7l3.026.187.245.506c-.376.292-.752.586-1.136.885a2.313,2.313,0,0,0-3.578-.368.712.712,0,0,0-.235.606.784.784,0,0,0,.57.343c1.619.2,3.245.345,4.864.545a1.338,1.338,0,0,0,1.412-1.744,1.814,1.814,0,0,1-.059-1.12c.969-1.847.992-1.834-.9-2.693a5.319,5.319,0,0,0,.335-1.783,3.239,3.239,0,0,0-.908-1.463c-.683-.749-1.765-1.258-1.558-2.506a1.552,1.552,0,0,1,.714-1.031c.2-.095.9.3.959.568a5.115,5.115,0,0,0,2.414,3.082c.276.192.381.7.471,1.084.261,1.13.537,2.187,1.841,2.637.289.1.371.747.591,1.118a9.158,9.158,0,0,0,.637.847c.3-.258.742-.46.887-.788.731-1.65.079-2.568-2.008-2.875-.256-.683-.65-1.348.269-1.949.153-.1.079-.752-.069-1.066a5.71,5.71,0,0,0-.839-1.072l.192-.376c.33.128.824.161.959.4.414.731,1.026.893,1.581.455.675-.532.12-1.038-.322-1.463a5.78,5.78,0,0,1-.422-.611,7.542,7.542,0,0,1,1.394-.115c1.371.164,2.737.381,4.1.578.322-2.414-1.491-1.616-2.581-1.887.256-1.118.488-2.138.721-3.156l-.5-.238A17.588,17.588,0,0,0,143.355,183c-.3.55-.535,1.005-1.217.688a5.689,5.689,0,0,1-.949-.7,6.7,6.7,0,0,1,1.084-1.33c.453-.338,1.125-.368,1.593-.693,1.427-.987,1.407-1.018,2.453.4-.8,1.7-.21,2.91,1.463,3.11.852.1,1.271-.269,1.153-1.059a1.56,1.56,0,0,1,1.087-1.88c2.4,2.325,3.7,2.514,4.4.642,1.57.261,2.008.777,1.731,2.143-.317-.015-.714-.151-.956-.013-.271.151-.619.616-.555.834.289.985.711,1.928,1.217,3.225a10.679,10.679,0,0,0,1.276-1.824c.642-1.545,1.128-1.916,2.87-1.887.793.013,1.588,0,2.345,0-1.872-1.54-3.581-2.944-5.286-4.353-.13-.107-.215-.333-.35-.358-1.691-.315-1.013-1.32-.836-1.949l3.76,1.054a.258.258,0,0,1,.026.153c-.079.494-.171.987-.258,1.481a5.481,5.481,0,0,0,1.68-.266,1.61,1.61,0,0,0,.627-1.123,21.961,21.961,0,0,0,.028-2.552c.7.289,1.315.547,1.936.8-.371.6-.726,1.22-1.118,1.811a2.59,2.59,0,0,0,1.632,4.074,3.134,3.134,0,0,1,2.8,2.12c.517,1.269,1.309,1.159,2.3.043a5.068,5.068,0,0,0,1.606.128c.908-.271,1.747-.772,2.652-1.056,1.483-.465,3.008-.793,4.486-1.271.271-.087.634-.824.547-.928-1.125-1.373.107-2.409.581-3.614a3.8,3.8,0,0,0,.448,1.44c.243.281.836.258,1.141.335.662.6,1.322,1.123,1.872,1.734.409.455.655,1.054,1.023,1.55a3.986,3.986,0,0,0,1.133,1.238c1.041.54,1.55.138,1.509-1.043-.069-1.9.307-2.138,2-1.235.719.384,1.005.153,1.051-.616.044-.734-.056-1.974.261-2.1a8.937,8.937,0,0,1,2.854-.238c.066,0,.136.092.471.338-.338.6-.7,1.238-1.061,1.882-.184.327-.491.66-.5.995a2.619,2.619,0,0,0,.312,1.642c.194.228,1.015.031,1.5-.136a3.983,3.983,0,0,0,.995-.627,14.164,14.164,0,0,1,.107-3.744c.12-.407,1.468-.448,2.217-.647a1.7,1.7,0,0,1,.125.292c-.013.662-.289,1.719.005,1.916a2.814,2.814,0,0,0,3.24.12c1.864-1.228,3.77-1.015,5.956-.153-.637,1.568-1.245,3.069-1.864,4.565-.061.151-.169.368-.289.4-1.606.373-.974,1.547-.985,2.542a3.792,3.792,0,0,1-.473,1.509c-.307.639-.708,1.235-1.125,1.949,2.192.274,3.143-1.238,2.537-2.99.627-.55,1.084-1.261,1.68-1.407a15.746,15.746,0,0,1,3.138-.164c-.082.338-.064.767-.266,1-.918,1.056-.918,1.537.008,2.483q1.488,1.519,2.893,3.12c.836.951,1.744.839,2.2-.322.43-1.095,1.307-1.228,2.087-.274.419.514.752,1.1,1.123,1.655l.427-.01c.164-1.038.325-2.079.463-2.964l2.716-.261c.243.391.506,1.312,1.031,1.5.412.146,1.146-.616,2.018-1.148-.21,1.621-.12,3.21-.683,4.517-.453,1.049-1.7,1.76-2.591,2.616-.092.087-.256.141-.292.24-.192.542-.355,1.095-.529,1.642a4.588,4.588,0,0,0,1.593-.65c.916-.918,1.675-1.987,2.524-2.972.542-.629,1.033-.55,1.322.235.483,1.317.9,2.66,1.4,3.969.312.808.744,1.57,1.279,2.675l1.153-1.824c1.066.292,1,1.146,1.141,1.936.064.358.412.668.629,1l.386-.207a2.176,2.176,0,0,1,.115-.721c.161-.294.453-.775.629-.749.366.054.957.356.985.606.095.826.55,1.084,1.23,1.384.33.146.4.862.616,1.3.506,1.005,1.033,2,1.55,3l.517-.179c-.066-.494-.148-.987-.2-1.481-.064-.652-.366-1.54.657-1.565.35-.01.949.754,1.041,1.238.176.928.056,1.867.765,2.7.263.309.043,1.033.043,1.928a7.851,7.851,0,0,0-1.1-.99,6.105,6.105,0,0,0-1.171-.386c-.041.425-.243.918-.1,1.263a3.073,3.073,0,0,0,2.985,2.153c-.793,1.138-1.91,1.233-2.928,1.547-.435.136-1.169.486-1.151.683a2.321,2.321,0,0,0,.7,1.517,11.216,11.216,0,0,0,2.23,1.074c-.041.3-.087.652-.156,1.164a23.1,23.1,0,0,0,2.99.6,3.969,3.969,0,0,0,1.634-.511,10.863,10.863,0,0,0,1.141-.637c.159.412.332.818.468,1.238a3.188,3.188,0,0,1,.008.719,9.19,9.19,0,0,1-2.061.066c-.913-.169-1.12.2-1.187.99a28.805,28.805,0,0,0-.358,2.926,1.537,1.537,0,0,0,.949,1.125,14.777,14.777,0,0,0,2.67,0,3,3,0,0,1,1.13.107c.258.107.417.46.619.7a4.063,4.063,0,0,1-.839.312c-.286.041-.6-.092-.885-.061-.734.082-.987.455-.565,1.128a2.386,2.386,0,0,0,.593.806c2.509,1.552,1.217,3.992,1.558,6.1a5.911,5.911,0,0,1-1.271.43,4.307,4.307,0,0,1-1.141-.2c.12-.384.24-.77.363-1.153.246-.757.772-1.563.647-2.248-.09-.491-1.054-.824-1.887-1.409-.2,2.611-.368,4.765-.56,7.251a11.824,11.824,0,0,0-.673-1.368,6.573,6.573,0,0,0-.788-.839,6.071,6.071,0,0,0-.575,1.036,1.365,1.365,0,0,0,.033.88c.547,1.315,1.092,2.634,1.729,3.908.885,1.767.921,1.749,2.2,1.049l3.112.634c-.092.448-.2.959-.338,1.629a17.333,17.333,0,0,0-3.1.059c-.427.079-.916.747-1.054,1.238a5.7,5.7,0,0,0,.2,1.91,5.95,5.95,0,0,0-1.358-.3,2.775,2.775,0,0,0-.916.389c.187.243.361.683.563.7,1.355.092,2.731.468,3.916-.777.368-.386,1.348-.189,2.394-.3-.435,1.069-.7,1.767-1,2.453a1.538,1.538,0,0,0,.532,2.13c1.146.726,2.335,1.384,3.749,2.215-.079.156-.312.647-.581,1.118-.164.286-.54.537-.545.811-.02,1.22-.729,1.256-1.836,1.046a15.891,15.891,0,0,0,1.174-1.55,3.391,3.391,0,0,0,.225-1.059,2.662,2.662,0,0,0-1.02-.136c-1.072.325-2.084.688-2.013,2.194a1.945,1.945,0,0,1-.962,1.35,2.2,2.2,0,0,0-1.026,2.281.926.926,0,0,0,.532.708.975.975,0,0,0,.749-.481c.253-.481.34-1.049.568-1.547a.791.791,0,0,1,.578-.353c.115-.01.4.312.371.427a5.054,5.054,0,0,1-.67,2.033c-1.5,1.744-1.432,2.207.632,3.4a11.125,11.125,0,0,1,1.777,1.586,3.109,3.109,0,0,0,.427.432c1.5.913,1.762,1.453,1.55,3.557-.9,0-1.821.043-2.734-.028-.256-.02-.714-.4-.691-.565.169-1.115-.524-1.632-1.251-2.261a9.635,9.635,0,0,1-1.338-1.964c-1.24.286-2.931-.918-4.233,1.041.478.087.841.276,1.074.174,1.13-.5,1.588-.02,1.928,1.028a12.758,12.758,0,0,0,1.133,2.107,6.411,6.411,0,0,1-1.379,1.453c-.4.222-1.061.01-1.6-.069a7.368,7.368,0,0,1-1.066-.317,5.033,5.033,0,0,0,.179.992c.332.852-.777,2.194-1.846,2.169-.552-.013-1.1-.143-1.652-.123-.3.01-.775.159-.849.363a1.133,1.133,0,0,0,.174,1.013c.614.532.4,1.008.12,1.57-.752,1.488-1.826,2.875-.977,4.777.113.253-1.143,1.118-1.765,1.7a6.131,6.131,0,0,1-.8-1.486,4.444,4.444,0,0,1,.176-1.486c-1.44.235-2.225,1.373-1.547,2.465a15.585,15.585,0,0,0,2.67,3.22,1.175,1.175,0,0,0,2.043-.808c1.225-.931,2.294-1.731,3.348-2.552a1.081,1.081,0,0,0,.225-.427c.128-.294.251-.591.373-.885a4.089,4.089,0,0,1,.765.831,23.945,23.945,0,0,1,1.381,3.1,2.128,2.128,0,0,1-.225,1.468c-.069.138-.762-.023-1.169-.066a23.1,23.1,0,0,0-2.437-.23c-.148,0-.35.573-.427.905a2.486,2.486,0,0,0,.11.749c.084.726.547,1.813-.407,1.954-.606.09-1.465-.762-2.013-1.368-.312-.343-.225-1.043-.345-1.734-.708-.107-1.519-.23-2.652-.4a9.757,9.757,0,0,0,.542,2.113c.471.87,1.345,1.519,1.246,2.691-.008.1,1.141.537,1.284.381,1.182-1.271,2.611-.662,3.956-.662h.913a2.628,2.628,0,0,1-.936,3.217,1.657,1.657,0,0,1-1.332.333,2.019,2.019,0,0,1-.811-1.274c-.153-.68-.049-1.453-1.271-.977a10.8,10.8,0,0,1,.23,1.972,3.851,3.851,0,0,1-.552,1.235,5.421,5.421,0,0,1-1.064-.765c-1.018-1.189-1.969-2.432-2.995-3.614-.084-.1-.586.061-.818.217-.678.45-1.243.841-1.818-.2-.156-.281-.834-.274-1.271-.4-.026.422-.215.926-.049,1.251a8.522,8.522,0,0,0,1.511,2.176c.225.222.916-.023,1.647-.072.667.8.414,1.872-.757,2.619a3.7,3.7,0,0,0-1.294,1.639,1.394,1.394,0,0,1-1.261,1.01,4.494,4.494,0,0,0-1.338.719,9.989,9.989,0,0,0,1.368.841c.379.161.88.054,1.243.233a6.675,6.675,0,0,1,1.174.926c-.442.355-.893,1.02-1.322,1.008a21.789,21.789,0,0,1-3.327-.565l-2.02,2.494c-1.051-1.023-2.192-1.031-2.744-.092a1.253,1.253,0,0,0-.1.826c.02.092.463.2.652.13,1.343-.483,2.146.836,3.3.972.11.013.243.412.251.634.031.8.013,1.6.013,2.555a3.592,3.592,0,0,1-3.151-.87c-.655-.56-1.332-.716-1.872-.028a1.8,1.8,0,0,0,.087,2.683c.514.361,1.041.706,1.683,1.141-.432.537-.79.98-1.166,1.445-.276-.192-.519-.271-.606-.435-.967-1.844-1.9-3.7-2.862-5.552a11.063,11.063,0,0,0-.611-.949c-.325.343-.841.634-.944,1.033-.494,1.926-.734,2.082-2.783,1.32v1.2l-1.647.179c.22-.529.371-.887.522-1.246l-.223-.327c-.568.386-1.3.662-1.65,1.192-.253.389.072,1.118.01,1.68-.049.468-.143,1.133-.46,1.34a26.674,26.674,0,0,1-3.826,2.092,11.1,11.1,0,0,1-2.575.427c.263.568.509,1.1.76,1.634-1.606,1.481-1.409,4.987.376,6.325,1.179.882,1.212,1.6.184,2.619a1.078,1.078,0,0,0-.322.847c.343,1.251.767,2.478,1.169,3.714a5.094,5.094,0,0,1,.315.949c.189,1.719.309,3.445.524,5.159.192,1.542.391,3.038-.775,4.35a3.182,3.182,0,0,0-.652,1.373c-.581,2.542-1.171,5.084-1.634,7.65a3.7,3.7,0,0,0,.887,3.087,9.97,9.97,0,0,1,1.064,2.238c.12.261.192.693.378.749,1.036.317.87,1.13.854,1.877a7.106,7.106,0,0,1-1.859,4.772,6.9,6.9,0,0,0-1.714,4.5,34.571,34.571,0,0,1-.831,5.373c-.563,2.841-1.5,5.836.394,8.662a2.615,2.615,0,0,1-.043,3.233c-2.143,2.243-2.847,2.192-4.765,1.049-1.325-.788-2.785-1.752-3.245-3.471a15.508,15.508,0,0,1-.271-1.7c-.072-.494-.115-.99-.212-1.478a7.084,7.084,0,0,1-.3-1.092c-.069-3.13.031-6.274-.2-9.389-.151-2.031.655-3.729,1.24-5.519s1.24-3.511.765-5.45a7.031,7.031,0,0,1,.146-1.637,4.369,4.369,0,0,0-.141-1.734c-.811-1.849-1.693-3.667-2.619-5.463-.944-1.834-1.473-3.583-.309-5.593,1.171-2.026,2.1-4.194,3.125-6.3a1.177,1.177,0,0,0,.164-.473c-.01-2.335.023-4.673-.1-7-.026-.463-.685-.887-1.046-1.332-.506-.624-1.008-1.253-1.66-2.064a10.2,10.2,0,0,1-1.059.077c-.767,0-1.141-.506-.957-1.164.084-.3.683-.6,1.077-.639a11.088,11.088,0,0,1,2.008.115c.082-.1.164-.2.248-.3a2.644,2.644,0,0,0-1.959-1.509,2.971,2.971,0,0,0-3.754,1.908c-.207.844-.087,1.806-1.087,2.309-.156.077.01.665-.12.949a1.78,1.78,0,0,1-.739.887c-.269.115-.926-.036-.985-.21a1.682,1.682,0,0,1,.182-1.138c.2-.4.581-.7.808-1.092a3.159,3.159,0,0,0,.215-.872,2.817,2.817,0,0,0-.921.235,19.531,19.531,0,0,1-1.7,1.315,3.7,3.7,0,0,1-1.417.115c0-.514-.041-1.031,0-1.542a6.177,6.177,0,0,1,.258-1.028,3.953,3.953,0,0,0-1.189-.286,2.023,2.023,0,0,0-2.033,2.1,10.835,10.835,0,0,1-.235,1.115c-.57-.355-1.018-.6-1.432-.9a23.246,23.246,0,0,1-2.263-1.714c-.289-.266-.3-.818-.519-1.189a10.965,10.965,0,0,0-.9-1.151c-.194.389-.389.775-.578,1.166-.2.422-.294,1.051-.627,1.225-.532.284-.877-.1-1.251-.657-.33-.494-1.184-.634-1.8-.936a9.152,9.152,0,0,0,.714-1.471,1.306,1.306,0,0,0-.143-1.026.923.923,0,0,0-.9-.1c-.274.169-.614.652-.542.88a9.722,9.722,0,0,0,.9,1.706ZM228.8,213.087c.9,0,1.655.036,2.4-.018a1.108,1.108,0,0,0,.811-.4A12.5,12.5,0,0,0,233,210.2c.32-1.263-.276-1.749-1.545-1.315a30.665,30.665,0,0,0-3.02,1.182,1.393,1.393,0,0,0-.829,2l1.095-.13c.036.407.067.775.1,1.143Zm-33.37-20.511a1.8,1.8,0,0,0,2.332-1.478c.115-1.381.015-2.731-1.279-3.611a9.938,9.938,0,0,0-1.361-.652,4.233,4.233,0,0,0-.008,1.425c.371,1.033.542,1.91-.777,2.348a.322.322,0,0,0-.2.153c-.11.363-.2.731-.294,1.1a4.05,4.05,0,0,0,1.01-.156,6.549,6.549,0,0,0,1.015-.668c.056.072.11.143.166.215-.187.407-.376.813-.611,1.327Zm-8.974-5.235c-2.107-.179-4.118-.361-6.133-.5-.166-.013-.44.23-.506.412a.743.743,0,0,0,.089.673c.867.675,1.5,1.826,2.941,1.373a5.277,5.277,0,0,1,1.765-.138c1.143.043,1.68-.537,1.847-1.818Zm19.683,127.408c.031-2.008.811-3.893-1.547-4.407l-2.967,1.294c.7.4,1.412.8,2.2,1.24-.115.325-.24.673-.481,1.343l2.8.529Zm32.212-81.459c-.632-.872-1.325-1.583-.054-2.476.23-.161-.118-1.309-.4-1.91-.064-.138-1.261-.051-1.381.2a4.35,4.35,0,0,0-.066,1.749c.125,0,.251.005.376.005l-1.235.8c.645,2.726.959,2.913,2.76,1.629Zm-75.731-43a7.8,7.8,0,0,1-1.084-.849c-.289-.307-.7-.788-.634-1.095.281-1.243-.425-1.662-1.338-2.02-1.059,1.343-1.069,1.363.289,2.115.675.373.537.78.125,1.2a10.853,10.853,0,0,1-1.043.821c.634.171,1.015.3,1.407.373.9.176,1.806.366,2.719.465a3.9,3.9,0,0,0,1.151-.223l-.356-1.279-1.235.483ZM138.9,308.319l-1.486-.261c.079.435.171.867.233,1.3a.438.438,0,0,1-.11.338c-.785.668.013,1.084.312,1.455a4.178,4.178,0,0,0,1.269.726,3.8,3.8,0,0,0,.685-3.609c-.054-.225-.327-.4-.5-.6-.138.225-.276.448-.4.647Zm-38.544-77.055c-.023.512-.038.972-.066,1.432-.064,1.033-.031,2.112-1.545,2.143-.166,0-.325.519-.448.731.826-.11,1.481-.192,2.13-.286a1.388,1.388,0,0,0,.591-.161,4.577,4.577,0,0,0,1.123-4.02Zm-5.23,43.951c.363.271.77.757.957.683a9.8,9.8,0,0,0,2.312-1.263,4.429,4.429,0,0,0,.962-1.4c.248-.437.422-.916.754-1.652-2.565.327-3.235,2.54-4.985,3.637Zm52.715,50.575c.138.194.435.609.734,1.023l1.005-.829c.32-.261.647-.512.959-.783.261-.228.752-.547.708-.706a2.156,2.156,0,0,0-.747-1.2c-1.128-.706-2.652.565-2.657,2.5Zm31.417-5.13a7.909,7.909,0,0,0-.662-1.2,1.437,1.437,0,0,0-.974,1.724,8.847,8.847,0,0,1,1.317.76c.882.772,1.724,1.6,2.581,2.4l.409-.271a9.062,9.062,0,0,0-.417-1.074c-.169-.317-.565-.568-.611-.885-.161-1.107-.691-1.65-1.642-1.45Zm46.209-23.427.049-.632c-.292.793-.941,1.673-.77,2.348.146.578,1.187,1.028,1.918,1.307.238.089.847-.481,1.095-.87.123-.194-.084-.8-.322-.982a17.005,17.005,0,0,0-1.969-1.171ZM106.347,216.087c.023.143.043.286.067.43.683.184,1.583.729,2,.476A5.716,5.716,0,0,0,110,214.9c.151-.258-.02-.7-.046-1.061-.391.036-.89-.067-1.159.133-.862.647-1.637,1.4-2.445,2.12ZM99.358,293a11.7,11.7,0,0,0,.015,1.414,4.442,4.442,0,0,0,.358,1,5.366,5.366,0,0,0,1.251-.614c.2-.169.176-.6.243-.872,1.11-.274,2.327.491,3.187-.934H99.355ZM186,325.163a21.4,21.4,0,0,0-2.864-.394c-.309-.005-.936.724-.89.806.345.583.98,1.6,1.235,1.524.977-.292,2.166-.552,2.517-1.936Zm32.9-126.047c.143-2.527-.015-2.7-2.6-2.772.133.831.028,1.8.458,2.335.335.417,1.338.3,2.138.437ZM101.317,289.892c-.161-.128-.4-.468-.616-.46a4.115,4.115,0,0,0-2.043.338c-.486.322-.655,1.12-.964,1.706.478.031.957.079,1.435.084.246,0,.506-.154.734-.11,1.151.228,1.176-.657,1.455-1.558Zm115.022-86.646a8.352,8.352,0,0,0-.373-1.885c-.184-.391-.66-.647-1.005-.962a5.558,5.558,0,0,0-.744.893c-.13.243-.067.586-.138.87-.087.34-.373.928-.325.954a3.929,3.929,0,0,0,1.483.555C215.609,203.7,216.006,203.384,216.338,203.246ZM219,304.191c.5.7.87,1.217,1.243,1.737q.94-.875,1.877-1.749a9.634,9.634,0,0,0-1.91-1.246C220.019,302.861,219.51,303.641,219,304.191ZM191.39,320.173c-1.284.514-.985,1.473-1.015,2.253-.008.207.338.568.575.622a6.6,6.6,0,0,0,2.005.21c.284-.023.575-.483.752-.806.041-.074-.445-.619-.593-.581-1.355.361-1.685-.43-1.726-1.7ZM176.306,185.694c-.974,1.284-2.511,1.77-2.182,3.823a17.653,17.653,0,0,0,2.839-1.708C177.15,187.648,176.623,186.666,176.306,185.694Zm62.273,52.946a1.8,1.8,0,0,0-.652-2.256,1.763,1.763,0,0,0-1.212-.077,17.448,17.448,0,0,0-.409,2.332h2.274ZM125.352,198.8c1.2.248,1.959.593,2.279-.542.038-.138.325-.279.506-.294.693-.061,1.153-.4.739-1.036a1.41,1.41,0,0,0-1.366-.289A17.458,17.458,0,0,0,125.352,198.8Zm1.887,14.614c.373-.1.921-.171.923-.253a7.394,7.394,0,0,0-.169-2.074,1.073,1.073,0,0,0-.916-.517,3.2,3.2,0,0,0-1.565,1.136c-.207.4.153,1.128.972.675.2-.11.4-.2.691-.345.023.483.041.847.066,1.378Zm-9.066-2.844c-1.519-.12-1.609-.008-1.233,1.3.148.517.2,1.059.327,1.586.09.378.225.749.343,1.123l.793-.355c-.087-1.361-.156-2.458-.23-3.647Zm-4.2,90.866c.43-.54.908-.864.921-1.2.028-.875-.529-1.547-1.412-1.379-.524.1-.944.754-1.409,1.159.563.419,1.123.841,1.9,1.425ZM91.143,266.394c1.494.141,1.665-.008,1.547-1.361a4.635,4.635,0,0,0-.279-1.355c-.118-.284-.448-.478-.683-.711-.194.274-.532.532-.558.821-.077.831-.026,1.675-.026,2.609ZM226.3,217.31c-1.084.115-2.11-.066-1.88,1.133.092.483.714.864,1.095,1.292q.767-.928,1.532-1.857c-.322-.243-.645-.488-.749-.568Zm2.361-4.026a13.722,13.722,0,0,0-2.34-.9c-.263-.043-.614.419-.923.652q.9.9,1.8,1.8C227.625,214.392,228.049,213.942,228.666,213.284Zm5.936,45.882a6.16,6.16,0,0,0,1.435.972.731.731,0,0,0,.962-.926,10.6,10.6,0,0,0-.987-2.01C235.612,257.757,235.215,258.312,234.6,259.166ZM222.7,297.03l.591-.23a21.944,21.944,0,0,0,.015-2.355,2.082,2.082,0,0,0-1.235-.031c-.33.171-.747.839-.642,1.051a8.214,8.214,0,0,0,1.274,1.565ZM118.4,315.585c-.2-1.535-.78-2.13-1.944-1.872a1.174,1.174,0,0,0-.678.916C115.833,315.613,116.547,315.856,118.4,315.585Zm-7.634-96.122a17.5,17.5,0,0,0-.606,1.726,1.069,1.069,0,0,0,.153.785.671.671,0,0,0,.644.079,15.594,15.594,0,0,0,1.481-1.9c.051-.077-.322-.6-.57-.665a3.631,3.631,0,0,0-1.1-.031Zm-9.519,60.767c.683.977,1.391,1.425,2.251.7a6,6,0,0,0,1.12-1.719c.023-.041-.4-.445-.463-.409-.6.348-1.161.754-1.734,1.143l.161.281h-1.335Zm134.009-12.552c.777.5,1.279,1.028,1.519.928a5.99,5.99,0,0,0,1.432-1.169c-.448-.355-.88-.959-1.348-.987-.4-.026-.841.609-1.6,1.225Zm3.509-42.191c-.419-.7-.747-1.3-1.148-1.839-.054-.074-.706.12-.711.215a16.159,16.159,0,0,0,.051,1.859.162.162,0,0,0,.054.113c.292.258.588.512.882.765.256-.327.514-.655.875-1.113Zm-3.964,5.68c-.908-.8-1.2-2.141-2.657-1.806-.23.054-.583.545-.524.706C231.919,230.906,233.665,231.578,234.8,231.166Zm-87.84-38.6c.064-.207.128-.414.194-.621a21.339,21.339,0,0,0-2.414-1.217c-.271-.1-.739.22-1.059.432-.082.054,0,.609.092.634,1.054.292,2.123.524,3.187.772ZM167.393,326l-.217-.325a4.973,4.973,0,0,0-1.706.049c-.381.148-.637.706-.859,1.13-.064.123.164.578.279.586a2.189,2.189,0,0,0,1.269-.141,7.546,7.546,0,0,0,1.235-1.3Zm75.421-60.818c-.6-.517-1-1.043-1.164-.977a6.675,6.675,0,0,0-1.386.987c.34.358.662.982,1.023,1.005.394.023.818-.512,1.527-1.013Zm-20.938-62.8c-.066.522-.13,1.008-.189,1.5-.026.21-.12.471-.031.619a1.8,1.8,0,0,0,.685.716c.138.066.555-.164.655-.358A1.9,1.9,0,0,0,221.875,202.376Zm-68.222-13.1L154.2,189c-.486-1.066-.941-2.148-1.494-3.179-.079-.146-.629-.041-.962-.051a4.217,4.217,0,0,0,.274.982c.3.542.688,1.038,1.031,1.56.207.315.4.639.6.959ZM233.126,240.5c.494.547.854.946,1.215,1.348.258-.371.765-.777.716-1.1a4.276,4.276,0,0,0-.818-1.394Zm.269-13.125c.01,1.6.624,1.979,1.555,1.754.327-.079.552-.575.826-.88l-2.381-.875Zm-109.04-22.734c-1.079,1.309.02,1.949.647,2.8C125.848,205.9,125.718,205.341,124.355,204.642Zm-7.22,103.74c.174-.107.345-.215.519-.32-.179-.558-.212-1.266-.586-1.621-.3-.289-1.013-.153-1.54-.207-.074.174-.146.348-.22.522l1.826,1.629Zm-14.194-10.6c.583-.184,1.21-.194,1.419-.5a3.69,3.69,0,0,0,.4-1.627c.01-.092-.391-.345-.573-.317s-.386.281-.478.483c-.233.5-.407,1.02-.765,1.957Zm-.414-58.145c.867-.517,1.4-.831,1.928-1.148-.164-.261-.3-.719-.491-.742a1.977,1.977,0,0,0-1.391.21c-.225.2-.046.859-.046,1.678Zm139.052,15.4a8.884,8.884,0,0,0-1.3.954c-.156.166-.084.55-.115.834a3.5,3.5,0,0,0,1.274-.11c.831-.417.611-1.031.138-1.678Zm-135.61-31.662a6.326,6.326,0,0,0,.031,1.483c.072.286.445.5.685.742a3.974,3.974,0,0,0,.522-1.189c.061-.862-.3-1.376-1.238-1.036Zm122.75-15.834c-.673-1.425-1.511-1.535-2.683-.381Zm5.463,69.9-1.3-1.386c-.182.235-.565.552-.509.688a11.6,11.6,0,0,0,.905,1.555C233.509,278.081,233.74,277.862,234.182,277.445Zm-70.9,49.956a6.726,6.726,0,0,0-1.008,1.583c-.054.212.432.56.675.844a8.119,8.119,0,0,0,.831-1.281C163.858,328.375,163.584,328.055,163.285,327.4Zm78.452-81.753c-1.783.051-2.179.731-1.563,2.294C240.671,247.212,241.141,246.524,241.737,245.647ZM110.519,223.578l-.373.028c-.125.353-.384.724-.335,1.054s.394.629.609.941c.212-.3.593-.6.593-.9,0-.373-.315-.747-.494-1.12Zm-12.3,52.145c-.327.673-.67,1.051-.609,1.343.069.327.5.581.777.867.22-.274.639-.568.614-.816-.038-.378-.384-.724-.783-1.391Zm18.946-65.506c.271-.43.6-.747.54-.9a1.216,1.216,0,0,0-.726-.665c-.179-.046-.463.327-.7.512.246.292.488.583.887,1.059Zm81.147-24.107-.629.159.43,1.775c.22-.064.634-.166.632-.184C198.62,187.272,198.461,186.691,198.308,186.111Zm14.45,116.047c-.5-.412-.752-.793-.992-.783-.284.01-.555.358-.831.56.228.235.422.6.691.67C211.865,302.667,212.19,302.4,212.758,302.158Z" transform="translate(12691.146 15635.251)" fill="#0d83fe"/>
    <path id="Path_3288" data-name="Path 3288" d="M453.559,129.964c.918,0,2.064-.02,3.207.008.76.018,1.243.3,1.3,1.2.074,1.143.325,2.274.476,3.412.266,2.038-.115,1.88-1.5,3.2-1.476,1.4-2.877,1.033-4.44.928-.918-.061-1.675.033-1.644,1.307.031,1.21-1.066.957-1.78,1.123-.683.159-1.276.184-1.639-.7-.34-.834-1.026-1.522.176-2.243.177-.1.09-.854-.051-1.24-.511-1.417-.54-1.407.921-1.875.368-2.34,2.445-3.192,4.153-4.483-.747-.624-2-.918-1.161-2.051.256-.345.936-.373,1.422-.547.171.611.345,1.223.555,1.964Z" transform="translate(12421.779 15720.903)" fill="#0d83fe"/>
    <path id="Path_3289" data-name="Path 3289" d="M422.486,138.367c-.982-1.627.463-3.286,1.189-5.01s1.228-1.893,3.036-1.824a2.664,2.664,0,0,1,2.468,1.852c.483,1.092.734,2.11-.309,3.13a15.059,15.059,0,0,0-1.862,2.532c-.391.588-.719.6-1.361.292A22.746,22.746,0,0,0,422.486,138.367Z" transform="translate(12440.298 15718.282)" fill="#0d83fe"/>
    <path id="Path_3290" data-name="Path 3290" d="M77.926,557.369c.35-1.43,1.6-1.946,1.893-.852a8.72,8.72,0,0,1,.113,1.813c.217.072.317.143.376.118,1.166-.509,2.1-.473,2.775.841.118.228.946.044,1.43.138a13.451,13.451,0,0,1,1.514.476,6.725,6.725,0,0,0-.453,1.371A3.208,3.208,0,0,0,85.68,563a1.514,1.514,0,0,0,1.343.371c.875-.217,1.161.2,1.335.888.2.78-.2,1.059-.926,1.161a17.474,17.474,0,0,0-1.974.527c-.133-.225-.486-.563-.506-.918A2.231,2.231,0,0,0,83.867,563a.874.874,0,0,1-.3-.762c.417-1.726-.972-2.015-2.013-2.55a1.125,1.125,0,0,0-.921.041c-.136.074-.095.524-.077.8.013.2.194.417.166.606a9.393,9.393,0,0,1-.325,1.148c-.371-.3-.921-.535-1.077-.923-.286-.716-.286-1.542-.517-2.289a5.052,5.052,0,0,0-.719-1.143,11.764,11.764,0,0,1-.706,1.084,5.393,5.393,0,0,1-.747.652c-.266-.335-.824-.8-.744-.982a3.232,3.232,0,0,1,1.087-1.217c.228-.166.642-.074.954-.1Z" transform="translate(12698.012 15371.317)" fill="#0d83fe"/>
    <path id="Path_3291" data-name="Path 3291" d="M584.591,217.613c-.951-2.066-2-.051-2.6-.21l-1.67-1.425c-.125.153-.386.394-.353.445.333.506.711.982,1.077,1.468l.33-.118c-.169.683-.338,1.366-.586,2.373-.992-.6-1.849-1.118-2.852-1.724a8.646,8.646,0,0,1-.44,1.358c-.118.243-.453.381-.688.565-.192-.263-.527-.514-.547-.79-.069-.916-.026-1.839-.026-2.606.721-.366,1.43-1.059,1.949-.936,2.24.532,2.09-1.8,3.251-2.5.286-.171.662-.4.939-.34,1.407.317,2.69,2.793,2.217,4.437Z" transform="translate(12325.63 15645.726)" fill="#0d83fe"/>
    <path id="Path_3292" data-name="Path 3292" d="M299.27,797.657a23.207,23.207,0,0,1,.678-2.376,1.688,1.688,0,0,1,.811-.726c.545-.271,1.138-.442,2-.765a30.592,30.592,0,0,1,3.335.862,1.681,1.681,0,0,1,.877,1.253,6.916,6.916,0,0,1-.417,2.588,1.356,1.356,0,0,1-2.34.146c-.66-.859-1.325-1.714-2.089-2.7C301.285,796.928,300.986,798.841,299.27,797.657Z" transform="translate(12531.755 15181.783)" fill="#0d83fe"/>
    <path id="Path_3293" data-name="Path 3293" d="M65.1,449.666c-.414-2.281.437-4.506,1.872-5.327a3.872,3.872,0,0,1,1.309-.33c.872-.133,1.747-.115,2.2-1.164a.9.9,0,0,1,1.642.115c.292.591.877,1.253.772,1.772-.133.662-.806,1.23-1.292,1.8-.138.161-.522.325-.657.248-1.859-1.067-2.944.32-4.146,1.289-.532.43-1,.933-1.7,1.6Z" transform="translate(12706.109 15462.455)" fill="#0d83fe"/>
    <path id="Path_3294" data-name="Path 3294" d="M402.135,155.189c1.32-.471,2.215-.788,3.281-1.169a17.856,17.856,0,0,0,1.33,3,18.821,18.821,0,0,0,2.435,2.455c.187-.744.271-1.082.371-1.486,2-.182,2.056,1.673,2.565,2.294a9.72,9.72,0,0,1-1.65,2.136c-.33.248-1.143-.153-1.739-.261.01-.13.02-.261.031-.389.547-.077,1.092-.153,1.68-.238-.169-1.258-1.143-1.184-1.974-1.45a4.541,4.541,0,0,1-2.32-1.251c-.445-.642-1-.731-1.5-1.09a20.859,20.859,0,0,1-2.514-2.558Z" transform="translate(12455.201 15701.538)" fill="#0d83fe"/>
    <path id="Path_3295" data-name="Path 3295" d="M67.3,430.419c-.169.3-.307.583-.473.847-.148.235-.332.65-.494.647-1.972-.041-3.312,1.363-4.954,2.066a1.383,1.383,0,0,1-1.261-.189,2.8,2.8,0,0,1-.471-1.514c-.013-.151.519-.529.752-.491,2.123.335,3.624-1.309,5.514-1.68.685-.136,1.355-.358,2.046-.445a1.988,1.988,0,0,1,2.419,1.808,4.931,4.931,0,0,1-.3,1.522c-.522-.182-1.182-.23-1.535-.581a10.185,10.185,0,0,1-1.243-1.987Z" transform="translate(12710.092 15472.904)" fill="#0d83fe"/>
    <path id="Path_3296" data-name="Path 3296" d="M98.756,405.009c.215.069.581.074.678.238.509.849,1.325.762,2.12.813.844.054,1.266.376.844,1.312a7.55,7.55,0,0,0-.419,1.6c-.258,1.271-1.368,1.391-2.519,1.033-2.332-.724-1.381-2.627-1.79-4.02-.23-.785.338-1.041,1.09-.972Z" transform="translate(12681.834 15492.522)" fill="#0d83fe"/>
    <path id="Path_3297" data-name="Path 3297" d="M479.571,792.846c.332,1,.719,1.979.972,2.995a2.985,2.985,0,0,1-.008,1.662c-.261.691-.752.813-1.327.128a6.044,6.044,0,0,0-1.665-1.486,1.9,1.9,0,0,1-.91-2.271,1.276,1.276,0,0,1,.954-.726c.893-.074.992-.535.749-1.2-.2-.55-.3-1.141.422-1.138a9.253,9.253,0,0,1,2.194.524l-.972,1.494-.409.021Z" transform="translate(12399.796 15183.848)" fill="#0d83fe"/>
    <path id="Path_3298" data-name="Path 3298" d="M259.074,792.318c-.161.729-.128,1.207-.33,1.348a1.1,1.1,0,0,1-1.02.031,4.241,4.241,0,0,1-1.258-1.337c-.189-.348-.036-.88-.036-1.33a3.883,3.883,0,0,1,1.118.123,1.76,1.76,0,0,1,.593.486,6.384,6.384,0,0,1,1.992-1.089c.366-.041.816.693,1.46,1.3a9.678,9.678,0,0,0,.192-1.519,12.965,12.965,0,0,0-.253-1.673c.143-.087.289-.174.432-.263a15.178,15.178,0,0,1,1.972,2.179,1.71,1.71,0,0,1-.136,1.637,2.779,2.779,0,0,1-1.859.706,15.567,15.567,0,0,1-2.867-.593Z" transform="translate(12563.683 15186.104)" fill="#0d83fe"/>
    <path id="Path_3299" data-name="Path 3299" d="M576.9,203.111c-.056.552-.092.913-.133,1.317H575.54c.187-1.077.363-2.084.532-3.092.1-.581.251-1.184,1.018-.926,1.338.453,2.238-.284,3.192-.995.335-.251,1.013-.6,1.128-.488a2.939,2.939,0,0,1,.849,1.471c.051.279-.4.816-.739.972-.862.394-1.7.7-2.015,1.757-.056.189-.713.279-1.092.274a8.976,8.976,0,0,1-1.519-.292Z" transform="translate(12326.141 15657.201)" fill="#0d83fe"/>
    <path id="Path_3300" data-name="Path 3300" d="M457.451,804.75c1.655.064,2.3,1.184,1.5,2.6a1.292,1.292,0,0,1-1.059.427,1,1,0,0,1-.639-.747c.153-1.757-.76-2.744-2.23-3.43-.829-.386-1.361-1.187-.87-1.944.35-.542,1.274-.749,1.982-.995.159-.056.644.312.7.547.256,1.143.414,2.309.622,3.54Z" transform="translate(12416.624 15176.001)" fill="#0d83fe"/>
    <path id="Path_3301" data-name="Path 3301" d="M744.179,481.105c.373-.143.956-.366,1.539-.586a9.015,9.015,0,0,1,1.78-.629c.68-.1,1.143.238,1.054,1.049-.072.642-.151,1.22-1.051,1.018-.734-.166-1.312.026-1.335.9-.033,1.256-.747,1.279-1.724,1.11-1.619-.281-1.931-.54-1.859-1.818.049-.841.3-1.445,1.6-1.036Z" transform="translate(12201.826 15432.792)" fill="#0d83fe"/>
    <path id="Path_3302" data-name="Path 3302" d="M89.595,587.277c.957.89.995,1.655.212,2.432a1.949,1.949,0,0,1-2.386-.189,9.215,9.215,0,0,1-1.309-2.821c-.212-.992.358-1.243,1.317-.854a2.689,2.689,0,0,0,1.225.074,5.256,5.256,0,0,0,1-.309c.043.386.107.772.12,1.161a1.625,1.625,0,0,1-.179.509Z" transform="translate(12690.431 15348.286)" fill="#0d83fe"/>
    <path id="Path_3303" data-name="Path 3303" d="M702.689,329.016a6.876,6.876,0,0,1-1.552,1.378c-.923.435-1.067-.4-1.289-1.064a1.793,1.793,0,0,0-.6-.765,2.1,2.1,0,0,1-.54-3.128,1.246,1.246,0,0,1,1.951.112,4.632,4.632,0,0,0,1.588,2.309c.194.13.212.524.445,1.156Z" transform="translate(12234.825 15556.411)" fill="#0d83fe"/>
    <path id="Path_3304" data-name="Path 3304" d="M642.792,270.507c-.852-.24-1.419-.394-1.985-.563a24.274,24.274,0,0,1-2.332-.747,4.378,4.378,0,0,1-.985-.8c.3-.34.634-.99.91-.967a35.087,35.087,0,0,1,5.008.714,1.614,1.614,0,0,1,.739,1.4C643.927,270.014,643.2,270.247,642.792,270.507Z" transform="translate(12280.035 15602.578)" fill="#0d83fe"/>
    <path id="Path_3305" data-name="Path 3305" d="M646.54,683.889c.189,1.412.118,2.78,1.46,3.7.55.376-.067,2.44-.76,2.7-.23.084-.905-.325-.89-.4.22-.956-.448-1.233-1.077-1.609-1.266-.757-.552-2.089-.69-3.117a1.617,1.617,0,0,1,1.956-1.271Z" transform="translate(12274.813 15269.498)" fill="#0d83fe"/>
    <path id="Path_3306" data-name="Path 3306" d="M472,176.977a1.679,1.679,0,0,1-.248.729,2.319,2.319,0,0,1-1.138.859c-.238.041-.619-.55-.88-.9a3.557,3.557,0,0,1-.734-1.235,7.684,7.684,0,0,1-.095-2.043c.005-.113.545-.348.708-.266.246.123.391.463.547.731.271.465-.565,1.361.578,1.494a6.774,6.774,0,0,1,.166-1.524,1.565,1.565,0,0,1,.762-.949c.857-.263,2.417,1.545,1.967,2.3-.217.366-.893.46-1.637.806Z" transform="translate(12405.519 15686.78)" fill="#0d83fe"/>
    <path id="Path_3307" data-name="Path 3307" d="M283.168,781.031a21.929,21.929,0,0,1-2.6-2.054,2.232,2.232,0,0,1-.33-1.624c.028-.223.714-.54,1.082-.517a9.754,9.754,0,0,1,2.724.494c.4.146.714.765.872,1.235.064.189-.414.545-.624.839-.4.563-.785,1.138-1.123,1.627Z" transform="translate(12545.938 15195.542)" fill="#0d83fe"/>
    <path id="Path_3308" data-name="Path 3308" d="M709.32,360.363a3.89,3.89,0,0,1,1.061.02,3.02,3.02,0,0,1,.775.552c-.292.279-.581.79-.875.793a9.7,9.7,0,0,1-1.982-.376c-.453-.092-.908-.192-1.368-.248-.407-.051-.823-.046-1.292-.069.215-1.046.414-2.026.614-3,2.043-.486,2.358-.256,3.061,2.327Z" transform="translate(12229.314 15530.315)" fill="#0d83fe"/>
    <path id="Path_3309" data-name="Path 3309" d="M584.781,88.656c-1.3,0-2.156-.665-2.151-1.67a2.436,2.436,0,0,1,2.118-2.176,2.07,2.07,0,0,1,2.074,2.128c-.01,1.182-.647,1.719-2.038,1.719Z" transform="translate(12320.864 15753.048)" fill="#0d83fe"/>
    <path id="Path_3310" data-name="Path 3310" d="M109.421,602.857c-.992,0-1.716-.046-2.427.021a3.746,3.746,0,0,0-1.015.419c.271.248.529.517.824.737.125.095.35.049.486.133.483.3.951.634,1.425.954a5.527,5.527,0,0,1-1.859.836,4.913,4.913,0,0,1-1.893-.691c-.136-.059-.332-.271-.307-.358.289-1,.368-2.2.99-2.931.939-1.1,2.642-.721,3.78.88Z" transform="translate(12676.6 15335.688)" fill="#0d83fe"/>
    <path id="Path_3311" data-name="Path 3311" d="M712.781,567.166a11.95,11.95,0,0,1-1.6,1.831c-.568.471-1.366-.194-1.182-1.013.294-1.309.57-2.529-.483-3.7-.317-.353-.146-.918.611-.8A3.762,3.762,0,0,1,712.781,567.166Z" transform="translate(12226.539 15365.821)" fill="#0d83fe"/>
    <path id="Path_3312" data-name="Path 3312" d="M731.359,501.937a9.807,9.807,0,0,1-1.233,1.532c-.164.143-.785-.049-1.059-.263-.583-.455-1.286-.926-.921-1.88.345-.9.655-1.821,1.033-2.708a.993.993,0,0,1,.616-.5c.136-.031.445.253.514.45.356,1.038.657,2.095,1.051,3.376Z" transform="translate(12212.639 15418.089)" fill="#0d83fe"/>
    <path id="Path_3313" data-name="Path 3313" d="M736.619,326.172c-.054-.783.051-1.527,1.317-1.471,1.368.059,2.271.734,2.258,1.862a2.07,2.07,0,0,1-2.061,1.995c-1.184.02-1.5-.45-1.514-2.384Z" transform="translate(12206.267 15556.784)" fill="#0d83fe"/>
    <path id="Path_3314" data-name="Path 3314" d="M736.452,471.813c-.55.3-1.184.9-1.463.762a3.494,3.494,0,0,1-1.7-1.558c-.256-.621,1.026-1.442,1.9-1.074.992.417,2.327.192,2.944,1.4.245.478.7,1.023-.177,1.315-.642.212-1.292.263-1.453-.667C736.49,471.867,736.432,471.754,736.452,471.813Z" transform="translate(12208.758 15440.922)" fill="#0d83fe"/>
    <path id="Path_3315" data-name="Path 3315" d="M137.906,347.7a14.7,14.7,0,0,1,1.719,2.123c.123.222-.368.823-.639,1.207a1.612,1.612,0,0,1-.627.424c-.678.327-1.535,1.212-2.043.156a3.843,3.843,0,0,1,.2-2.552c.169-.506.839-.844,1.391-1.355Z" transform="translate(12653.146 15538.368)" fill="#0d83fe"/>
    <path id="Path_3316" data-name="Path 3316" d="M189,743.166c-1.381.026-2.248-.716-2.253-1.719-.005-.808,1.1-1.614,2.266-1.65.936-.028,1.4.693,1.437,2.092.033,1.251-.77,1.317-1.448,1.274Z" transform="translate(12615.497 15225.263)" fill="#0d83fe"/>
    <path id="Path_3317" data-name="Path 3317" d="M745.73,453.074c.148-1.414-.4-2.719,1.074-3.491.246-.128.156-.806.335-1.176.125-.261.44-.435.667-.647.182.233.483.445.522.7a4.149,4.149,0,0,1-1,3.893A5.887,5.887,0,0,1,745.73,453.074Z" transform="translate(12199.478 15458.337)" fill="#0d83fe"/>
    <path id="Path_3318" data-name="Path 3318" d="M785.071,466.065a2.835,2.835,0,0,1-4.729.338c-.491-.7-.005-1.031.586-1.182A4.891,4.891,0,0,1,785.071,466.065Z" transform="translate(12173.867 15444.791)" fill="#0d83fe"/>
    <path id="Path_3319" data-name="Path 3319" d="M102.942,485.99c.435.35,1.01.785,1.54,1.269a.589.589,0,0,1-.026.565,20.073,20.073,0,0,1-1.527,1.824c-.21.215-.7.465-.857.368-.4-.251-1.013-.729-.969-1.038a12.518,12.518,0,0,1,.847-2.724C102,486.12,102.4,486.123,102.942,485.99Z" transform="translate(12679.241 15427.918)" fill="#0d83fe"/>
    <path id="Path_3320" data-name="Path 3320" d="M310.806,780.176l-4.166-1.6c.11-.581.2-1.033.292-1.54.432-.112.875-.222,1.312-.343.859-.233,1.424-.182,1.627.939a7.8,7.8,0,0,0,1.087,2.087c-.051.151-.1.3-.153.455Z" transform="translate(12526.27 15195.844)" fill="#0d83fe"/>
    <path id="Path_3321" data-name="Path 3321" d="M725.238,445.017c.665-.1,1.253-.169,1.829-.294.944-.2,1.394.161,1.335,1.115a3.034,3.034,0,0,1-.217,1.368,1.478,1.478,0,0,1-1.112.673c-1.031-.141-1.949-1.652-1.831-2.862Z" transform="translate(12214.734 15461.008)" fill="#0d83fe"/>
    <path id="Path_3322" data-name="Path 3322" d="M134.395,672.061c-1.488,0-1.99,1.767-3.386,1.008-.355-.192-.862-.483-.9-.777a1.573,1.573,0,0,1,.575-1.1,7.107,7.107,0,0,1,1.637-1.069.929.929,0,0,1,.859.115,15.924,15.924,0,0,1,1.215,1.824Z" transform="translate(12657.655 15280.983)" fill="#0d83fe"/>
    <path id="Path_3323" data-name="Path 3323" d="M198.543,227.514c.064.24.092.286.082.32-.345,1.151-1.294,1.13-2.159.959-.905-.182-2.087-.01-2.271-1.488-.123-.969.366-1.24,1.049-1.046a35.14,35.14,0,0,1,3.3,1.258Z" transform="translate(12609.971 15635.525)" fill="#0d83fe"/>
    <path id="Path_3324" data-name="Path 3324" d="M738.881,565.273c1.159.732,1.077,1.834,1.038,2.862a12.107,12.107,0,0,1-.4,1.992,6.725,6.725,0,0,1-1.69-1.465,1.652,1.652,0,0,1,.286-2.268,5.342,5.342,0,0,0,.767-1.123Z" transform="translate(12205.598 15364.484)" fill="#0d83fe"/>
    <path id="Path_3325" data-name="Path 3325" d="M294.324,115.745c-.164.251-.315.7-.517.729a1.218,1.218,0,0,1-.987-.355c-.588-.831-.813-1.882-1.9-2.422-.233-.115-.074-1.44.22-2.059.279-.583,1.327-.223,1.376.527.069,1.074-.005,2.1,1.355,2.473.215.059.276.66.445,1.107Z" transform="translate(12538.049 15733.296)" fill="#0d83fe"/>
    <path id="Path_3326" data-name="Path 3326" d="M283.344,162.984c-.721-.233-1.363-.386-1.959-.645-.76-.327-1.366-.89-1-1.78s1.2-.8,1.962-.547c1.558.512,1.972,1.775,1,2.972Z" transform="translate(12545.89 15697.208)" fill="#0d83fe"/>
    <path id="Path_3327" data-name="Path 3327" d="M410.673,179.088c.087.688.194,1.4.258,2.11.059.639.179,1.335-.831,1.35-.767.013-1.519.054-1.373-1.082a1.245,1.245,0,0,0-.069-.376q-.463-2.312,2.015-2.005Z" transform="translate(12450.396 15682.909)" fill="#0d83fe"/>
    <path id="Path_3328" data-name="Path 3328" d="M237.125,793.124c-.325.222-1.1,1.018-1.348.877a10.471,10.471,0,0,1-2.008-1.872c.575-.468,1.087-1.187,1.737-1.348C236.478,790.541,237.154,791.474,237.125,793.124Z" transform="translate(12580.503 15184.586)" fill="#0d83fe"/>
    <path id="Path_3329" data-name="Path 3329" d="M385.47,827.67a18.654,18.654,0,0,1,2.038-2.529c.34-.3,1.1-.133,1.67-.179a5.292,5.292,0,0,1-.023,1.424C388.815,827.567,387.051,828.342,385.47,827.67Z" transform="translate(12467.601 15147.756)" fill="#0d83fe"/>
    <path id="Path_3330" data-name="Path 3330" d="M146.07,701.97c1.542.23,2.9,2.969,2.6,4.775-1.049.164-1.731-.1-1.9-1.317-.159-1.13-.445-2.24-.693-3.458Z" transform="translate(12645.773 15255.259)" fill="#0d83fe"/>
    <path id="Path_3331" data-name="Path 3331" d="M208.057,255.6c-.189-1.361.471-1.987,1.77-2.176.673-.1,1.174-.166,1.223.731.013.217.246.419.363.637.179.33.345.665.517,1a4.886,4.886,0,0,1-1.476.325,19.085,19.085,0,0,1-2.417-.532l.018.015Z" transform="translate(12599.663 15613.826)" fill="#0d83fe"/>
    <path id="Path_3332" data-name="Path 3332" d="M69.1,525.55a2.557,2.557,0,0,1-.015,2.821,1.617,1.617,0,0,1-1.6.159,2.446,2.446,0,0,1-.877-1.808c.192-1.491,1.634-.7,2.491-1.171Z" transform="translate(12704.919 15396.418)" fill="#0d83fe"/>
    <path id="Path_3333" data-name="Path 3333" d="M402.069,140.368c-.217-.747-.437-1.494-.639-2.187.954-.312,1.737-.6,2.537-.816a4,4,0,0,1,.962-.026c-.005.355.136.841-.044,1.041-.726.811-1.552,1.534-2.343,2.289C402.384,140.57,402.225,140.467,402.069,140.368Z" transform="translate(12455.722 15713.965)" fill="#0d83fe"/>
    <path id="Path_3334" data-name="Path 3334" d="M372.26,139.815c-.445.3-.864.8-1.343.862a1.712,1.712,0,0,1-1.841-1.793c.028-.757.343-1.315,1.238-1.271.744.038,1.749,1.13,1.946,2.2Z" transform="translate(12479.802 15713.75)" fill="#0d83fe"/>
    <path id="Path_3335" data-name="Path 3335" d="M323.463,93.393c.245-.66.286-1.279.614-1.535a3.1,3.1,0,0,1,1.834-.742c.389.015.885.719,1.061,1.21.087.24-.4.964-.708,1.015a17.742,17.742,0,0,1-2.8.051Z" transform="translate(12513.751 15748.354)" fill="#0d83fe"/>
    <path id="Path_3336" data-name="Path 3336" d="M463.272,783.981c-.225.159-.586.611-.995.665-.875.113-1.45-.89-1.5-2.389-.023-.593-.013-1.125.806-1.1.834.028,1.668,1.245,1.7,2.823Z" transform="translate(12411.56 15192.206)" fill="#0d83fe"/>
    <path id="Path_3337" data-name="Path 3337" d="M651.749,253.591a1.877,1.877,0,0,1,1.644-1.737c1.046.072,1.082,1.008,1.069,1.711a1.605,1.605,0,0,1-.77,1.266A1.684,1.684,0,0,1,651.749,253.591Z" transform="translate(12269.423 15615.021)" fill="#0d83fe"/>
    <path id="Path_3338" data-name="Path 3338" d="M217.733,242.849c0,1.279-.33,1.514-1.3,1.013-.893-.46-2.1-.662-2.084-2.028,0-.248.445-.731.547-.7a19.822,19.822,0,0,1,2.644,1.09c.174.087.166.532.192.624Z" transform="translate(12594.957 15623.584)" fill="#0d83fe"/>
    <path id="Path_3339" data-name="Path 3339" d="M198.84,882.029c.212-.23.65-.7,1.084-1.169a8.372,8.372,0,0,1,1.545,1.944c.1.23-.777,1.095-1.343,1.309C199.456,884.366,198.863,883.507,198.84,882.029Z" transform="translate(12606.499 15106.148)" fill="#0d83fe"/>
    <path id="Path_3340" data-name="Path 3340" d="M634.682,232.73c.161.737.673,1.882.409,2.1a6.349,6.349,0,0,1-2.512.9c-.135.033-.578-.44-.537-.542a4.271,4.271,0,0,1,.846-1.478A8.645,8.645,0,0,1,634.682,232.73Z" transform="translate(12284.091 15630.294)" fill="#0d83fe"/>
    <path id="Path_3341" data-name="Path 3341" d="M145.745,313.186a7.706,7.706,0,0,1-2.125-.79,1.474,1.474,0,0,1-.274-1.409,2.394,2.394,0,0,1,1.4-1c.238-.061.862.517.951.893a10.632,10.632,0,0,1,.043,2.307Z" transform="translate(12647.86 15568.583)" fill="#0d83fe"/>
    <path id="Path_3342" data-name="Path 3342" d="M292.075,191.616l-1.445-.668a4.189,4.189,0,0,1,.836-.939,10.872,10.872,0,0,1,2.107-.977.941.941,0,0,1,.841.35.931.931,0,0,1-.156.9C293.561,190.79,292.783,191.194,292.075,191.616Z" transform="translate(12538.185 15675.491)" fill="#0d83fe"/>
    <path id="Path_3343" data-name="Path 3343" d="M309.414,147.06c.829.013,2.2,1.189,2.074,1.885a1.307,1.307,0,0,1-.726.916,2.873,2.873,0,0,1-1.655-.21c-.24-.113-.394-.744-.33-1.095a6.732,6.732,0,0,1,.637-1.5Z" transform="translate(12524.689 15706.718)" fill="#0d83fe"/>
    <path id="Path_3344" data-name="Path 3344" d="M309.24,179.164a10.667,10.667,0,0,1,.905-1.946,2.815,2.815,0,0,1,1.266-.834c.21-.077.8.228.8.34a2.41,2.41,0,0,1-.343,1.468c-.673.7-1.279,1.969-2.621.972Z" transform="translate(12524.334 15684.902)" fill="#0d83fe"/>
    <path id="Path_3345" data-name="Path 3345" d="M716.87,426.3c.386-2,1.031-2.642,2.164-2.089a2.148,2.148,0,0,1,.777,1.481c.112.719-.443.893-1.084.811C718.113,426.421,717.5,426.367,716.87,426.3Z" transform="translate(12220.956 15477.564)" fill="#0d83fe"/>
    <path id="Path_3346" data-name="Path 3346" d="M429.771,193.545l-1.051-.852a9.621,9.621,0,0,1,.678-.793,16.692,16.692,0,0,1,1.483-1.307,7.666,7.666,0,0,1,1.171-.6c.092.427.409,1.056.238,1.248a31.8,31.8,0,0,1-2.519,2.309Z" transform="translate(12435.411 15664.406)" fill="#0d83fe"/>
    <path id="Path_3347" data-name="Path 3347" d="M686.611,338.486a.732.732,0,0,1,.322.031c.514.284,1.018.593,1.524.893a5.157,5.157,0,0,1-1,1.212c-.54.348-1.2.481-1.606-.317-.054-.107-.182-.174-.258-.274-.238-.307-.471-.621-.7-.933.43-.2.854-.417,1.292-.6a1.3,1.3,0,0,1,.432-.008Z" transform="translate(12244.757 15545.885)" fill="#0d83fe"/>
    <path id="Path_3348" data-name="Path 3348" d="M135.61,282.883c.156-1.335,1.182-2.251,2.061-2.013a1.679,1.679,0,0,1,1.064.885c.169.547-1.706,1.9-2.391,1.719C136.012,283.39,135.758,283.009,135.61,282.883Z" transform="translate(12653.558 15591.897)" fill="#0d83fe"/>
    <path id="Path_3349" data-name="Path 3349" d="M134.177,327.1a6.019,6.019,0,0,1-.391,1.611c-.2.327-.668.494-1.015.731a6.26,6.26,0,0,1-.5-.972c-.141-.43-.4-1.008-.235-1.309a5.835,5.835,0,0,1,1.32-1.253C133.655,326.35,133.957,326.787,134.177,327.1Z" transform="translate(12656.263 15555.839)" fill="#0d83fe"/>
    <path id="Path_3350" data-name="Path 3350" d="M257.894,757.549c-1.33-1.624-.926-3.225.711-3.775.885-.3.995.458.811.931a26.071,26.071,0,0,1-1.519,2.847Z" transform="translate(12563.141 15214.076)" fill="#0d83fe"/>
    <path id="Path_3351" data-name="Path 3351" d="M689.873,238.3c.315.859.693,1.7.923,2.583.194.747-.128,1.174-1,1.164s-1.1-.458-.977-1.207c.133-.813.294-1.621.442-2.432.2-.036.409-.072.614-.1Z" transform="translate(12241.858 15625.809)" fill="#0d83fe"/>
    <path id="Path_3352" data-name="Path 3352" d="M41.556,312.225c-.125-.785.215-1.289,1.008-1.251a1.5,1.5,0,0,1,1.568,1.519c.046.811-.45.992-1.151.967C42.155,313.432,41.382,313.388,41.556,312.225Z" transform="translate(12723.576 15567.84)" fill="#0d83fe"/>
    <path id="Path_3353" data-name="Path 3353" d="M298.44,78.288c.095-1.077.044-1.79,1.161-1.8,1.051-.005,1.532.657,1.327,1.378-.146.519-1.013.931-1.639,1.169-.194.074-.662-.578-.849-.752Z" transform="translate(12532.372 15759.239)" fill="#0d83fe"/>
    <path id="Path_3354" data-name="Path 3354" d="M261.413,213.9a7.044,7.044,0,0,1,1.542,1.639,1.6,1.6,0,0,1-.555,1.488,1.006,1.006,0,0,1-1.5-.852,17.68,17.68,0,0,1-.015-2.051c.176-.074.35-.151.527-.225Z" transform="translate(12560.338 15645.322)" fill="#0d83fe"/>
    <path id="Path_3355" data-name="Path 3355" d="M79.328,416.553c-.072,1.34-.606,1.91-1.527,1.88-.363-.013-.708-.522-1.061-.806q.832-.982,1.665-1.967c.366.353.731.706.921.89Z" transform="translate(12697.372 15484.216)" fill="#0d83fe"/>
    <path id="Path_3356" data-name="Path 3356" d="M724.37,327.166c.138-1.307.422-2.115,1.488-2.146.207-.005.683.7.6.934a18.014,18.014,0,0,1-1.138,2.32c-.376-.435-.749-.872-.954-1.11Z" transform="translate(12215.374 15556.569)" fill="#0d83fe"/>
    <path id="Path_3357" data-name="Path 3357" d="M742.277,312.364c-1.148.212-1.056-.708-1.13-1.294a.938.938,0,0,1,1.174-1.11c.529.113,1.361.611,1.373.964.031.777-.327,1.616-1.417,1.437Z" transform="translate(12202.896 15568.671)" fill="#0d83fe"/>
    <path id="Path_3358" data-name="Path 3358" d="M95.309,536.547a7.682,7.682,0,0,1-2.7-.622c-.409-.268-.263-1.381-.366-2.115a3.757,3.757,0,0,1,.857.069c.141,1.089,1.051,1.192,1.808,1.527.258.115.427.435.637.662-.077.158-.153.317-.23.478Z" transform="translate(12685.836 15389.864)" fill="#0d83fe"/>
    <path id="Path_3359" data-name="Path 3359" d="M761,377.505a1.988,1.988,0,0,1,2.532-.995c.261.092.476.747.445,1.123a2.017,2.017,0,0,1-.593,1.038c-.79-.312-1.54-.731-2.384-1.164Z" transform="translate(12188.112 15515.634)" fill="#0d83fe"/>
    <path id="Path_3360" data-name="Path 3360" d="M568.991,124.586c-.228.128-.6.527-.957.506a1.427,1.427,0,0,1-1.453-1.468c-.041-.806.391-.959,1.11-.992C568.938,122.573,568.884,123.432,568.991,124.586Z" transform="translate(12332.81 15724.9)" fill="#0d83fe"/>
    <path id="Path_3361" data-name="Path 3361" d="M475.4,838.725c-.021,1.517-1.054,1.389-1.8,1.43-.207.013-.624-.583-.644-.916a1.229,1.229,0,0,1,1.473-1.443C474.786,837.84,475.076,838.4,475.4,838.725Z" transform="translate(12402.49 15138.209)" fill="#0d83fe"/>
    <path id="Path_3362" data-name="Path 3362" d="M61.391,567.97c.529.6.839.941,1.148,1.286-.494.43-.939,1.084-1.5,1.212-.366.082-.905-.6-1.368-.944C60.176,569.07,60.68,568.612,61.391,567.97Z" transform="translate(12710.076 15362.612)" fill="#0d83fe"/>
    <path id="Path_3363" data-name="Path 3363" d="M558.616,163.79a4.844,4.844,0,0,1,.77,1.747c0,.355-.737.985-1.148.99-.353.005-1-.7-1.008-1.092-.008-.54.473-1.087.744-1.632l.642-.01Z" transform="translate(12339.769 15694.267)" fill="#0d83fe"/>
    <path id="Path_3364" data-name="Path 3364" d="M113.94,663.9a24.185,24.185,0,0,1,2.6.033c.281.031.524.437.785.673-.248.251-.453.629-.752.726A1.863,1.863,0,0,1,113.94,663.9Z" transform="translate(12669.686 15286.152)" fill="#0d83fe"/>
    <path id="Path_3365" data-name="Path 3365" d="M396.028,188.83a9.961,9.961,0,0,1,1.527,1.141A1.564,1.564,0,0,1,396.9,191a1.811,1.811,0,0,1-1.458-.263c-.358-.3-.442-.928-.647-1.414C395.132,189.191,395.465,189.055,396.028,188.83Z" transform="translate(12460.656 15675.631)" fill="#0d83fe"/>
    <path id="Path_3366" data-name="Path 3366" d="M188.509,256.827c-.138-.159-.627-.471-.619-.77s.517-.573.831-.831a10.606,10.606,0,0,1,.882-.611c.22-.146.45-.276.675-.414a2.492,2.492,0,0,1,.373.747c.1.882-.91,1.88-2.143,1.875Z" transform="translate(12614.649 15613.168)" fill="#0d83fe"/>
    <path id="Path_3367" data-name="Path 3367" d="M704.732,427.12c.184,1.458.174,2.524-1.445,2.829-.256-.557-.524-1.146-.877-1.918C703.19,427.726,703.909,427.445,704.732,427.12Z" transform="translate(12231.718 15475.059)" fill="#0d83fe"/>
    <path id="Path_3368" data-name="Path 3368" d="M75.139,492.517c-.624.087-1.1.153-1.959.276.621-1.432,1.115-2.568,1.606-3.7l.353.054Z" transform="translate(12700.021 15425.478)" fill="#0d83fe"/>
    <path id="Path_3369" data-name="Path 3369" d="M719.81,473.487a3.074,3.074,0,0,1,2.846.6.681.681,0,0,1,.1.66c-.212.266-.547.591-.841.6-1.2.041-1.762-.739-2.1-1.857Z" transform="translate(12218.769 15438.24)" fill="#0d83fe"/>
    <path id="Path_3370" data-name="Path 3370" d="M557.63,749.437c1.018-1.294,2.286-.946,3.5-.941C561.152,750.148,559.771,750.521,557.63,749.437Z" transform="translate(12339.471 15218.633)" fill="#0d83fe"/>
    <path id="Path_3371" data-name="Path 3371" d="M214.947,159.441c-.563-.57-1.23-1.049-1.161-1.215a8.107,8.107,0,0,1,1.161-1.616c.43.465,1.046.875,1.215,1.419C216.243,158.3,215.5,158.825,214.947,159.441Z" transform="translate(12595.38 15699.61)" fill="#0d83fe"/>
    <path id="Path_3372" data-name="Path 3372" d="M123,310.31c0-1.138-.046-1.754.023-2.358a.89.89,0,0,1,.512-.6c.23-.082.724-.023.783.113.253.6.678,1.358.486,1.844C124.625,309.752,123.746,309.924,123,310.31Z" transform="translate(12662.957 15570.729)" fill="#0d83fe"/>
    <path id="Path_3373" data-name="Path 3373" d="M783.126,1004.43c.348-.215.68-.575,1.049-.616.726-.077,1.44.189,1.317,1.082-.056.412-.662,1.123-.841,1.072a6.189,6.189,0,0,1-1.56-.959c.013-.192.026-.386.038-.578Z" transform="translate(12171.672 15014.649)" fill="#0d83fe"/>
    <path id="Path_3374" data-name="Path 3374" d="M2.534,356.515a11.89,11.89,0,0,1-1.678,1.35c-.125.069-.88-.634-.849-.688.412-.691.913-1.327,1.391-1.977l1.138,1.315Z" transform="translate(12754.48 15532.508)" fill="#0d83fe"/>
    <path id="Path_3375" data-name="Path 3375" d="M83.076,389.912c-.468-1.182.4-3.12,1.2-3.261.207-.036.591.079.65.222a1.138,1.138,0,0,1,.028.921c-.529.7-1.159,1.322-1.877,2.118Z" transform="translate(12692.755 15507.348)" fill="#0d83fe"/>
    <path id="Path_3376" data-name="Path 3376" d="M547.848,136.741c-.263-.491-.744-.99-.729-1.473.013-.43.517-.921.926-1.212.115-.082.969.463.956.688a8.582,8.582,0,0,1-.547,1.949Z" transform="translate(12347.294 15716.402)" fill="#0d83fe"/>
    <path id="Path_3377" data-name="Path 3377" d="M182.476,186.15c.586.565.962.931,1.34,1.3l-1.335,1.2a5.238,5.238,0,0,1-.957-1.345C181.458,187.091,182.018,186.679,182.476,186.15Z" transform="translate(12619.391 15677.625)" fill="#0d83fe"/>
    <path id="Path_3378" data-name="Path 3378" d="M757.269,340.029c-.593.644-.969,1.051-1.345,1.455-.312-.442-.9-.9-.867-1.32.033-.491.6-.944.933-1.414Z" transform="translate(12192.536 15545.64)" fill="#0d83fe"/>
    <path id="Path_3379" data-name="Path 3379" d="M164.508,725.255c-.335-.839-2.023-.471-1.624-1.765.148-.478,1.2-.675,2.118-1.141-.056,1.256-.092,2.026-.125,2.8Z" transform="translate(12633.305 15239.271)" fill="#0d83fe"/>
    <path id="Path_3380" data-name="Path 3380" d="M785.3,25.66a11.769,11.769,0,0,1-1.3-1.524c-.084-.136.322-.834.506-.836.545-.005,1.46.084,1.555.366.174.517-.133,1.194-.24,1.806Z" transform="translate(12171.006 15798.826)" fill="#0d83fe"/>
    <path id="Path_3381" data-name="Path 3381" d="M160.71,766.253c.471-.466.836-1.12,1.238-1.146.435-.026.9.537,1.358.844l-1.767,1.412c-.225-.3-.448-.6-.829-1.112Z" transform="translate(12634.878 15205.229)" fill="#0d83fe"/>
    <path id="Path_3382" data-name="Path 3382" d="M643.028,217.672c-.529-.56-.89-.939-1.248-1.317.373-.317.8-.939,1.11-.885.506.09.936.616,1.4.959C643.936,216.777,643.583,217.125,643.028,217.672Z" transform="translate(12276.842 15644.118)" fill="#0d83fe"/>
    <path id="Path_3383" data-name="Path 3383" d="M676.011,652.262c-.049,1.107-.752,2.046-1.537,1.887-.358-.072-.637-.545-.954-.836l2.2-1.453c.1.133.194.266.292.4Z" transform="translate(12253.22 15295.648)" fill="#0d83fe"/>
    <path id="Path_3384" data-name="Path 3384" d="M591.462,180.687c-.731-.8-1.384-1.471-.517-2.1a1.771,1.771,0,0,1,1.714.312c.647,1.2-.882.967-1.2,1.79Z" transform="translate(12314.984 15683.333)" fill="#0d83fe"/>
    <path id="Path_3385" data-name="Path 3385" d="M384.843,130.412c-.448-.734-.893-1.156-.9-1.591-.008-.3.731-.926.887-.857a5.467,5.467,0,0,1,1.271,1.082C385.771,129.4,385.444,129.758,384.843,130.412Z" transform="translate(12468.739 15720.934)" fill="#0d83fe"/>
    <path id="Path_3386" data-name="Path 3386" d="M704.961,213.758c-.547.583-.921.98-1.3,1.379-.256-.435-.749-.9-.7-1.3.054-.442.6-.824.936-1.23l1.061,1.148Z" transform="translate(12231.311 15646.385)" fill="#0d83fe"/>
    <path id="Path_3387" data-name="Path 3387" d="M203.183,262.03q.073,1.508.143,3.013l.026-.028-.752.614c-.269-.312-.614-.714-1.1-1.284.54-.721,1.125-1.5,1.706-2.292A.188.188,0,0,0,203.183,262.03Z" transform="translate(12604.52 15606.86)" fill="#0d83fe"/>
    <path id="Path_3388" data-name="Path 3388" d="M30.16,466.934c.977-.151,1.657-.258,2.678-.414-.286.76-.343,1.45-.708,1.721a1.767,1.767,0,0,1-1.535.059C30.319,468.167,30.311,467.466,30.16,466.934Z" transform="translate(12732.039 15443.683)" fill="#0d83fe"/>
    <path id="Path_3389" data-name="Path 3389" d="M162.3,291.606c.959-.182,1.775-.992,2.366.049.141.248-.391,1.2-.808,1.386C162.617,293.588,162.768,292.361,162.3,291.606Z" transform="translate(12633.694 15583.709)" fill="#0d83fe"/>
    <path id="Path_3390" data-name="Path 3390" d="M439.307,808.753c-.248,1.317-1.166,1.839-2.279,1.13-.276-.176-.248-.836-.358-1.274.309.01.621.018.931.036C438.135,808.676,438.673,808.712,439.307,808.753Z" transform="translate(12429.494 15170.604)" fill="#0d83fe"/>
    <path id="Path_3391" data-name="Path 3391" d="M618.077,220.22c.519.419.91.731,1.3,1.046-.427.376-.852,1.041-1.286,1.046-.4.005-.806-.7-1.21-1.09l1.194-1Z" transform="translate(12295.374 15640.328)" fill="#0d83fe"/>
    <path id="Path_3392" data-name="Path 3392" d="M247.057,129.83c.481.593.934.957,1.061,1.412.049.176-.8.87-.964.788a5.225,5.225,0,0,1-1.2-1.164C246.247,130.59,246.541,130.313,247.057,129.83Z" transform="translate(12571.438 15719.541)" fill="#0d83fe"/>
    <path id="Path_3393" data-name="Path 3393" d="M50.379,484.289c-.524-.765-.951-1.141-1.049-1.591-.153-.693.212-1.084,1.01-1.061.977.026.936.767.941,1.35,0,.3-.4.614-.9,1.3Z" transform="translate(12717.797 15431.539)" fill="#0d83fe"/>
    <path id="Path_3394" data-name="Path 3394" d="M108.248,650.49c.7,1.118.066,3.112-.719,3.3-.138.033-.611-.5-.56-.632.325-.824.752-1.6,1.276-2.668Z" transform="translate(12674.877 15296.605)" fill="#0d83fe"/>
    <path id="Path_3395" data-name="Path 3395" d="M106.116,639.752V642.2c-.99.176-1.427-.2-1.417-1.115C104.707,640.2,105.073,639.683,106.116,639.752Z" transform="translate(12676.563 15305.297)" fill="#0d83fe"/>
    <path id="Path_3396" data-name="Path 3396" d="M170.317,273.819c-.724-.8-.936-1.583-.176-2.307.156-.148.939.028,1.095.271C171.862,272.762,171.23,273.33,170.317,273.819Z" transform="translate(12628.214 15599.401)" fill="#0d83fe"/>
    <path id="Path_3397" data-name="Path 3397" d="M65.09,509.267c.445-.271,1.1-.877,1.3-.755a12.143,12.143,0,0,1,1.885,1.719l-.309.412q-1.324-.5-2.647-1.008c-.077-.123-.153-.248-.228-.371Z" transform="translate(12706.043 15410.144)" fill="#0d83fe"/>
    <path id="Path_3398" data-name="Path 3398" d="M163.567,217.99c-.5-.486-.841-.821-1.187-1.159.353-.286.731-.829,1.054-.8.488.051.933.5,1.4.78l-1.263,1.174Z" transform="translate(12633.635 15643.677)" fill="#0d83fe"/>
    <path id="Path_3399" data-name="Path 3399" d="M410.2,983.017c-.509.455-.847.995-1.2,1-.307.008-.951-.719-.882-.882a5.533,5.533,0,0,1,1.069-1.317c.279.333.56.662,1.01,1.2Z" transform="translate(12450.75 15031.009)" fill="#0d83fe"/>
    <path id="Path_3400" data-name="Path 3400" d="M695.445,305.028c-.657.45-1.089.962-1.378.893a1.532,1.532,0,0,1-.974-.992c-.049-.271.573-.936.882-.928.4.01.785.517,1.471,1.031Z" transform="translate(12238.655 15573.443)" fill="#0d83fe"/>
    <path id="Path_3401" data-name="Path 3401" d="M25.59,482.3a15.236,15.236,0,0,1,2.146-.192,1.487,1.487,0,0,1,.233,1.092,1.083,1.083,0,0,1-.967.476,6.145,6.145,0,0,1-1.355-1c-.018-.125-.036-.251-.056-.376Z" transform="translate(12735.44 15431.276)" fill="#0d83fe"/>
    <path id="Path_3402" data-name="Path 3402" d="M335.684,808.337a11.505,11.505,0,0,1,.033-1.882c.043-.248.46-.432.706-.644.233.274.7.6.655.811-.166.721.069,1.857-1.4,1.719Z" transform="translate(12504.671 15172.678)" fill="#0d83fe"/>
    <path id="Path_3403" data-name="Path 3403" d="M45.406,506.646c-.775.939-1.6,1.123-2.32.524-.184-.153.276-1.087.509-1.91.806.616,1.256.962,1.808,1.386Z" transform="translate(12722.45 15412.716)" fill="#0d83fe"/>
    <path id="Path_3404" data-name="Path 3404" d="M497.581,149.835c-.386-.593-.8-1.008-.719-1.148a6.576,6.576,0,0,1,1.043-1.187c.315.322.944.747.88.944-.146.445-.634.777-1.2,1.391Z" transform="translate(12384.703 15706.391)" fill="#0d83fe"/>
    <path id="Path_3405" data-name="Path 3405" d="M510.482,173.929c1.182-.21,1.57.327,1.381,1.271a2.265,2.265,0,0,1-.7,1.1c-1.266-.494-.624-1.506-.685-2.366Z" transform="translate(12374.642 15686.754)" fill="#0d83fe"/>
    <path id="Path_3406" data-name="Path 3406" d="M396.047,162.8a10.087,10.087,0,0,1-1.463-1.3c-.187-.24-.049-.737-.056-1.118.407.1,1.01.059,1.182.315a8.875,8.875,0,0,1,.757,1.887l-.422.217Z" transform="translate(12460.891 15696.805)" fill="#0d83fe"/>
    <path id="Path_3407" data-name="Path 3407" d="M611,767.23c-.43.488-.747.849-1.064,1.212-.243-.384-.708-.788-.675-1.148a4.249,4.249,0,0,1,.724-1.414c.3.4.6.8,1.018,1.35Z" transform="translate(12301.042 15204.561)" fill="#0d83fe"/>
    <path id="Path_3408" data-name="Path 3408" d="M410.688,1.018l-1.064,1.174c-.309-.307-.9-.65-.867-.916.056-.455.5-.859.785-1.286l1.143,1.026Z" transform="translate(12450.27 15816.174)" fill="#0d83fe"/>
    <path id="Path_3409" data-name="Path 3409" d="M157.28,701.778a22.758,22.758,0,0,1,1.877-2.059c.136-.118.675.225,1.028.356-.21.317-.35.767-.647.921a16.815,16.815,0,0,1-2.258.78Z" transform="translate(12637.431 15257.484)" fill="#0d83fe"/>
    <path id="Path_3410" data-name="Path 3410" d="M190.77,281.116l1.767-3.606a6.819,6.819,0,0,1,.269,1.524C192.709,280.029,192.238,280.776,190.77,281.116Z" transform="translate(12612.506 15594.495)" fill="#0d83fe"/>
    <path id="Path_3411" data-name="Path 3411" d="M256.693,773.522c-.808,0-1.624.044-2.425-.031-.217-.02-.4-.4-.6-.616.225-.141.458-.409.673-.4.811.046,1.614.187,2.422.289-.023.251-.049.5-.072.752Z" transform="translate(12565.692 15199.537)" fill="#0d83fe"/>
    <path id="Path_3412" data-name="Path 3412" d="M701.953,568.108H699.61c.153-.729.284-1.345.473-2.248.734.885,1.215,1.463,1.867,2.248Z" transform="translate(12233.802 15364.328)" fill="#0d83fe"/>
    <path id="Path_3413" data-name="Path 3413" d="M87.864,360.058c-.427-.652-.857-1.054-.78-1.245a4.534,4.534,0,0,1,.931-1.123c.251.279.734.586.7.826a5.65,5.65,0,0,1-.852,1.542Z" transform="translate(12689.681 15530.542)" fill="#0d83fe"/>
    <path id="Path_3414" data-name="Path 3414" d="M609.231,209.188a7.378,7.378,0,0,1-.926.6,7.539,7.539,0,0,1-1.056-1.4c-.049-.089.391-.445.606-.678.4.43.8.862,1.373,1.478Z" transform="translate(12302.544 15650.317)" fill="#0d83fe"/>
    <path id="Path_3415" data-name="Path 3415" d="M731.816,636.63c.381.437.885.775.844,1.023-.051.322-.624.854-.821.8a4.055,4.055,0,0,1-1.179-.89c.325-.261.65-.522,1.159-.928Z" transform="translate(12210.693 15307.875)" fill="#0d83fe"/>
    <path id="Path_3416" data-name="Path 3416" d="M683.225,154.515a4.941,4.941,0,0,1-1.286.836c-.159.038-.691-.583-.632-.7a6.189,6.189,0,0,1,.918-1.153c.248.253.5.5,1,1.015Z" transform="translate(12247.428 15701.925)" fill="#0d83fe"/>
    <path id="Path_3417" data-name="Path 3417" d="M597.826,711.326a11.049,11.049,0,0,1-.537-1.9c-.02-.174.532-.414.964-.731v2.527c-.143.033-.284.066-.427.1Z" transform="translate(12309.955 15250.214)" fill="#0d83fe"/>
    <path id="Path_3418" data-name="Path 3418" d="M183.241,279.832l-1.55.747q-.245-.917-.491-1.831c.115-.079.23-.159.348-.238l1.7,1.325Z" transform="translate(12619.628 15593.787)" fill="#0d83fe"/>
    <path id="Path_3419" data-name="Path 3419" d="M678.935,588.159c-.619.082-1.235.166-1.995.269V586.87l2.015.782C678.948,587.821,678.943,587.99,678.935,588.159Z" transform="translate(12250.674 15347.637)" fill="#0d83fe"/>
    <path id="Path_3420" data-name="Path 3420" d="M716.094,395.116c-.739-.829-.292-1.506.281-2.166l.448.036q-.069,1.086-.136,2.174l-.591-.043Z" transform="translate(12221.821 15502.399)" fill="#0d83fe"/>
    <path id="Path_3421" data-name="Path 3421" d="M329.49,186.845c.655-.279,1.307-.558,2.13-.905C331.429,187.6,331.035,187.776,329.49,186.845Z" transform="translate(12509.264 15677.781)" fill="#0d83fe"/>
    <path id="Path_3422" data-name="Path 3422" d="M75.742,481.594c-.583-.44-1.036-.785-1.662-1.258l1.662-.8Z" transform="translate(12699.352 15433.274)" fill="#0d83fe"/>
    <path id="Path_3423" data-name="Path 3423" d="M238.169,750.369a7.24,7.24,0,0,1-1.235.923c-.092.041-.609-.5-.563-.6a1.933,1.933,0,0,1,.765-.829C237.279,749.788,237.625,750.09,238.169,750.369Z" transform="translate(12578.568 15217.537)" fill="#0d83fe"/>
    <path id="Path_3424" data-name="Path 3424" d="M413.595,200.34c.87.11,1.772.184,1.65,1.783-.737-.591-1.3-1.036-1.854-1.483C413.459,200.539,413.526,200.44,413.595,200.34Z" transform="translate(12446.82 15656.215)" fill="#0d83fe"/>
    <path id="Path_3425" data-name="Path 3425" d="M94.8,636.92c.517.074,1.036.146,1.552.22l-.138.772c-.512-.1-1.026-.21-1.537-.312l.123-.68Z" transform="translate(12684.021 15307.755)" fill="#0d83fe"/>
    <path id="Path_3426" data-name="Path 3426" d="M697.33,576.894l-.89,1.445c-.578-1.005-.491-1.614.476-1.729Z" transform="translate(12236.43 15355.807)" fill="#0d83fe"/>
    <path id="Path_3427" data-name="Path 3427" d="M652.411,307.91l-.721-1.24,1.7-.3c-.261.683-.4,1.051-.542,1.417Z" transform="translate(12269.467 15571.576)" fill="#0d83fe"/>
    <path id="Path_1922" data-name="Path 1922" d="M61.732,23.289,40.74,2.3a7.842,7.842,0,0,0-11.09,11.09l7.605,7.6H7.842a7.842,7.842,0,0,0,0,15.685H37.254l-7.6,7.6A7.842,7.842,0,1,0,40.74,55.37L61.732,34.379a7.841,7.841,0,0,0,0-11.09" transform="translate(12832.878 15928.9) rotate(-90)" fill="#fff"/>
  </g>
</svg>
