<?xml version="1.0" encoding="UTF-8"?>
<svg id="Layer_2" data-name="Layer 2" xmlns="http://www.w3.org/2000/svg" viewBox="0 0 59.83 55.4">
  <g id="Layer_1-2" data-name="Layer 1">
    <rect width="59.83" height="55.4" style="fill: #fff; opacity: 0;"/>
    <polygon points="48.6 4.43 48.6 2.22 46.39 2.22 44.17 2.22 42.1 2.22 41.96 2.22 39.89 2.22 37.67 2.22 35.45 2.22 33.24 2.22 31.02 2.22 28.81 2.22 26.59 2.22 24.37 2.22 22.16 2.22 19.94 2.22 19.94 4.43 17.73 4.43 17.73 6.65 17.73 8.86 17.73 11.08 17.73 13.3 17.73 15.51 17.73 17.73 17.73 19.94 17.73 22.16 17.73 24.37 17.73 26.59 17.73 28.81 17.73 31.02 17.73 33.24 17.73 35.45 15.51 35.45 13.3 35.45 11.08 35.45 8.86 35.45 8.86 37.67 6.65 37.67 6.65 39.89 4.43 39.89 4.43 42.1 4.43 44.32 4.43 46.53 4.43 48.75 6.65 48.75 6.65 50.96 8.86 50.96 8.86 53.18 11.08 53.18 13.3 53.18 15.51 53.18 17.73 53.18 17.73 50.96 19.94 50.96 19.94 48.75 22.16 48.75 22.16 46.53 22.16 44.32 22.16 42.1 22.16 39.89 22.16 37.67 22.16 35.45 22.16 33.24 22.16 31.02 22.16 28.81 22.16 26.59 22.16 24.37 22.16 22.16 22.16 19.94 22.16 17.73 22.16 15.51 22.16 13.3 22.16 11.08 22.16 8.86 22.16 6.65 24.37 6.65 26.59 6.65 28.81 6.65 31.02 6.65 33.24 6.65 35.45 6.65 37.67 6.65 39.89 6.65 41.96 6.65 42.1 6.65 44.17 6.65 46.39 6.65 46.39 8.86 46.39 11.08 46.39 13.3 46.39 15.51 46.39 17.73 46.39 19.94 46.39 22.16 46.39 24.37 46.39 26.59 46.39 28.81 46.39 31.02 46.39 33.24 46.39 35.45 44.17 35.45 41.96 35.45 39.74 35.45 37.52 35.45 37.52 37.67 35.31 37.67 35.31 39.89 33.09 39.89 33.09 42.1 33.09 44.32 33.09 46.53 33.09 48.75 35.31 48.75 35.31 50.96 37.52 50.96 37.52 53.18 39.74 53.18 41.96 53.18 44.17 53.18 46.39 53.18 46.39 50.96 48.6 50.96 48.6 48.75 50.82 48.75 50.82 46.53 50.82 44.32 50.82 42.1 50.82 39.89 50.82 37.67 50.82 35.45 50.82 33.24 50.82 31.02 50.82 28.81 50.82 26.59 50.82 24.37 50.82 22.16 50.82 19.94 50.82 17.73 50.82 15.51 50.82 13.3 50.82 11.08 50.82 8.86 50.82 6.65 50.82 4.43 48.6 4.43" style="fill: #fff;"/>
  </g>
</svg>