<?xml version="1.0" encoding="UTF-8"?>
<svg id="Layer_2" data-name="Layer 2" xmlns="http://www.w3.org/2000/svg" viewBox="0 0 59.83 55.4">
  <g id="Layer_1-2" data-name="Layer 1">
    <rect y="0" width="59.83" height="55.4" style="fill: #fff; opacity: 0;"/>
    <g>
      <polygon points="48.75 19.94 46.53 19.94 46.53 22.16 46.53 24.37 46.53 26.59 46.53 28.81 46.53 31.02 46.53 33.24 46.53 35.45 44.32 35.45 42.1 35.45 39.89 35.45 37.67 35.45 37.67 37.67 35.45 37.67 35.45 39.89 33.24 39.89 33.24 42.1 33.24 44.32 33.24 46.53 33.24 48.75 35.45 48.75 35.45 50.96 37.67 50.96 37.67 53.18 39.89 53.18 42.1 53.18 44.32 53.18 46.53 53.18 46.53 50.96 48.75 50.96 48.75 48.75 50.96 48.75 50.96 46.53 50.96 44.32 50.96 42.1 50.96 39.89 50.96 37.67 50.96 35.45 50.96 33.24 50.96 31.02 50.96 28.81 50.96 26.59 50.96 24.37 50.96 22.16 50.96 19.94 50.96 17.73 48.75 17.73 48.75 19.94" style="fill: #fff;"/>
      <path d="m57.61,0h-2.22v2.22h-2.22v2.22h-4.43v-2.22h-28.81v2.22h-2.22v31.02h-8.86v2.22h-2.22v2.22h-2.22v11.08h-2.22v2.22H0v2.22h4.43v-2.22h2.22v-2.22h2.22v-2.22h2.22v-2.22h2.22v-2.22h2.22v-2.22h2.22v-2.22h2.22v-2.22h4.43v-2.22h2.22v-2.22h2.22v-2.22h2.22v-2.22h2.22v-2.22h2.22v-2.22h2.22v-2.22h2.22v-2.22h2.22v-2.22h2.22v-2.22h2.22v-2.22h2.22v-2.22h2.22v-2.22h2.22v-2.22h2.22v-2.22h2.22v-2.22h2.22V0h-2.22Zm-13.3,11.08v2.22h-2.22v2.22h-2.22v2.22h-2.22v2.22h-2.22v2.22h-2.22v2.22h-2.22v2.22h-2.22v2.22h-2.22v2.22h-2.22v2.22h-2.22V6.65h24.37v4.43h-2.22Z" style="fill: #fff;"/>
      <polygon points="19.94 46.53 17.73 46.53 17.73 48.75 15.51 48.75 15.51 50.96 13.3 50.96 13.3 53.18 15.51 53.18 17.73 53.18 17.73 50.96 19.94 50.96 19.94 48.75 22.16 48.75 22.16 46.53 22.16 44.32 19.94 44.32 19.94 46.53" style="fill: #fff;"/>
    </g>
  </g>
</svg>