<?xml version="1.0" encoding="UTF-8"?><svg id="Layer_2" xmlns="http://www.w3.org/2000/svg" viewBox="0 0 184.4 44.98"><defs><style>.cls-1{fill:none;stroke:#000;stroke-miterlimit:10;stroke-width:3px;}.cls-2{fill:#76ff00;isolation:isolate;opacity:.94;}</style></defs><g id="Layer_1-2"><g id="Group_15"><g id="Group_16"><path id="Path_1896" class="cls-1" d="m171.21,1.92l-88.9-.42c-3.77.02-6.83,3.05-6.88,6.82l-.07,25.91c-.05,3.76,2.96,6.84,6.71,6.89.03,0,.07,0,.1,0l88.9.42c3.77-.02,6.83-3.05,6.88-6.82l.07-25.91c.05-3.76-2.95-6.84-6.71-6.89-.03,0-.07,0-.1,0Z"/><path id="Path_1897" d="m184.32,27.55l.07-12.03c0-1.76-1.41-3.19-3.17-3.2-1.76,0-3.19,1.41-3.2,3.17h0l-.07,12.03c0,1.76,1.41,3.19,3.17,3.2,1.76,0,3.19-1.41,3.2-3.17"/><path id="Path_1898-2" class="cls-2" d="m170.33,36.62h0c1.58.03,2.89-1.23,2.93-2.81l.15-24.71c-.03-1.59-1.34-2.86-2.93-2.84l-88.46-.39c-.77-.02-1.51.28-2.05.82-.57.51-.89,1.24-.88,2l-.15,24.71c0,.76.31,1.49.88,2.01.54.55,1.28.85,2.05.84l88.46.39Z"/><path id="Path_1899" d="m3.66,24.9h4.39c2.02,0,3.66,1.64,3.66,3.66,0,0,0,0,0,0v12.76c0,2.02-1.64,3.66-3.66,3.66H3.66C1.64,44.98,0,43.34,0,41.32c0,0,0,0,0,0v-12.76c0-2.02,1.64-3.66,3.66-3.66h0"/><path id="Path_1900" d="m20.36,18.2h4.39c2.02,0,3.66,1.64,3.66,3.66h0v19.45c0,2.02-1.64,3.66-3.66,3.66h-4.39c-2.02,0-3.66-1.64-3.66-3.66h0v-19.45c0-2.02,1.64-3.66,3.66-3.66h0"/><path id="Path_1901" d="m38.81,6.49h4.39c2.02,0,3.66,1.64,3.66,3.66h0v31.17c0,2.02-1.64,3.66-3.66,3.66h-4.39c-2.02,0-3.66-1.64-3.66-3.66h0V10.15c0-2.02,1.64-3.66,3.66-3.66,0,0,0,0,0,0"/></g></g></g></svg>